<svg viewBox="0 0 64 64" fill="none" xmlns="http://www.w3.org/2000/svg">
    <g opacity="0.7">
        <path
            d="M8 54L42.9732 53.9993C52.579 53.9386 60.3472 46.1274 60.3472 36.5C60.3472 26.8726 52.579 19.0612 42.9732 19.0005L8 19"
            stroke="black" stroke-width="6" />
        <path
            d="M17.3782 6.87868C16.2066 5.70711 14.3075 5.70711 13.136 6.87868L2.87839 17.1363C1.70681 18.3078 1.70681 20.2069 2.87839 21.3784L13.136 31.6361C14.3075 32.8076 16.2066 32.8076 17.3782 31.6361C18.5497 30.4645 18.5497 28.5654 17.3782 27.3939L12.2417 22.2574L12.2422 16.2574L17.3782 11.1209C18.5497 9.94929 18.5497 8.05025 17.3782 6.87868Z"
            fill="black" />
        <path
            d="M8 57C6.34315 57 5 55.6569 5 54C5 52.3431 6.34315 51 8 51C9.65685 51 11 52.3431 11 54C11 55.6569 9.65685 57 8 57Z"
            fill="black" />
    </g>
</svg>