<svg viewBox="0 0 64 64" fill="none" xmlns="http://www.w3.org/2000/svg">
    <g>
        <path
            d="M12 49C9.05081 43.1016 6.10161 30.4383 6.00257 22.4107C5.99929 22.1455 5.89464 21.8946 5.70711 21.7071L3.29289 19.2929C3.10535 19.1054 3.00202 18.8562 3.13381 18.626C4.90998 15.5241 23.9015 0.999999 32 0.999999C40.0984 0.999999 59.09 15.5241 60.8662 18.626C60.998 18.8562 60.8946 19.1054 60.7071 19.2929L58.2929 21.7071C58.1054 21.8946 58.0007 22.1455 57.9974 22.4107C57.8984 30.4383 54.9492 43.1016 52 49C49 55 39 63 32 63C25 63 15 55 12 49Z"
            fill="url(#paint0_linear_177_82)" />
        <path opacity="0.2"
            d="M5.95508 18.4033C6.60887 17.7598 7.48383 16.976 8.53515 16.0996C10.6358 14.3486 13.3741 12.2829 16.3115 10.3096C19.253 8.33351 22.3551 6.47682 25.1865 5.12207C28.0895 3.73311 30.4508 3 32 3C33.5492 3.00001 35.9105 3.7331 38.8135 5.12207C41.6449 6.47683 44.7469 8.3335 47.6885 10.3096C50.6259 12.2829 53.3642 14.3486 55.4648 16.0996C56.5162 16.976 57.3911 17.7598 58.0449 18.4033C58.1787 18.535 58.2959 18.6589 58.4023 18.7695L56.8789 20.293L56.6807 20.5117C56.2455 21.0416 56.0065 21.7019 55.998 22.3857C55.9509 26.2083 55.2176 31.2316 54.1172 36.0596C53.0135 40.902 51.5815 45.3644 50.2109 48.1055C48.9019 50.7236 45.9165 53.9973 42.3174 56.6367C38.6833 59.3017 34.8601 61 32 61C29.1399 61 25.3167 59.3017 21.6826 56.6367C18.0835 53.9973 15.0981 50.7236 13.7891 48.1055C12.4185 45.3644 10.9865 40.902 9.88281 36.0596C8.78241 31.2317 8.04911 26.2083 8.00195 22.3857C7.99224 21.6043 7.68147 20.8533 7.12109 20.293L5.59668 18.7695C5.70328 18.6587 5.82106 18.5352 5.95508 18.4033Z"
            stroke="white" stroke-width="4" />
        <path
            d="M4.22363 18.8105C4.43761 18.5385 4.7748 18.162 5.2539 17.6904C5.93331 17.0217 6.82985 16.2186 7.89453 15.3311C10.0232 13.5566 12.7896 11.4709 15.7539 9.47949C18.7202 7.48681 21.8657 5.60213 24.7549 4.21973C27.6798 2.82026 30.2131 2 32 2C33.7869 2.00001 36.3202 2.82026 39.2451 4.21972C42.1343 5.60213 45.2798 7.48681 48.2461 9.47949C51.2104 11.4709 53.9768 13.5566 56.1055 15.3311C57.1701 16.2185 58.0667 17.0217 58.7461 17.6904C59.2249 18.1617 59.5614 18.5385 59.7754 18.8105L57.5859 21C57.2119 21.374 57.0035 21.8751 56.9971 22.3984C56.9487 26.3165 56.2021 31.4141 55.0928 36.2812C53.9817 41.1558 52.5281 45.7076 51.1055 48.5527C49.7009 51.3618 46.5828 54.7486 42.9082 57.4434C39.2162 60.1508 35.18 62 32 62C28.82 62 24.7838 60.1508 21.0918 57.4434C17.4172 54.7486 14.2991 51.3618 12.8945 48.5527C11.4719 45.7076 10.0183 41.1558 8.90723 36.2812C7.79792 31.4141 7.05128 26.3165 7.00293 22.3984C6.99647 21.8751 6.78805 21.374 6.41406 21L4.22363 18.8105Z"
            stroke="#605775" stroke-width="2" />
        <path opacity="0.4"
            d="M12.7978 19.0166C13.2961 18.5787 14.1597 17.9122 15.3145 17.0908C16.809 16.0278 18.7018 14.7669 20.6953 13.5254C22.6896 12.2834 24.7747 11.0673 26.6533 10.0889C28.4054 9.17635 29.9206 8.50459 31 8.19043L31 55.8496C29.2139 55.4026 26.5489 54.0127 24.0479 52.1699C21.4295 50.2407 19.2262 47.99 18.4189 46.1064C16.472 41.5632 13.0679 31.5224 13.001 19.8486C12.9993 19.5583 12.9281 19.2738 12.7978 19.0166Z"
            fill="#8365AF" stroke="#6B5496" stroke-width="2" />
    </g>
    <defs>
        <linearGradient id="paint0_linear_177_82" x1="32" y1="4.5" x2="32" y2="59"
            gradientUnits="userSpaceOnUse">
            <stop stop-color="#885EC6" />
            <stop offset="1" stop-color="#AD89DA" />
        </linearGradient>
    </defs>
</svg>