<svg viewBox="0 0 900 216" fill="none" xmlns="http://www.w3.org/2000/svg">
    <g>
        <rect x="90" y="10" width="720" height="196" rx="20" fill="#5D462E" />
        <rect x="66" y="26" width="769" height="164" rx="10" fill="#5D462E" />
        <path
            d="M12.8781 119.186C7.87022 113.008 7.87022 102.992 12.8781 96.8137L65.9324 31.3621C70.9403 25.1841 79.0596 25.1841 84.0675 31.3621L137.122 96.8137C142.13 102.992 142.13 113.008 137.122 119.186L84.0675 184.638C79.0596 190.816 70.9403 190.816 65.9324 184.638L12.8781 119.186Z"
            fill="#5D462E" />
        <path
            d="M762.878 119.186C757.87 113.008 757.87 102.992 762.878 96.8137L815.932 31.3621C820.94 25.1841 829.06 25.1841 834.067 31.3621L887.122 96.8137C892.13 102.992 892.13 113.008 887.122 119.186L834.067 184.638C829.06 190.816 820.94 190.816 815.932 184.638L762.878 119.186Z"
            fill="#5D462E" />
        <rect x="92" y="12" width="716" height="192" rx="18" fill="#B49470" />
        <rect x="68" y="28" width="765" height="160" rx="8" fill="#B49470" />
        <path
            d="M15.0029 118.984C10.0858 112.918 10.0858 103.083 15.0029 97.0164L67.0965 32.7501C72.0137 26.6839 79.986 26.684 84.9031 32.7501L136.997 97.0164C141.914 103.083 141.914 112.918 136.997 118.984L84.9031 183.25C79.986 189.316 72.0137 189.316 67.0965 183.25L15.0029 118.984Z"
            fill="#B49470" />
        <path
            d="M763.003 118.984C758.086 112.918 758.086 103.083 763.003 97.0164L815.096 32.7501C820.014 26.6839 827.986 26.684 832.903 32.7501L884.997 97.0164C889.914 103.083 889.914 112.918 884.997 118.984L832.903 183.25C827.986 189.316 820.014 189.316 815.096 183.25L763.003 118.984Z"
            fill="#B49470" />
        <rect x="99" y="18" width="703" height="180" rx="15" fill="#735A3F" />
        <rect x="78" y="34" width="744" height="148" rx="8" fill="#735A3F" />
        <path
            d="M755.62 118.185C750.793 112.56 750.793 103.44 755.62 97.8145L806.758 38.219C811.585 32.5937 819.411 32.5937 824.238 38.219L875.376 97.8145C880.203 103.44 880.203 112.56 875.376 118.185L824.238 177.781C819.411 183.406 811.585 183.406 806.758 177.781L755.62 118.185Z"
            fill="#735A3F" />
        <path
            d="M24.6202 118.185C19.7933 112.56 19.7933 103.44 24.6202 97.8145L75.7583 38.219C80.5853 32.5937 88.4114 32.5937 93.2383 38.219L144.376 97.8145C149.203 103.44 149.203 112.56 144.376 118.185L93.2383 177.781C88.4113 183.406 80.5853 183.406 75.7583 177.781L24.6202 118.185Z"
            fill="#735A3F" />
        <rect x="60" y="35" width="781" height="146" rx="73" fill="#EBDAB7" />
        <rect x="108" y="26" width="684" height="164" rx="11.0323" fill="#EBDAB7" />
        <rect x="70" y="45" width="760" height="126" rx="63" fill="#DBCFB8" />
        <rect x="118" y="36" width="664" height="144" rx="6" fill="#DBCFB8" />
        <rect x="77" y="52" width="746" height="112" rx="56" fill="#E9E2D3" />
        <rect x="125" y="43" width="650" height="130" rx="2.5" fill="#E9E2D3" />
        <path
            d="M776 108.031C776 108.031 786 106 790 102C794 98 796.031 88 796.031 88C796.031 88 798 98 802 102C806 106 816.063 108.031 816.063 108.031C816.063 108.031 806 110 802 114C798 118 796.031 128.063 796.031 128.063C796.031 128.063 794 118 790 114C786 110 776 108.031 776 108.031Z"
            fill="#DBCFB8" />
        <path
            d="M84 108.031C84 108.031 94 106 98 102C102 98 104.031 88 104.031 88C104.031 88 106 98 110 102C114 106 124.063 108.031 124.063 108.031C124.063 108.031 114 110 110 114C106 118 104.031 128.063 104.031 128.063C104.031 128.063 102 118 98 114C94 110 84 108.031 84 108.031Z"
            fill="#DBCFB8" />
    </g>
</svg>