<svg viewBox="0 0 420 720" fill="none" xmlns="http://www.w3.org/2000/svg">
    <g>
        <rect width="420" height="720" rx="28" fill="#33313F" />
        <path d="M408 12H364L372 20C388.4 20 400 31.6 400 48L408 56V12Z" fill="#8F7764" />
        <path d="M12 708H56L48 700C31.6 700 20 688.4 20 672L12 664V708Z" fill="#8F7764" />
        <path d="M408 708H364L372 700C388.4 700 400 688.4 400 672L408 664V708Z" fill="#8F7764" />
        <path d="M12 12H56L48 20C31.6 20 20 31.6 20 48L12 56V12Z" fill="#8F7764" />
        <rect x="6" y="6" width="408" height="708" rx="31" stroke="#B59F8F" stroke-width="12" />
        <rect x="2" y="2" width="416" height="716" rx="26" stroke="#5F5241" stroke-width="4" />
        <rect x="13" y="13" width="394" height="694" rx="23" stroke="#8F7764" stroke-width="2" />
        <path
            d="M361.565 33C362.556 48.8036 375.196 61.4443 391 62.4346V657.066C375.16 658.09 362.09 671.16 361.066 687H58.4346C57.4443 671.196 44.8037 658.555 29 657.564V62.4346C44.8036 61.4443 57.4443 48.8036 58.4346 33H361.565Z"
            stroke="#3E425C" stroke-width="4" />
        <circle cx="210" cy="305" r="147" stroke="#444552" stroke-width="2" />
        <circle cx="210" cy="325" r="166" stroke="#444552" stroke-width="4" />
        <path
            d="M26.659 30.2059C26.4527 29.8509 26.851 29.4527 27.2059 29.659L37.8737 35.8612C37.9909 35.9294 38.1347 35.9335 38.2557 35.8722L46.8164 31.5298C47.1521 31.3595 47.5157 31.705 47.3628 32.049L43.3762 41.019C43.3247 41.1348 43.3312 41.2682 43.3936 41.3785L49.2294 51.6842C49.4293 52.0372 49.0373 52.4293 48.6842 52.2294L38.3785 46.3936C38.2682 46.3312 38.1348 46.3247 38.019 46.3762L29.049 50.3628C28.705 50.5157 28.3595 50.1521 28.5298 49.8164L32.8722 41.2557C32.9335 41.1347 32.9294 40.9909 32.8612 40.8737L26.659 30.2059Z"
            fill="#53566B" />
        <path
            d="M32.0809 39.5314C30.4016 36.643 33.6431 33.4016 36.5314 35.0809V35.0809C37.4857 35.6356 38.6563 35.6689 39.6407 35.1696V35.1696C42.3765 33.7819 45.3417 36.5965 44.0958 39.3997L43.9651 39.6938C43.5432 40.6432 43.5963 41.7364 44.1082 42.6404V42.6404C45.7465 45.5337 42.5337 48.7465 39.6404 47.1082V47.1082C38.7364 46.5963 37.6432 46.5432 36.6938 46.9651L36.3997 47.0958C33.5965 48.3417 30.7819 45.3765 32.1696 42.6407V42.6407C32.669 41.6563 32.6356 40.4857 32.0809 39.5314V39.5314Z"
            fill="#53566B" />
        <path
            d="M393.182 30.2059C393.388 29.8509 392.99 29.4527 392.635 29.659L381.967 35.8612C381.85 35.9294 381.706 35.9335 381.585 35.8722L373.024 31.5298C372.689 31.3595 372.325 31.705 372.478 32.049L376.465 41.019C376.516 41.1348 376.51 41.2682 376.447 41.3785L370.611 51.6842C370.412 52.0372 370.804 52.4293 371.157 52.2294L381.462 46.3936C381.573 46.3312 381.706 46.3247 381.822 46.3762L390.792 50.3628C391.136 50.5157 391.481 50.1521 391.311 49.8164L386.969 41.2557C386.907 41.1347 386.911 40.9909 386.98 40.8737L393.182 30.2059Z"
            fill="#53566B" />
        <path
            d="M387.76 39.5314C389.439 36.643 386.198 33.4016 383.309 35.0809V35.0809C382.355 35.6356 381.184 35.6689 380.2 35.1696V35.1696C377.464 33.7819 374.499 36.5965 375.745 39.3997L375.876 39.6938C376.298 40.6432 376.245 41.7364 375.733 42.6404V42.6404C374.094 45.5337 377.307 48.7465 380.2 47.1082V47.1082C381.104 46.5963 382.198 46.5432 383.147 46.9651L383.441 47.0958C386.244 48.3417 389.059 45.3765 387.671 42.6407V42.6407C387.172 41.6563 387.205 40.4857 387.76 39.5314V39.5314Z"
            fill="#53566B" />
        <path
            d="M26.659 689.635C26.4527 689.99 26.851 690.388 27.2059 690.182L37.8737 683.979C37.9909 683.911 38.1347 683.907 38.2557 683.968L46.8164 688.311C47.1521 688.481 47.5157 688.136 47.3628 687.792L43.3762 678.822C43.3247 678.706 43.3312 678.572 43.3936 678.462L49.2294 668.156C49.4293 667.803 49.0373 667.411 48.6842 667.611L38.3785 673.447C38.2682 673.509 38.1348 673.516 38.019 673.464L29.049 669.478C28.705 669.325 28.3595 669.689 28.5298 670.024L32.8722 678.585C32.9335 678.706 32.9294 678.85 32.8612 678.967L26.659 689.635Z"
            fill="#53566B" />
        <path
            d="M32.0809 680.309C30.4016 683.198 33.6431 686.439 36.5314 684.76V684.76C37.4857 684.205 38.6563 684.172 39.6407 684.671V684.671C42.3765 686.059 45.3417 683.244 44.0958 680.441L43.9651 680.147C43.5432 679.197 43.5963 678.104 44.1082 677.2V677.2C45.7465 674.307 42.5337 671.094 39.6404 672.732V672.732C38.7364 673.244 37.6432 673.297 36.6938 672.875L36.3997 672.745C33.5965 671.499 30.7819 674.464 32.1696 677.2V677.2C32.669 678.184 32.6356 679.355 32.0809 680.309V680.309Z"
            fill="#53566B" />
        <path
            d="M393.182 689.635C393.388 689.99 392.99 690.388 392.635 690.182L381.967 683.979C381.85 683.911 381.706 683.907 381.585 683.968L373.024 688.311C372.689 688.481 372.325 688.136 372.478 687.792L376.465 678.822C376.516 678.706 376.51 678.572 376.447 678.462L370.611 668.156C370.412 667.803 370.804 667.411 371.157 667.611L381.462 673.447C381.573 673.509 381.706 673.516 381.822 673.464L390.792 669.478C391.136 669.325 391.481 669.689 391.311 670.024L386.969 678.585C386.907 678.706 386.911 678.85 386.98 678.967L393.182 689.635Z"
            fill="#53566B" />
        <path
            d="M387.76 680.309C389.439 683.198 386.198 686.439 383.309 684.76V684.76C382.355 684.205 381.184 684.172 380.2 684.671V684.671C377.464 686.059 374.499 683.244 375.745 680.441L375.876 680.147C376.298 679.197 376.245 678.104 375.733 677.2V677.2C374.094 674.307 377.307 671.094 380.2 672.732V672.732C381.104 673.244 382.198 673.297 383.147 672.875L383.441 672.745C386.244 671.499 389.059 674.464 387.671 677.2V677.2C387.172 678.184 387.205 679.355 387.76 680.309V680.309Z"
            fill="#53566B" />
        <rect x="209" y="452" width="2" height="77" fill="#444552" />
        <path d="M201 490L210 476.875L219 490L210 503.125L201 490Z" fill="#444552" />
        <path d="M217.786 538.125L210 549.48L202.213 538.125L210 526.769L217.786 538.125Z"
            stroke="#444552" stroke-width="2" />
        <path d="M201 561.125L210 548L219 561.125L210 574.25L201 561.125Z" fill="#444552" />
        <path d="M107.59 455.708L122.523 450.205L122.275 466.117L107.342 471.62L107.59 455.708Z"
            fill="#444552" />
        <path d="M312.275 455.708L297.343 450.205L297.59 466.117L312.523 471.62L312.275 455.708Z"
            fill="#444552" />
        <mask id="mask0_169_105" style="mask-type:alpha" maskUnits="userSpaceOnUse" x="31" y="69"
            width="359" height="583">
            <rect x="31" y="69" width="359" height="583" fill="url(#paint0_linear_169_105)" />
        </mask>
        <g mask="url(#mask0_169_105)">
            <circle cx="210" cy="325" r="154" stroke="#444552" stroke-width="100"
                stroke-dasharray="0 15 2 30" opacity="0.25" />
            <circle cx="210" cy="325" r="154" stroke="#444552" stroke-width="180"
                stroke-dasharray="2 45" opacity="0.25" />
            <circle cx="210" cy="325" r="154" stroke="#444552" stroke-width="120"
                stroke-dasharray="0 30 2 15" opacity="0.25" />
        </g>
        <path
            d="M209.033 120.652C209.296 119.66 210.704 119.66 210.967 120.652L218.861 150.474C218.948 150.802 219.195 151.064 219.517 151.169L242.326 158.626C243.221 158.918 243.253 160.172 242.375 160.51L219.47 169.319C219.174 169.433 218.95 169.68 218.866 169.986L210.964 198.52C210.693 199.497 209.307 199.497 209.036 198.52L201.134 169.986C201.05 169.68 200.826 169.433 200.53 169.319L177.625 160.51C176.747 160.172 176.779 158.918 177.674 158.626L200.483 151.169C200.805 151.064 201.052 150.802 201.139 150.474L209.033 120.652Z"
            fill="#837257" />
        <path
            d="M202.132 146.722C204.27 138.647 215.73 138.647 217.868 146.722V146.722C218.574 149.39 220.584 151.518 223.207 152.375V152.375C230.497 154.758 230.763 164.976 223.605 167.729L222.854 168.018C220.43 168.95 218.591 170.976 217.898 173.48V173.48C215.68 181.49 204.32 181.49 202.102 173.48V173.48C201.409 170.976 199.57 168.95 197.146 168.018L196.395 167.729C189.237 164.976 189.503 154.758 196.793 152.375V152.375C199.416 151.518 201.426 149.39 202.132 146.722V146.722Z"
            fill="#837257" />
        <path
            d="M296.428 146.05C296.647 145.222 297.823 145.222 298.043 146.05L304.637 170.961C304.709 171.235 304.915 171.453 305.185 171.541L324.237 177.77C324.984 178.014 325.011 179.061 324.278 179.343L305.146 186.702C304.899 186.797 304.711 187.003 304.641 187.259L298.04 211.093C297.814 211.91 296.656 211.91 296.43 211.093L289.83 187.259C289.759 187.003 289.572 186.797 289.325 186.702L270.193 179.343C269.459 179.061 269.486 178.014 270.233 177.77L289.286 171.541C289.555 171.453 289.761 171.235 289.834 170.961L296.428 146.05Z"
            fill="#837257" />
        <path
            d="M290.664 167.827C292.449 161.082 302.022 161.082 303.807 167.827V167.827C304.397 170.055 306.076 171.833 308.267 172.549V172.549C314.356 174.539 314.578 183.074 308.599 185.374L307.972 185.615C305.947 186.394 304.411 188.086 303.832 190.177V190.177C301.979 196.868 292.491 196.868 290.638 190.177V190.177C290.059 188.086 288.523 186.394 286.498 185.615L285.871 185.374C279.892 183.074 280.115 174.539 286.203 172.549V172.549C288.394 171.833 290.074 170.055 290.664 167.827V167.827Z"
            fill="#837257" />
        <path
            d="M122.428 146.05C122.647 145.222 123.823 145.222 124.043 146.05L130.637 170.961C130.709 171.235 130.915 171.453 131.185 171.541L150.237 177.77C150.984 178.014 151.011 179.061 150.278 179.343L131.146 186.702C130.899 186.797 130.711 187.003 130.641 187.259L124.04 211.093C123.814 211.91 122.656 211.91 122.43 211.093L115.83 187.259C115.759 187.003 115.572 186.797 115.325 186.702L96.193 179.343C95.4593 179.061 95.4861 178.014 96.2333 177.77L115.286 171.541C115.555 171.453 115.761 171.235 115.834 170.961L122.428 146.05Z"
            fill="#837257" />
        <path
            d="M116.664 167.827C118.449 161.082 128.022 161.082 129.807 167.827V167.827C130.397 170.055 132.076 171.833 134.267 172.549V172.549C140.356 174.539 140.578 183.074 134.599 185.374L133.972 185.615C131.947 186.394 130.411 188.086 129.832 190.177V190.177C127.979 196.868 118.491 196.868 116.638 190.177V190.177C116.059 188.086 114.523 186.394 112.498 185.615L111.871 185.374C105.892 183.074 106.115 174.539 112.203 172.549V172.549C114.394 171.833 116.074 170.055 116.664 167.827V167.827Z"
            fill="#837257" />
        <circle cx="210" cy="295" r="14" fill="#9A896C" />
        <path
            d="M179.562 252.282C186.062 252.782 200.562 256.282 208.562 263.282C190.562 273.282 177.562 299.282 177.562 323.782C177.562 349.282 196.062 367.782 210.562 381.282C216.562 376.282 234.062 357.782 237.563 345.782C244.063 344.782 258.062 341.282 270.063 332.282C264.563 367.282 234.562 400.782 210.562 413.282C180.062 396.282 149.562 358.282 149.562 323.782C149.563 286.782 162.563 269.282 179.562 252.282Z"
            fill="#9A896C" />
        <path
            d="M267.563 293.782C263.562 299.282 253.062 307.782 242.562 311.282C241.062 282.282 212.669 261.572 200.562 255.782C177.562 244.782 137.563 250.282 131.063 252.782C130.062 260.282 142.563 283.282 151.562 294.282C149.563 300.282 147.062 314.282 148.063 327.282C120.062 307.782 101.062 263.782 101.562 236.782C131.535 218.868 181.062 217.782 214.322 232.032C238.171 242.25 261.34 270.56 267.563 293.782Z"
            fill="#9A896C" />
        <path
            d="M183.537 342.718C179.563 333.782 179.063 323.782 180.562 313.282C198.082 324.101 239.931 320.087 259.062 304.782C279.062 288.782 287.062 269.282 290.562 253.782C277.062 248.782 255.562 247.782 243.562 250.282C238.062 244.282 227.562 235.782 214.562 230.282C246.562 217.782 297.062 222.782 320.062 236.782C318.562 271.282 302.062 305.282 274.063 327.282C244.062 350.854 203.562 347.782 183.537 342.718Z"
            fill="#9A896C" />
    </g>
    <defs>
        <linearGradient id="paint0_linear_169_105" x1="211" y1="96.5" x2="211" y2="225"
            gradientUnits="userSpaceOnUse">
            <stop stop-opacity="0" />
            <stop offset="1" />
        </linearGradient>
    </defs>
</svg>