<svg viewBox="0 0 420 720" fill="none" xmlns="http://www.w3.org/2000/svg">
    <g>
        <path d="M408 12H353L363 22C383.5 22 398 36.5 398 57L408 67V12Z" fill="#C3B7A6" />
        <path d="M12 708H67L57 698C36.5 698 22 683.5 22 663L12 653V708Z" fill="#C3B7A6" />
        <path d="M408 708H353L363 698C383.5 698 398 683.5 398 663L408 653V708Z" fill="#C3B7A6" />
        <path d="M12 12H67L57 22C36.5 22 22 36.5 22 57L12 67V12Z" fill="#C3B7A6" />
        <rect x="6" y="6" width="408" height="708" rx="31" stroke="#E1D9C7" stroke-width="12" />
        <rect x="2" y="2" width="416" height="716" rx="26" stroke="#766E63" stroke-width="4" />
        <rect x="13" y="13" width="394" height="694" rx="23" stroke="#C3B7A6" stroke-width="2" />
    </g>
</svg>