<svg viewBox="0 0 64 64" fill="none" xmlns="http://www.w3.org/2000/svg">
    <g opacity="0.7">
        <path
            d="M52 50V13.5C52 10.4624 49.5376 8 46.5 8C43.4624 8 41.1169 10.6778 39.3719 13.1642C37.744 15.4838 35.049 17 32 17C28.951 17 26.256 15.4838 24.6281 13.1642C22.8831 10.6778 20.5376 8 17.5 8C14.4624 8 12 10.4624 12 13.5V50C12 53.3137 14.6863 56 18 56H46C49.3137 56 52 53.3137 52 50Z"
            fill="black" />
        <path
            d="M13.5141 9.4912C14.9517 8.66763 16.7927 9.16091 17.626 10.593L23.1752 20.1295C24.0085 21.5615 23.5186 23.3901 22.0809 24.2136L10.1698 31.0368C8.73213 31.8604 6.89114 31.3671 6.05785 29.9351L0.508655 20.3986C-0.324642 18.9665 0.165301 17.138 1.60297 16.3144L13.5141 9.4912Z"
            fill="black" />
        <path
            d="M50.485 9.4912C49.0473 8.66763 47.2063 9.16091 46.373 10.593L40.8238 20.1295C39.9905 21.5615 40.4805 23.3901 41.9181 24.2136L53.8292 31.0368C55.2669 31.8604 57.1079 31.3671 57.9412 29.9351L63.4904 20.3986C64.3237 18.9665 63.8337 17.138 62.396 16.3144L50.485 9.4912Z"
            fill="black" />
    </g>
</svg>