<svg viewBox="0 0 420 290" fill="none" xmlns="http://www.w3.org/2000/svg">
    <g>
        <circle cx="210" cy="145" r="114" fill="#8E7455" />
        <path
            d="M199.608 7.00001C204.226 -0.99999 215.774 -1 220.392 7L235.981 34C240.6 42 234.826 52 225.588 52H194.412C185.174 52 179.4 42 184.019 34L199.608 7.00001Z"
            fill="#8E7455" />
        <path
            d="M199.608 283C204.226 291 215.774 291 220.392 283L235.981 256C240.6 248 234.826 238 225.588 238H194.412C185.174 238 179.4 248 184.019 256L199.608 283Z"
            fill="#8E7455" />
        <path
            d="M72 155.392C64 150.774 64 139.226 72 134.608L99 119.019C107 114.4 117 120.174 117 129.412L117 160.588C117 169.826 107 175.6 99 170.981L72 155.392Z"
            fill="#8E7455" />
        <path
            d="M348 155.392C356 150.774 356 139.226 348 134.608L321 119.019C313 114.4 303 120.174 303 129.412L303 160.588C303 169.826 313 175.6 321 170.981L348 155.392Z"
            fill="#8E7455" />
        <path
            d="M300.232 40.0708C309.155 37.6799 317.32 45.8449 314.929 54.7677L306.86 84.8823C304.469 93.8052 293.316 96.7937 286.784 90.2618L264.738 68.2164C258.206 61.6844 261.195 50.5308 270.118 48.14L300.232 40.0708Z"
            fill="#8E7455" />
        <path
            d="M105.071 235.232C102.68 244.155 110.845 252.32 119.768 249.929L149.883 241.86C158.805 239.469 161.794 228.316 155.262 221.784L133.217 199.738C126.685 193.206 115.531 196.195 113.14 205.118L105.071 235.232Z"
            fill="#8E7455" />
        <path
            d="M105.071 54.7678C102.68 45.8449 110.845 37.6799 119.768 40.0708L149.883 48.14C158.805 50.5309 161.794 61.6844 155.262 68.2164L133.217 90.2618C126.685 96.7938 115.531 93.8052 113.14 84.8823L105.071 54.7678Z"
            fill="#8E7455" />
        <path
            d="M300.232 249.929C309.155 252.32 317.32 244.155 314.929 235.232L306.86 205.118C304.469 196.195 293.316 193.206 286.784 199.738L264.738 221.784C258.206 228.316 261.195 239.469 270.118 241.86L300.232 249.929Z"
            fill="#8E7455" />
        <circle cx="210.001" cy="145" r="105.962" fill="#B8A788" />
        <path
            d="M205.669 12.5C207.594 9.16666 212.405 9.16667 214.33 12.5L239.478 56.0577C241.402 59.391 238.996 63.5577 235.147 63.5577H184.851C181.002 63.5577 178.597 59.391 180.521 56.0577L205.669 12.5Z"
            fill="#B8A788" />
        <path
            d="M205.669 277.5C207.594 280.833 212.405 280.833 214.33 277.5L239.478 233.942C241.402 230.609 238.996 226.442 235.147 226.442H184.851C181.002 226.442 178.597 230.609 180.521 233.942L205.669 277.5Z"
            fill="#B8A788" />
        <path
            d="M77.5 149.33C74.1667 147.406 74.1667 142.594 77.5 140.67L121.058 115.522C124.391 113.597 128.558 116.003 128.558 119.852L128.558 170.148C128.558 173.997 124.391 176.403 121.058 174.478L77.5 149.33Z"
            fill="#B8A788" />
        <path
            d="M342.5 149.33C345.833 147.406 345.833 142.594 342.5 140.67L298.942 115.522C295.609 113.597 291.442 116.003 291.442 119.852L291.442 170.148C291.442 173.997 295.609 176.403 298.942 174.478L342.5 149.33Z"
            fill="#B8A788" />
        <path
            d="M300.63 48.2461C304.348 47.2499 307.75 50.6519 306.754 54.3698L293.736 102.952C292.74 106.67 288.092 107.915 285.371 105.194L249.806 69.6288C247.084 66.9072 248.33 62.2599 252.048 61.2637L300.63 48.2461Z"
            fill="#B8A788" />
        <path
            d="M113.246 235.629C112.25 239.347 115.652 242.749 119.37 241.753L167.952 228.736C171.67 227.739 172.915 223.092 170.194 220.37L134.629 184.806C131.907 182.084 127.26 183.329 126.264 187.047L113.246 235.629Z"
            fill="#B8A788" />
        <path
            d="M113.246 54.3702C112.25 50.6524 115.652 47.2503 119.37 48.2465L167.952 61.2641C171.67 62.2603 172.915 66.9076 170.194 69.6292L134.629 105.194C131.907 107.916 127.26 106.67 126.264 102.953L113.246 54.3702Z"
            fill="#B8A788" />
        <path
            d="M300.63 241.754C304.348 242.75 307.75 239.348 306.754 235.63L293.736 187.047C292.74 183.33 288.092 182.084 285.371 184.806L249.806 220.371C247.084 223.092 248.33 227.74 252.048 228.736L300.63 241.754Z"
            fill="#B8A788" />
        <rect x="103" y="145" width="151.674" height="151.674" rx="8"
            transform="rotate(-45 103 145)" fill="#DF852D" />
        <rect x="140" y="75" width="140" height="140" rx="8" fill="#DF852D" />
        <rect x="111" y="145" width="140.714" height="140.714" rx="5"
            transform="rotate(-45 111 145)" fill="#F39724" />
        <rect x="145" y="80" width="130" height="130" rx="6" fill="#F39724" />
        <g filter="url(#filter1_f_234_154)">
            <path
                d="M66 145C66 145 144.995 140.453 170.789 106.066C190.359 79.9755 202.805 46.6006 207.671 32.0143C208.325 30.0542 211.431 30.1265 212.01 32.1103C216.275 46.7466 227.61 80.0327 248.657 106.066C276.457 140.453 354 144.5 354 144.5C354 144.5 275.56 149.698 248.657 183.934C228.143 210.038 216.438 243.675 212.035 258.182C211.44 260.141 208.404 260.188 207.757 258.244C202.953 243.797 190.476 210.18 170.789 183.934C144.995 149.547 66 145 66 145Z"
                fill="#FEF095" />
        </g>
        <g filter="url(#filter2_f_234_154)">
            <path
                d="M142.937 80.9679C142.305 79.2038 144.278 77.2297 146.042 77.8609C155.476 81.2357 177.571 87.6178 209.752 87.6178C241.861 87.6178 264.14 81.2644 273.721 77.8837C275.503 77.2553 277.488 79.2879 276.828 81.0577C273.325 90.4557 266.813 112.281 266.813 144.679C266.813 177.006 273.296 199.015 276.805 208.56C277.462 210.346 275.418 212.392 273.632 211.736C264.075 208.228 242.037 201.74 209.752 201.74C177.395 201.74 155.541 208.257 146.132 211.759C144.362 212.418 142.331 210.431 142.96 208.651C146.342 199.081 152.691 176.831 152.691 144.679C152.691 112.455 146.313 90.3901 142.937 80.9679Z"
                fill="#FEF095" />
        </g>
        <g filter="url(#filter3_f_234_154)">
            <path
                d="M66 145C66 145 151.5 139 174.752 108.002C192.066 84.9191 203.14 56.565 207.666 43.5901C208.34 41.6572 211.42 41.7255 212.018 43.6832C215.998 56.7003 226.131 84.9742 244.748 108.002C260.471 127.451 299.471 137.059 326.35 141.519C328.799 141.925 328.803 148.077 326.354 148.481C299.301 152.954 260.004 162.584 244.748 181.998C226.598 205.095 216.153 233.668 212.045 246.584C211.431 248.517 208.414 248.562 207.748 246.646C203.275 233.782 192.172 205.223 174.752 181.999C151.5 151 66 145 66 145Z"
                fill="#FFFFDF" />
        </g>
        <g filter="url(#filter4_f_234_154)">
            <path
                d="M145.42 83.9051C144.506 82.0073 147.007 79.5063 148.905 80.4198C160.042 85.7808 182.714 94.7427 209.823 94.7427C236.592 94.7427 259.204 86.004 270.591 80.623C272.522 79.7105 275.116 82.3895 274.164 84.3009C268.669 95.3284 259.904 117.241 259.904 144.824C259.904 172.415 268.674 194.499 274.169 205.627C275.116 207.545 272.497 210.215 270.57 209.287C259.177 203.801 236.575 194.904 209.823 194.904C182.734 194.904 160.075 204.026 148.929 209.492C147.035 210.421 144.51 207.928 145.418 206.023C150.778 194.783 159.742 171.935 159.742 144.824C159.742 117.715 150.781 95.0426 145.42 83.9051Z"
                fill="#FFFFDF" />
        </g>
    </g>
    <defs>
        <filter id="filter1_f_234_154" x="51" y="15.5826" width="318" height="259.094"
            filterUnits="userSpaceOnUse" color-interpolation-filters="sRGB">
            <feFlood flood-opacity="0" result="BackgroundImageFix" />
            <feBlend mode="normal" in="SourceGraphic" in2="BackgroundImageFix" result="shape" />
            <feGaussianBlur stdDeviation="7.5" result="effect1_foregroundBlur_234_154" />
        </filter>
        <filter id="filter2_f_234_154" x="127.816" y="62.7407" width="164.142" height="164.148"
            filterUnits="userSpaceOnUse" color-interpolation-filters="sRGB">
            <feFlood flood-opacity="0" result="BackgroundImageFix" />
            <feBlend mode="normal" in="SourceGraphic" in2="BackgroundImageFix" result="shape" />
            <feGaussianBlur stdDeviation="7.5" result="effect1_foregroundBlur_234_154" />
        </filter>
        <filter id="filter3_f_234_154" x="61" y="37.177" width="272.188" height="215.882"
            filterUnits="userSpaceOnUse" color-interpolation-filters="sRGB">
            <feFlood flood-opacity="0" result="BackgroundImageFix" />
            <feBlend mode="normal" in="SourceGraphic" in2="BackgroundImageFix" result="shape" />
            <feGaussianBlur stdDeviation="2.5" result="effect1_foregroundBlur_234_154" />
        </filter>
        <filter id="filter4_f_234_154" x="140.226" y="75.2256" width="139.144" height="139.467"
            filterUnits="userSpaceOnUse" color-interpolation-filters="sRGB">
            <feFlood flood-opacity="0" result="BackgroundImageFix" />
            <feBlend mode="normal" in="SourceGraphic" in2="BackgroundImageFix" result="shape" />
            <feGaussianBlur stdDeviation="2.5" result="effect1_foregroundBlur_234_154" />
        </filter>
    </defs>
</svg>