<svg viewBox="0 0 420 290" fill="none" xmlns="http://www.w3.org/2000/svg">
    <g>
        <circle cx="210" cy="145" r="114" fill="#8E7455" />
        <path
            d="M199.608 7.00001C204.226 -0.99999 215.774 -1 220.392 7L235.981 34C240.6 42 234.826 52 225.588 52H194.412C185.174 52 179.4 42 184.019 34L199.608 7.00001Z"
            fill="#8E7455" />
        <path
            d="M199.608 283C204.226 291 215.774 291 220.392 283L235.981 256C240.6 248 234.826 238 225.588 238H194.412C185.174 238 179.4 248 184.019 256L199.608 283Z"
            fill="#8E7455" />
        <path
            d="M72 155.392C64 150.774 64 139.226 72 134.608L99 119.019C107 114.4 117 120.174 117 129.412L117 160.588C117 169.826 107 175.6 99 170.981L72 155.392Z"
            fill="#8E7455" />
        <path
            d="M348 155.392C356 150.774 356 139.226 348 134.608L321 119.019C313 114.4 303 120.174 303 129.412L303 160.588C303 169.826 313 175.6 321 170.981L348 155.392Z"
            fill="#8E7455" />
        <path
            d="M300.232 40.0708C309.155 37.6799 317.32 45.8449 314.929 54.7677L306.86 84.8823C304.469 93.8052 293.316 96.7937 286.784 90.2618L264.738 68.2164C258.206 61.6844 261.195 50.5308 270.118 48.14L300.232 40.0708Z"
            fill="#8E7455" />
        <path
            d="M105.071 235.232C102.68 244.155 110.845 252.32 119.768 249.929L149.883 241.86C158.805 239.469 161.794 228.316 155.262 221.784L133.217 199.738C126.685 193.206 115.531 196.195 113.14 205.118L105.071 235.232Z"
            fill="#8E7455" />
        <path
            d="M105.071 54.7678C102.68 45.8449 110.845 37.6799 119.768 40.0708L149.883 48.14C158.805 50.5309 161.794 61.6844 155.262 68.2164L133.217 90.2618C126.685 96.7938 115.531 93.8052 113.14 84.8823L105.071 54.7678Z"
            fill="#8E7455" />
        <path
            d="M300.232 249.929C309.155 252.32 317.32 244.155 314.929 235.232L306.86 205.118C304.469 196.195 293.316 193.206 286.784 199.738L264.738 221.784C258.206 228.316 261.195 239.469 270.118 241.86L300.232 249.929Z"
            fill="#8E7455" />
        <circle cx="210.001" cy="145" r="105.962" fill="#B8A788" />
        <path
            d="M205.669 12.5C207.594 9.16666 212.405 9.16667 214.33 12.5L239.478 56.0577C241.402 59.391 238.996 63.5577 235.147 63.5577H184.851C181.002 63.5577 178.597 59.391 180.521 56.0577L205.669 12.5Z"
            fill="#B8A788" />
        <path
            d="M205.669 277.5C207.594 280.833 212.405 280.833 214.33 277.5L239.478 233.942C241.402 230.609 238.996 226.442 235.147 226.442H184.851C181.002 226.442 178.597 230.609 180.521 233.942L205.669 277.5Z"
            fill="#B8A788" />
        <path
            d="M77.5 149.33C74.1667 147.406 74.1667 142.594 77.5 140.67L121.058 115.522C124.391 113.597 128.558 116.003 128.558 119.852L128.558 170.148C128.558 173.997 124.391 176.403 121.058 174.478L77.5 149.33Z"
            fill="#B8A788" />
        <path
            d="M342.5 149.33C345.833 147.406 345.833 142.594 342.5 140.67L298.942 115.522C295.609 113.597 291.442 116.003 291.442 119.852L291.442 170.148C291.442 173.997 295.609 176.403 298.942 174.478L342.5 149.33Z"
            fill="#B8A788" />
        <path
            d="M300.63 48.2461C304.348 47.2499 307.75 50.6519 306.754 54.3698L293.736 102.952C292.74 106.67 288.092 107.915 285.371 105.194L249.806 69.6288C247.084 66.9072 248.33 62.2599 252.048 61.2637L300.63 48.2461Z"
            fill="#B8A788" />
        <path
            d="M113.246 235.629C112.25 239.347 115.652 242.749 119.37 241.753L167.952 228.736C171.67 227.739 172.915 223.092 170.194 220.37L134.629 184.806C131.907 182.084 127.26 183.329 126.264 187.047L113.246 235.629Z"
            fill="#B8A788" />
        <path
            d="M113.246 54.3702C112.25 50.6524 115.652 47.2503 119.37 48.2465L167.952 61.2641C171.67 62.2603 172.915 66.9076 170.194 69.6292L134.629 105.194C131.907 107.916 127.26 106.67 126.264 102.953L113.246 54.3702Z"
            fill="#B8A788" />
        <path
            d="M300.63 241.754C304.348 242.75 307.75 239.348 306.754 235.63L293.736 187.047C292.74 183.33 288.092 182.084 285.371 184.806L249.806 220.371C247.084 223.092 248.33 227.74 252.048 228.736L300.63 241.754Z"
            fill="#B8A788" />
        <rect x="103" y="145" width="151.674" height="151.674" rx="8"
            transform="rotate(-45 103 145)" fill="#957C5D" />
        <rect x="140" y="75" width="140" height="140" rx="8" fill="#957C5D" />
        <rect x="111" y="145" width="140.714" height="140.714" rx="5"
            transform="rotate(-45 111 145)" fill="#E0D1B1" />
        <rect x="145" y="80" width="130" height="130" rx="6" fill="#E0D1B1" />
        <circle cx="210.001" cy="145" r="61.3063" fill="#A68C73" />
        <path
            d="M207.68 66.5276C208.928 65.1681 211.072 65.1681 212.32 66.5276L232.002 87.9716C233.855 89.9909 232.423 93.25 229.682 93.25H190.318C187.577 93.25 186.145 89.9909 187.998 87.9716L207.68 66.5276Z"
            fill="#A68C73" />
        <path
            d="M207.68 223.472C208.928 224.832 211.072 224.832 212.32 223.472L232.002 202.028C233.855 200.009 232.423 196.75 229.682 196.75H190.318C187.577 196.75 186.145 200.009 187.998 202.028L207.68 223.472Z"
            fill="#A68C73" />
        <path
            d="M131.528 147.32C130.168 146.072 130.168 143.928 131.528 142.68L152.972 122.998C154.991 121.145 158.25 122.577 158.25 125.318L158.25 164.682C158.25 167.423 154.991 168.855 152.972 167.002L131.528 147.32Z"
            fill="#A68C73" />
        <path
            d="M288.472 147.32C289.832 146.072 289.832 143.928 288.472 142.68L267.028 122.998C265.009 121.145 261.75 122.577 261.75 125.318L261.75 164.682C261.75 167.423 265.009 168.855 267.028 167.002L288.472 147.32Z"
            fill="#A68C73" />
        <g>
            <rect x="103" y="145" width="151.674" height="151.674" rx="8"
                transform="rotate(-45 103 145)" fill="#DF852D" />
            <rect x="140" y="75" width="140" height="140" rx="8" fill="#DF852D" />
            <rect x="111" y="145" width="140.714" height="140.714" rx="5"
                transform="rotate(-45 111 145)" fill="#F39724" />
            <rect x="145" y="80" width="130" height="130" rx="6" fill="#F39724" />
            <g filter="url(#filter1_f_239_324)">
                <path
                    d="M20.9869 147.872C18.1921 147.417 18.2229 142.278 21.0229 141.857C58.5515 136.206 133.019 121.51 155.478 91.5683C180.343 58.42 200.8 20.6455 207.465 7.90776C208.393 6.13594 211.007 6.20554 211.859 8.0148C217.905 20.8559 236.67 58.5126 263.394 91.5685C287.622 121.537 361.442 136.198 398.418 141.819C401.211 142.244 401.243 147.342 398.455 147.802C361.297 153.932 286.882 169.594 263.394 199.483C237.428 232.526 218.07 270.445 211.873 283.176C211.006 284.957 208.437 285.002 207.519 283.247C200.91 270.61 180.41 232.721 155.479 199.484C133.012 169.533 58.504 153.972 20.9869 147.872Z"
                    fill="#FEF095" />
            </g>
            <g filter="url(#filter2_f_239_324)">
                <path
                    d="M108.593 50.4577C106.992 47.8899 111.225 43.4906 113.847 45.0019C134.186 56.7275 171.442 74.5804 209.732 74.5804C247.788 74.5804 284.16 56.9443 304.139 45.2169C306.751 43.6839 311.099 48.0979 309.535 50.6911C297.656 70.3858 279.884 106.277 279.884 144.732C279.884 182.965 297.45 219.764 309.328 240.274C310.855 242.912 306.256 247.341 303.67 245.726C283.709 233.258 247.83 214.884 209.732 214.884C171.38 214.884 134.619 233.503 114.297 245.975C111.702 247.568 107.229 243.155 108.794 240.542C121.114 219.971 139.58 182.789 139.58 144.732C139.58 106.467 120.912 70.2147 108.593 50.4577Z"
                    fill="#FEF095" />
            </g>
            <g filter="url(#filter3_f_239_324)">
                <path
                    d="M27.3879 147.827C24.6322 147.38 24.6322 142.62 27.3879 142.173C63.6822 136.291 140.087 120.928 160.79 93.3279C183.08 63.6125 201.883 31.7733 208.162 20.8579C209.113 19.2042 211.563 19.2589 212.443 20.9519C218.158 31.955 235.459 63.6974 259.414 93.3278C281.742 120.946 357.749 136.311 393.679 142.185C396.43 142.635 396.434 147.366 393.684 147.815C357.585 153.711 281.048 169.142 259.413 196.673C236.145 226.283 218.319 258.233 212.461 269.157C211.568 270.821 209.153 270.866 208.212 269.229C201.983 258.396 183.139 226.467 160.79 196.673C140.087 169.073 63.6822 153.71 27.3879 147.827Z"
                    fill="#FFFFDF" />
            </g>
            <g filter="url(#filter4_f_239_324)">
                <path
                    d="M111.905 53.0124C110.121 50.3804 115.38 45.1216 118.012 46.9053C141.538 62.8485 178.645 83.9838 210.038 83.9838C240.447 83.9838 276.385 64.1535 300.113 48.42C302.783 46.649 308.49 52.4599 306.686 55.1084C290.864 78.3312 271.094 113.632 271.094 145.039C271.094 176.453 290.873 211.929 306.696 235.284C308.494 237.938 302.764 243.731 300.099 241.95C276.371 226.084 240.441 206.094 210.038 206.094C178.655 206.094 141.56 227.395 118.033 243.471C115.407 245.266 110.125 240.02 111.903 237.382C127.846 213.722 148.983 176.433 148.983 145.039C148.983 113.646 127.848 76.5384 111.905 53.0124Z"
                    fill="#FFFFDF" />
            </g>
            <g opacity="0.8" filter="url(#filter5_f_239_324)">
                <circle cx="210.5" cy="145.5" r="58.5" fill="#FF8700" />
            </g>
            <g filter="url(#filter6_f_239_324)">
                <circle cx="210.5" cy="145.5" r="35.5" fill="#FFFFDF" />
            </g>
            <animate
                attributeName="opacity"
                values="0.2;0.7;1;0.2"
                dur="4s"
                repeatCount="indefinite"
            />
        </g>
    </g>
    <defs>
        <filter id="filter1_f_239_324" x="1.20128" y="-11.0884" width="417.034" height="313.332"
            filterUnits="userSpaceOnUse" color-interpolation-filters="sRGB">
            <feFlood flood-opacity="0" result="BackgroundImageFix" />
            <feBlend mode="normal" in="SourceGraphic" in2="BackgroundImageFix" result="shape" />
            <feGaussianBlur stdDeviation="8.85297" result="effect1_foregroundBlur_239_324" />
        </filter>
        <filter id="filter2_f_239_324" x="88.6932" y="25.1455" width="240.72" height="240.715"
            filterUnits="userSpaceOnUse" color-interpolation-filters="sRGB">
            <feFlood flood-opacity="0" result="BackgroundImageFix" />
            <feBlend mode="normal" in="SourceGraphic" in2="BackgroundImageFix" result="shape" />
            <feGaussianBlur stdDeviation="9.77398" result="effect1_foregroundBlur_239_324" />
        </filter>
        <filter id="filter3_f_239_324" x="19.4193" y="13.7473" width="382.227" height="262.586"
            filterUnits="userSpaceOnUse" color-interpolation-filters="sRGB">
            <feFlood flood-opacity="0" result="BackgroundImageFix" />
            <feBlend mode="normal" in="SourceGraphic" in2="BackgroundImageFix" result="shape" />
            <feGaussianBlur stdDeviation="2.95099" result="effect1_foregroundBlur_239_324" />
        </filter>
        <filter id="filter4_f_239_324" x="105.027" y="40.0278" width="208.528" height="210.326"
            filterUnits="userSpaceOnUse" color-interpolation-filters="sRGB">
            <feFlood flood-opacity="0" result="BackgroundImageFix" />
            <feBlend mode="normal" in="SourceGraphic" in2="BackgroundImageFix" result="shape" />
            <feGaussianBlur stdDeviation="3.258" result="effect1_foregroundBlur_239_324" />
        </filter>
        <filter id="filter5_f_239_324" x="146.091" y="81.0909" width="128.818" height="128.818"
            filterUnits="userSpaceOnUse" color-interpolation-filters="sRGB">
            <feFlood flood-opacity="0" result="BackgroundImageFix" />
            <feBlend mode="normal" in="SourceGraphic" in2="BackgroundImageFix" result="shape" />
            <feGaussianBlur stdDeviation="2.95455" result="effect1_foregroundBlur_239_324" />
        </filter>
        <filter id="filter6_f_239_324" x="171.099" y="106.099" width="78.8022" height="78.8022"
            filterUnits="userSpaceOnUse" color-interpolation-filters="sRGB">
            <feFlood flood-opacity="0" result="BackgroundImageFix" />
            <feBlend mode="normal" in="SourceGraphic" in2="BackgroundImageFix" result="shape" />
            <feGaussianBlur stdDeviation="1.95055" result="effect1_foregroundBlur_239_324" />
        </filter>
    </defs>
</svg>