<svg viewBox="0 0 56 216" fill="none" xmlns="http://www.w3.org/2000/svg">
    <g>
        <path
            d="M28.0898 5.75098C28.1304 5.79805 28.1806 5.85588 28.2393 5.92383C28.4154 6.1279 28.6709 6.42324 28.9912 6.79102C29.6319 7.52664 30.5334 8.55435 31.5771 9.72461C33.6524 12.0515 36.339 14.9952 38.6719 17.3281C41.0048 19.661 43.9485 22.3475 46.2754 24.4229C47.4457 25.4666 48.4734 26.3681 49.209 27.0088C49.5767 27.3291 49.8721 27.5845 50.0762 27.7607C50.1423 27.8179 50.1987 27.8673 50.2451 27.9072C50.2768 27.9405 50.3063 27.9708 50.332 28C50.2873 28.0507 50.235 28.1087 50.1719 28.1719L39.1719 39.1719L36.3428 42L39.1719 44.8281L42.1719 47.8281C43.2815 48.9378 43.5969 49.2937 43.7773 49.6094C43.8428 49.724 44 49.9913 44 51V193C44 194.009 43.8428 194.276 43.7773 194.391C43.5969 194.706 43.2815 195.062 42.1719 196.172L28.1719 210.172C28.1087 210.235 28.0507 210.287 28 210.332C27.9493 210.287 27.8913 210.235 27.8281 210.172L13.8281 196.172C12.7183 195.062 12.403 194.706 12.2227 194.391C12.1572 194.276 12 194.009 12 193V51C12 49.9913 12.1572 49.724 12.2227 49.6094C12.403 49.2938 12.7183 48.9379 13.8281 47.8281L16.8281 44.8281L19.6572 42L16.8281 39.1719L5.8291 28.1719H5.82812C5.76454 28.1083 5.71195 28.05 5.66699 27.999C5.69325 27.9693 5.72347 27.9383 5.75586 27.9043C5.8019 27.8646 5.85853 27.8171 5.92383 27.7607C6.12795 27.5845 6.424 27.3293 6.79199 27.0088C7.52764 26.368 8.55531 25.4666 9.72559 24.4229C12.0524 22.3475 14.9953 19.6609 17.3281 17.3281C19.661 14.9953 22.3475 12.0515 24.4229 9.72461C25.4666 8.55435 26.3681 7.52665 27.0088 6.79102C27.3291 6.42327 27.5845 6.12791 27.7607 5.92383C27.817 5.85866 27.8647 5.80185 27.9043 5.75586C27.9387 5.7231 27.97 5.6925 28 5.66602C28.0284 5.69108 28.0575 5.72031 28.0898 5.75098Z"
            fill="#543BA7" stroke="#7F89CD" stroke-width="8" stroke-linejoin="round" />
        <path
            d="M28 2.5C28.6365 2.5 29.3899 2.81246 30.2725 3.68848C30.2826 3.70027 30.2958 3.71424 30.3105 3.73145C30.3559 3.78423 30.423 3.86239 30.5098 3.96289C30.6835 4.16407 30.9365 4.45683 31.2539 4.82129C31.8887 5.55012 32.7822 6.56886 33.8164 7.72852C35.882 10.0446 38.5223 12.9364 40.793 15.207C43.0636 17.4776 45.9554 20.1179 48.2715 22.1836C49.4311 23.2178 50.4499 24.1113 51.1787 24.7461C51.5432 25.0635 51.8359 25.3165 52.0371 25.4902C52.1377 25.5771 52.2157 25.644 52.2686 25.6895C52.2852 25.7038 52.2989 25.7166 52.3105 25.7266C53.1874 26.6096 53.5 27.3632 53.5 28C53.5 28.6412 53.184 29.402 52.293 30.293L42.293 40.293C42.0602 40.5257 41.8242 40.7588 41.6562 40.9688C41.4929 41.1729 41.25 41.5245 41.25 42C41.25 42.4755 41.4929 42.8271 41.6562 43.0312C41.8242 43.2412 42.0602 43.4743 42.293 43.707L44.293 45.707C45.3204 46.7345 45.9617 47.386 46.3818 48.1211C46.7733 48.806 47 49.6228 47 51V193C47 194.377 46.7733 195.194 46.3818 195.879C45.9617 196.614 45.3204 197.266 44.293 198.293L30.293 212.293C29.402 213.184 28.6412 213.5 28 213.5C27.3588 213.5 26.598 213.184 25.707 212.293L11.707 198.293C10.6796 197.266 10.0382 196.614 9.61816 195.879C9.22683 195.194 9 194.377 9 193V51C9 49.6228 9.22681 48.806 9.61816 48.1211C10.0382 47.386 10.6796 46.7345 11.707 45.707L13.707 43.707C13.9397 43.4743 14.1758 43.2412 14.3438 43.0312C14.5071 42.827 14.75 42.4755 14.75 42C14.75 41.5245 14.5071 41.173 14.3438 40.9688C14.1758 40.7588 13.9397 40.5257 13.707 40.293L3.70703 30.293C2.81601 29.402 2.50003 28.6412 2.5 28C2.49998 27.3637 2.81153 26.6099 3.6875 25.7275C3.69946 25.7173 3.7148 25.7046 3.73242 25.6895C3.78524 25.644 3.86343 25.577 3.96387 25.4902C4.16503 25.3165 4.45701 25.0634 4.82129 24.7461C5.55009 24.1113 6.56887 23.2179 7.72852 22.1836C10.0445 20.1179 12.9364 17.4777 15.207 15.207C17.4776 12.9364 20.1179 10.0445 22.1836 7.72852C23.2178 6.56897 24.1113 5.5501 24.7461 4.82129C25.0635 4.45684 25.3165 4.16407 25.4902 3.96289C25.5771 3.8623 25.644 3.78427 25.6895 3.73145C25.704 3.71449 25.7165 3.7002 25.7266 3.68848C26.6093 2.812 27.3634 2.50009 28 2.5Z"
            stroke="#543BA7" stroke-width="2" />
        <path d="M16 66L40 66" stroke="#7F89CD" stroke-width="4" />
        <path d="M16 94L40 94" stroke="#7F89CD" stroke-width="4" />
        <path d="M16 150L40 150" stroke="#7F89CD" stroke-width="4" />
        <path d="M16 178L40 178" stroke="#7F89CD" stroke-width="4" />
        <path d="M16 122L40 122" stroke="#7F89CD" stroke-width="4" />
    </g>
</svg>
    