<svg viewBox="0 0 420 290" fill="none" xmlns="http://www.w3.org/2000/svg">
<g filter="url(#filter0_ddd_228_60)">
<circle cx="210" cy="145" r="114" fill="#8E7455"/>
<path d="M199.608 7.00001C204.226 -0.99999 215.774 -1 220.392 7L235.981 34C240.6 42 234.826 52 225.588 52H194.412C185.174 52 179.4 42 184.019 34L199.608 7.00001Z" fill="#8E7455"/>
<path d="M199.608 283C204.226 291 215.774 291 220.392 283L235.981 256C240.6 248 234.826 238 225.588 238H194.412C185.174 238 179.4 248 184.019 256L199.608 283Z" fill="#8E7455"/>
<path d="M72 155.392C64 150.774 64 139.226 72 134.608L99 119.019C107 114.4 117 120.174 117 129.412L117 160.588C117 169.826 107 175.6 99 170.981L72 155.392Z" fill="#8E7455"/>
<path d="M348 155.392C356 150.774 356 139.226 348 134.608L321 119.019C313 114.4 303 120.174 303 129.412L303 160.588C303 169.826 313 175.6 321 170.981L348 155.392Z" fill="#8E7455"/>
<circle cx="210.001" cy="145" r="105.962" fill="#B8A788"/>
<path d="M205.669 12.5C207.594 9.16666 212.405 9.16667 214.33 12.5L239.478 56.0577C241.402 59.391 238.996 63.5577 235.147 63.5577H184.851C181.002 63.5577 178.597 59.391 180.521 56.0577L205.669 12.5Z" fill="#B8A788"/>
<path d="M205.669 277.5C207.594 280.833 212.405 280.833 214.33 277.5L239.478 233.942C241.402 230.609 238.996 226.442 235.147 226.442H184.851C181.002 226.442 178.597 230.609 180.521 233.942L205.669 277.5Z" fill="#B8A788"/>
<path d="M77.5 149.33C74.1667 147.406 74.1667 142.594 77.5 140.67L121.058 115.522C124.391 113.597 128.558 116.003 128.558 119.852L128.558 170.148C128.558 173.997 124.391 176.403 121.058 174.478L77.5 149.33Z" fill="#B8A788"/>
<path d="M342.5 149.33C345.833 147.406 345.833 142.594 342.5 140.67L298.942 115.522C295.609 113.597 291.442 116.003 291.442 119.852L291.442 170.148C291.442 173.997 295.609 176.403 298.942 174.478L342.5 149.33Z" fill="#B8A788"/>
<path d="M107.791 151.261C103.806 148.031 103.781 141.941 107.745 138.684C120.305 128.363 145.109 107.641 159 93.75C172.891 79.8588 193.613 55.055 203.934 42.4946C207.191 38.5315 213.281 38.5555 216.511 42.5409C226.701 55.1159 247.126 79.8759 261 93.75C274.876 107.626 299.902 128.316 312.62 138.65C316.632 141.909 316.608 148.063 312.574 151.295C299.841 161.496 274.859 181.891 261 195.75C247.141 209.609 226.746 234.591 216.545 247.324C213.313 251.358 207.159 251.383 203.9 247.37C193.566 234.652 172.876 209.626 159 195.75C145.126 181.876 120.366 161.451 107.791 151.261Z" fill="#DF852D"/>
<path d="M133.373 76.9777C132.838 71.876 137.128 67.5524 142.233 68.052C158.413 69.6352 190.604 72.5216 210.25 72.5216C229.895 72.5216 262.086 69.6352 278.266 68.052C283.371 67.5524 287.661 71.876 287.126 76.9776C285.439 93.0746 282.374 125.025 282.374 144.646C282.374 164.269 285.44 196.597 287.127 212.896C287.659 218.038 283.29 222.372 278.152 221.805C261.936 220.015 229.849 216.771 210.25 216.771C190.65 216.771 158.564 220.015 142.347 221.805C137.209 222.372 132.84 218.038 133.372 212.896C135.059 196.597 138.125 164.269 138.125 144.646C138.125 125.025 135.06 93.0746 133.373 76.9777Z" fill="#DF852D"/>
<path d="M110.141 146.599C109.067 145.793 109.067 144.207 110.141 143.401C118.445 137.171 148.81 114.118 164.027 98.9019C179.243 83.6853 202.296 53.3199 208.526 45.0162C209.332 43.9418 210.918 43.9418 211.724 45.0162C217.954 53.3199 241.007 83.6853 256.223 98.9019C271.44 114.118 301.805 137.171 310.109 143.401C311.183 144.207 311.183 145.793 310.109 146.599C301.805 152.829 271.44 175.882 256.223 191.098C241.007 206.315 217.954 236.68 211.724 244.984C210.918 246.058 209.332 246.058 208.526 244.984C202.296 236.68 179.243 206.315 164.027 191.098C148.81 175.882 118.445 152.829 110.141 146.599Z" fill="#F39724"/>
<path d="M138.295 75.4316C138.106 74.1018 139.227 72.9803 140.557 73.17C150.834 74.6362 188.606 79.8074 210.125 79.8074C231.645 79.8074 269.417 74.6362 279.694 73.17C281.024 72.9803 282.145 74.1018 281.955 75.4316C280.489 85.7085 275.318 123.481 275.318 145C275.318 166.519 280.489 204.291 281.955 214.568C282.145 215.898 281.024 217.02 279.694 216.83C269.417 215.364 231.645 210.193 210.125 210.193C188.606 210.193 150.834 215.364 140.557 216.83C139.227 217.02 138.106 215.898 138.295 214.568C139.762 204.291 144.933 166.519 144.933 145C144.933 123.481 139.762 85.7085 138.295 75.4316Z" fill="#F39724"/>
<g opacity="0.7" filter="url(#filter1_f_228_60)">
<path d="M169.789 184.934C163.753 176.888 163.753 113.112 169.789 105.066V105.066C177.402 94.9157 184.025 83.7502 189.578 73.053C196.532 59.656 222.355 60.0724 229.316 73.466C234.81 84.0373 241.557 95.0463 249.657 105.066V105.066C256.157 113.106 256.045 176.805 249.657 184.934V184.934C241.406 195.434 234.485 207.059 228.856 218.131C222.076 231.465 197.163 231.75 190.345 218.435C184.638 207.289 177.756 195.556 169.789 184.934V184.934Z" fill="#F39724"/>
</g>
<g filter="url(#filter2_f_228_60)">
<path d="M23.3779 147.658C20.8609 147.33 20.8609 142.67 23.3779 142.342C63.3022 137.137 142.241 123.731 162.043 97.3322C183.812 68.3105 201.845 27.1398 207.859 12.6792C208.603 10.8897 211.255 10.9379 211.935 12.7528C217.377 27.2789 233.957 68.3596 257.38 97.3321C278.743 123.757 357.394 137.163 396.956 142.357C399.469 142.687 399.468 147.318 396.955 147.648C357.219 152.866 278.077 166.329 257.379 192.668C234.633 221.614 217.545 262.959 211.958 277.384C211.263 279.178 208.646 279.216 207.908 277.44C201.945 263.088 183.873 221.77 162.043 192.668C142.241 166.269 63.3022 152.863 23.3779 147.658Z" fill="#FEF095"/>
</g>
<g filter="url(#filter3_f_228_60)">
<path d="M79.9179 278.841C77.9061 280.389 74.6114 277.094 76.1592 275.082C100.709 243.171 147.048 177.873 142.383 145.204C137.255 109.29 120.894 67.4264 114.921 52.9492C114.182 51.1576 116.092 49.3161 117.856 50.1187C131.975 56.5424 172.747 73.867 209.796 77.7913C243.587 81.3705 308.682 35.2351 340.329 10.9336C342.34 9.38963 345.614 12.6648 344.07 14.6755C319.662 46.4626 273.22 111.944 277.209 145.204C281.593 181.756 298.745 223.075 304.995 237.225C305.772 238.985 303.948 240.862 302.17 240.128C287.805 234.196 245.81 217.76 209.796 212.617C177.127 207.952 111.829 254.291 79.9179 278.841Z" fill="#FEF095"/>
</g>
<g filter="url(#filter4_f_228_60)">
<path d="M35.5443 147.647C33.0253 147.322 33.0253 142.678 35.5443 142.354C74.0953 137.387 148.175 124.983 165.847 101.423C185.354 75.4177 201.928 40.8934 207.597 28.5403C208.375 26.8463 210.869 26.8954 211.583 28.6169C216.737 41.0356 232.021 75.4713 253.002 101.423C272.067 125.006 345.916 137.412 384.143 142.368C386.658 142.694 386.66 147.31 384.144 147.637C345.759 152.615 271.473 165.07 253.001 188.577C232.626 214.506 216.889 249.164 211.604 261.501C210.876 263.201 208.41 263.234 207.64 261.553C202.012 249.281 185.403 214.649 165.847 188.577C148.175 165.017 74.0953 152.613 35.5443 147.647Z" fill="#FFFFDF"/>
</g>
<g filter="url(#filter5_f_228_60)">
<path d="M88.4201 270.007C86.4095 271.558 83.1257 268.275 84.6774 266.264C108.425 235.493 152.037 174.339 147.873 145.184C143.278 113.002 130.585 76.8696 125.859 64.126C125.211 62.3785 127.009 60.6495 128.732 61.3617C141.157 66.4988 176.314 80.0411 209.501 83.5563C239.658 86.7506 300.649 43.3036 331.184 19.7781C333.194 18.2298 336.459 21.4928 334.911 23.5024C311.288 54.1651 267.568 115.5 271.128 145.184C275.055 177.926 288.434 213.56 293.42 226.021C294.107 227.738 292.387 229.504 290.654 228.861C277.997 224.163 241.764 211.418 209.501 206.811C180.345 202.648 119.192 246.259 88.4201 270.007Z" fill="#FFFFDF"/>
</g>
<g opacity="0.8" filter="url(#filter6_f_228_60)">
<circle cx="210.5" cy="145.5" r="55.5" fill="#FF8700"/>
</g>
<g filter="url(#filter7_f_228_60)">
<circle cx="210.5" cy="145.5" r="38.5" fill="#FFFFDF"/>
</g>
</g>
<defs>
<filter id="filter0_ddd_228_60" x="-10.9062" y="-6.81638" width="441.812" height="311.812" filterUnits="userSpaceOnUse" color-interpolation-filters="sRGB">
<feFlood flood-opacity="0" result="BackgroundImageFix"/>
<feColorMatrix in="SourceAlpha" type="matrix" values="0 0 0 0 0 0 0 0 0 0 0 0 0 0 0 0 0 0 127 0" result="hardAlpha"/>
<feOffset/>
<feGaussianBlur stdDeviation="0.340819"/>
<feColorMatrix type="matrix" values="0 0 0 0 0 0 0 0 0 0 0 0 0 0 0 0 0 0 0.18 0"/>
<feBlend mode="normal" in2="BackgroundImageFix" result="effect1_dropShadow_228_60"/>
<feColorMatrix in="SourceAlpha" type="matrix" values="0 0 0 0 0 0 0 0 0 0 0 0 0 0 0 0 0 0 127 0" result="hardAlpha"/>
<feOffset dy="4.08983"/>
<feGaussianBlur stdDeviation="5.4531"/>
<feColorMatrix type="matrix" values="0 0 0 0 0 0 0 0 0 0 0 0 0 0 0 0 0 0 0.1 0"/>
<feBlend mode="normal" in2="effect1_dropShadow_228_60" result="effect2_dropShadow_228_60"/>
<feColorMatrix in="SourceAlpha" type="matrix" values="0 0 0 0 0 0 0 0 0 0 0 0 0 0 0 0 0 0 127 0" result="hardAlpha"/>
<feOffset dx="1.36328" dy="4.08983"/>
<feGaussianBlur stdDeviation="2.04491"/>
<feColorMatrix type="matrix" values="0 0 0 0 0 0 0 0 0 0 0 0 0 0 0 0 0 0 0.1 0"/>
<feBlend mode="normal" in2="effect2_dropShadow_228_60" result="effect3_dropShadow_228_60"/>
<feBlend mode="normal" in="SourceGraphic" in2="effect3_dropShadow_228_60" result="shape"/>
</filter>
<filter id="filter1_f_228_60" x="135.262" y="33.2106" width="149.229" height="225.067" filterUnits="userSpaceOnUse" color-interpolation-filters="sRGB">
<feFlood flood-opacity="0" result="BackgroundImageFix"/>
<feBlend mode="normal" in="SourceGraphic" in2="BackgroundImageFix" result="shape"/>
<feGaussianBlur stdDeviation="15" result="effect1_foregroundBlur_228_60"/>
</filter>
<filter id="filter2_f_228_60" x="5.89813" y="-4.22814" width="408.535" height="298.571" filterUnits="userSpaceOnUse" color-interpolation-filters="sRGB">
<feFlood flood-opacity="0" result="BackgroundImageFix"/>
<feBlend mode="normal" in="SourceGraphic" in2="BackgroundImageFix" result="shape"/>
<feGaussianBlur stdDeviation="7.79605" result="effect1_foregroundBlur_228_60"/>
</filter>
<filter id="filter3_f_228_60" x="60.1667" y="-5.05933" width="299.896" height="299.893" filterUnits="userSpaceOnUse" color-interpolation-filters="sRGB">
<feFlood flood-opacity="0" result="BackgroundImageFix"/>
<feBlend mode="normal" in="SourceGraphic" in2="BackgroundImageFix" result="shape"/>
<feGaussianBlur stdDeviation="7.79605" result="effect1_foregroundBlur_228_60"/>
</filter>
<filter id="filter4_f_228_60" x="28.4579" y="22.1" width="362.77" height="245.892" filterUnits="userSpaceOnUse" color-interpolation-filters="sRGB">
<feFlood flood-opacity="0" result="BackgroundImageFix"/>
<feBlend mode="normal" in="SourceGraphic" in2="BackgroundImageFix" result="shape"/>
<feGaussianBlur stdDeviation="2.59868" result="effect1_foregroundBlur_228_60"/>
</filter>
<filter id="filter5_f_228_60" x="79.0761" y="14.1769" width="261.436" height="261.431" filterUnits="userSpaceOnUse" color-interpolation-filters="sRGB">
<feFlood flood-opacity="0" result="BackgroundImageFix"/>
<feBlend mode="normal" in="SourceGraphic" in2="BackgroundImageFix" result="shape"/>
<feGaussianBlur stdDeviation="2.59868" result="effect1_foregroundBlur_228_60"/>
</filter>
<filter id="filter6_f_228_60" x="145.575" y="80.5755" width="129.849" height="129.849" filterUnits="userSpaceOnUse" color-interpolation-filters="sRGB">
<feFlood flood-opacity="0" result="BackgroundImageFix"/>
<feBlend mode="normal" in="SourceGraphic" in2="BackgroundImageFix" result="shape"/>
<feGaussianBlur stdDeviation="4.71226" result="effect1_foregroundBlur_228_60"/>
</filter>
<filter id="filter7_f_228_60" x="163.2" y="98.2" width="94.6" height="94.6" filterUnits="userSpaceOnUse" color-interpolation-filters="sRGB">
<feFlood flood-opacity="0" result="BackgroundImageFix"/>
<feBlend mode="normal" in="SourceGraphic" in2="BackgroundImageFix" result="shape"/>
<feGaussianBlur stdDeviation="4.4" result="effect1_foregroundBlur_228_60"/>
</filter>
</defs>
</svg>