<svg viewBox="0 0 420 290" fill="none" xmlns="http://www.w3.org/2000/svg">
    <g>
        <circle cx="210" cy="145" r="114" fill="#8E7455" />
        <path
            d="M199.608 7.00001C204.226 -0.99999 215.774 -1 220.392 7L235.981 34C240.6 42 234.826 52 225.588 52H194.412C185.174 52 179.4 42 184.019 34L199.608 7.00001Z"
            fill="#8E7455" />
        <path
            d="M199.608 283C204.226 291 215.774 291 220.392 283L235.981 256C240.6 248 234.826 238 225.588 238H194.412C185.174 238 179.4 248 184.019 256L199.608 283Z"
            fill="#8E7455" />
        <path
            d="M72 155.392C64 150.774 64 139.226 72 134.608L99 119.019C107 114.4 117 120.174 117 129.412L117 160.588C117 169.826 107 175.6 99 170.981L72 155.392Z"
            fill="#8E7455" />
        <path
            d="M348 155.392C356 150.774 356 139.226 348 134.608L321 119.019C313 114.4 303 120.174 303 129.412L303 160.588C303 169.826 313 175.6 321 170.981L348 155.392Z"
            fill="#8E7455" />
        <path
            d="M300.232 40.0708C309.155 37.6799 317.32 45.8449 314.929 54.7677L306.86 84.8823C304.469 93.8052 293.316 96.7937 286.784 90.2618L264.738 68.2164C258.206 61.6844 261.195 50.5308 270.118 48.14L300.232 40.0708Z"
            fill="#8E7455" />
        <path
            d="M105.071 235.232C102.68 244.155 110.845 252.32 119.768 249.929L149.883 241.86C158.805 239.469 161.794 228.316 155.262 221.784L133.217 199.738C126.685 193.206 115.531 196.195 113.14 205.118L105.071 235.232Z"
            fill="#8E7455" />
        <path
            d="M105.071 54.7678C102.68 45.8449 110.845 37.6799 119.768 40.0708L149.883 48.14C158.805 50.5309 161.794 61.6844 155.262 68.2164L133.217 90.2618C126.685 96.7938 115.531 93.8052 113.14 84.8823L105.071 54.7678Z"
            fill="#8E7455" />
        <path
            d="M300.232 249.929C309.155 252.32 317.32 244.155 314.929 235.232L306.86 205.118C304.469 196.195 293.316 193.206 286.784 199.738L264.738 221.784C258.206 228.316 261.195 239.469 270.118 241.86L300.232 249.929Z"
            fill="#8E7455" />
        <circle cx="210.001" cy="145" r="105.962" fill="#B8A788" />
        <path
            d="M205.669 12.5C207.594 9.16666 212.405 9.16667 214.33 12.5L239.478 56.0577C241.402 59.391 238.996 63.5577 235.147 63.5577H184.851C181.002 63.5577 178.597 59.391 180.521 56.0577L205.669 12.5Z"
            fill="#B8A788" />
        <path
            d="M205.669 277.5C207.594 280.833 212.405 280.833 214.33 277.5L239.478 233.942C241.402 230.609 238.996 226.442 235.147 226.442H184.851C181.002 226.442 178.597 230.609 180.521 233.942L205.669 277.5Z"
            fill="#B8A788" />
        <path
            d="M77.5 149.33C74.1667 147.406 74.1667 142.594 77.5 140.67L121.058 115.522C124.391 113.597 128.558 116.003 128.558 119.852L128.558 170.148C128.558 173.997 124.391 176.403 121.058 174.478L77.5 149.33Z"
            fill="#B8A788" />
        <path
            d="M342.5 149.33C345.833 147.406 345.833 142.594 342.5 140.67L298.942 115.522C295.609 113.597 291.442 116.003 291.442 119.852L291.442 170.148C291.442 173.997 295.609 176.403 298.942 174.478L342.5 149.33Z"
            fill="#B8A788" />
        <path
            d="M300.63 48.2461C304.348 47.2499 307.75 50.6519 306.754 54.3698L293.736 102.952C292.74 106.67 288.092 107.915 285.371 105.194L249.806 69.6288C247.084 66.9072 248.33 62.2599 252.048 61.2637L300.63 48.2461Z"
            fill="#B8A788" />
        <path
            d="M113.246 235.629C112.25 239.347 115.652 242.749 119.37 241.753L167.952 228.736C171.67 227.739 172.915 223.092 170.194 220.37L134.629 184.806C131.907 182.084 127.26 183.329 126.264 187.047L113.246 235.629Z"
            fill="#B8A788" />
        <path
            d="M113.246 54.3702C112.25 50.6524 115.652 47.2503 119.37 48.2465L167.952 61.2641C171.67 62.2603 172.915 66.9076 170.194 69.6292L134.629 105.194C131.907 107.916 127.26 106.67 126.264 102.953L113.246 54.3702Z"
            fill="#B8A788" />
        <path
            d="M300.63 241.754C304.348 242.75 307.75 239.348 306.754 235.63L293.736 187.047C292.74 183.33 288.092 182.084 285.371 184.806L249.806 220.371C247.084 223.092 248.33 227.74 252.048 228.736L300.63 241.754Z"
            fill="#B8A788" />
        <rect x="103" y="145" width="151.674" height="151.674" rx="8"
            transform="rotate(-45 103 145)" fill="#957C5D" />
        <rect x="140" y="75" width="140" height="140" rx="8" fill="#957C5D" />
        <rect x="111" y="145" width="140.714" height="140.714" rx="5"
            transform="rotate(-45 111 145)" fill="#E0D1B1" />
        <rect x="145" y="80" width="130" height="130" rx="6" fill="#E0D1B1" />
        <circle cx="210.001" cy="145" r="61.3063" fill="#A68C73" />
        <path
            d="M207.68 66.5276C208.928 65.1681 211.072 65.1681 212.32 66.5276L232.002 87.9716C233.855 89.9909 232.423 93.25 229.682 93.25H190.318C187.577 93.25 186.145 89.9909 187.998 87.9716L207.68 66.5276Z"
            fill="#A68C73" />
        <path
            d="M207.68 223.472C208.928 224.832 211.072 224.832 212.32 223.472L232.002 202.028C233.855 200.009 232.423 196.75 229.682 196.75H190.318C187.577 196.75 186.145 200.009 187.998 202.028L207.68 223.472Z"
            fill="#A68C73" />
        <path
            d="M131.528 147.32C130.168 146.072 130.168 143.928 131.528 142.68L152.972 122.998C154.991 121.145 158.25 122.577 158.25 125.318L158.25 164.682C158.25 167.423 154.991 168.855 152.972 167.002L131.528 147.32Z"
            fill="#A68C73" />
        <path
            d="M288.472 147.32C289.832 146.072 289.832 143.928 288.472 142.68L267.028 122.998C265.009 121.145 261.75 122.577 261.75 125.318L261.75 164.682C261.75 167.423 265.009 168.855 267.028 167.002L288.472 147.32Z"
            fill="#A68C73" />
    </g>
</svg>