<svg viewBox="0 0 420 290" fill="none" xmlns="http://www.w3.org/2000/svg">
    <g>
        <circle cx="210" cy="145" r="114" fill="#8E7455" />
        <path
            d="M199.608 7.00001C204.226 -0.99999 215.774 -1 220.392 7L235.981 34C240.6 42 234.826 52 225.588 52H194.412C185.174 52 179.4 42 184.019 34L199.608 7.00001Z"
            fill="#8E7455" />
        <path
            d="M199.608 283C204.226 291 215.774 291 220.392 283L235.981 256C240.6 248 234.826 238 225.588 238H194.412C185.174 238 179.4 248 184.019 256L199.608 283Z"
            fill="#8E7455" />
        <path
            d="M72 155.392C64 150.774 64 139.226 72 134.608L99 119.019C107 114.4 117 120.174 117 129.412L117 160.588C117 169.826 107 175.6 99 170.981L72 155.392Z"
            fill="#8E7455" />
        <path
            d="M348 155.392C356 150.774 356 139.226 348 134.608L321 119.019C313 114.4 303 120.174 303 129.412L303 160.588C303 169.826 313 175.6 321 170.981L348 155.392Z"
            fill="#8E7455" />
        <circle cx="210" cy="145" r="105.962" fill="#B8A788" />
        <path
            d="M205.67 12.5C207.594 9.16666 212.406 9.16667 214.33 12.5L239.478 56.0577C241.403 59.391 238.997 63.5577 235.148 63.5577H184.852C181.003 63.5577 178.597 59.391 180.522 56.0577L205.67 12.5Z"
            fill="#B8A788" />
        <path
            d="M205.67 277.5C207.594 280.833 212.406 280.833 214.33 277.5L239.478 233.942C241.403 230.609 238.997 226.442 235.148 226.442H184.852C181.003 226.442 178.597 230.609 180.522 233.942L205.67 277.5Z"
            fill="#B8A788" />
        <path
            d="M77.5 149.33C74.1667 147.406 74.1667 142.594 77.5 140.67L121.058 115.522C124.391 113.597 128.558 116.003 128.558 119.852L128.558 170.148C128.558 173.997 124.391 176.403 121.058 174.478L77.5 149.33Z"
            fill="#B8A788" />
        <path
            d="M342.5 149.33C345.833 147.406 345.833 142.594 342.5 140.67L298.942 115.522C295.609 113.597 291.442 116.003 291.442 119.852L291.442 170.148C291.442 173.997 295.609 176.403 298.942 174.478L342.5 149.33Z"
            fill="#B8A788" />
        <path
            d="M107.791 151.261C103.806 148.031 103.781 141.941 107.745 138.684C120.305 128.363 145.109 107.641 159 93.75C172.891 79.8588 193.613 55.055 203.934 42.4946C207.191 38.5315 213.281 38.5555 216.511 42.5409C226.701 55.1159 247.126 79.8759 261 93.75C274.876 107.626 299.902 128.316 312.62 138.65C316.632 141.909 316.608 148.063 312.574 151.295C299.841 161.496 274.859 181.891 261 195.75C247.141 209.609 226.746 234.591 216.545 247.324C213.313 251.358 207.159 251.383 203.9 247.37C193.566 234.652 172.876 209.626 159 195.75C145.126 181.876 120.366 161.451 107.791 151.261Z"
            fill="#957C5D" />
        <path
            d="M110.141 146.599C109.067 145.793 109.067 144.207 110.141 143.401C118.445 137.171 148.81 114.118 164.027 98.9019C179.243 83.6853 202.296 53.3199 208.526 45.0162C209.332 43.9418 210.918 43.9418 211.724 45.0162C217.954 53.3199 241.007 83.6853 256.223 98.9019C271.44 114.118 301.805 137.171 310.109 143.401C311.183 144.207 311.183 145.793 310.109 146.599C301.805 152.829 271.44 175.882 256.223 191.098C241.007 206.315 217.954 236.68 211.724 244.984C210.918 246.058 209.332 246.058 208.526 244.984C202.296 236.68 179.243 206.315 164.027 191.098C148.81 175.882 118.445 152.829 110.141 146.599Z"
            fill="#E0D1B1" />
        <path
            d="M132.153 146.61C131.079 145.803 131.079 144.197 132.153 143.39C139.254 138.051 162.146 120.608 173.752 109.002C185.358 97.3957 202.801 74.5044 208.14 67.4028C208.947 66.3291 210.553 66.3291 211.36 67.4028C216.699 74.5044 234.142 97.3957 245.748 109.002C257.354 120.608 280.246 138.051 287.347 143.39C288.421 144.197 288.421 145.803 287.347 146.61C280.246 151.949 257.354 169.392 245.748 180.998C234.142 192.604 216.699 215.496 211.36 222.597C210.553 223.671 208.947 223.671 208.14 222.597C202.801 215.496 185.358 192.604 173.752 180.998C162.146 169.392 139.254 151.949 132.153 146.61Z"
            fill="#A68C73" />
    </g>
</svg>