<svg viewBox="0 0 420 290" fill="none" xmlns="http://www.w3.org/2000/svg">
    <g>
        <circle cx="210" cy="145" r="114" fill="#8E7455" />
        <path
            d="M199.608 7.00001C204.226 -0.99999 215.774 -1 220.392 7L235.981 34C240.6 42 234.826 52 225.588 52H194.412C185.174 52 179.4 42 184.019 34L199.608 7.00001Z"
            fill="#8E7455" />
        <path
            d="M199.608 283C204.226 291 215.774 291 220.392 283L235.981 256C240.6 248 234.826 238 225.588 238H194.412C185.174 238 179.4 248 184.019 256L199.608 283Z"
            fill="#8E7455" />
        <path
            d="M72 155.392C64 150.774 64 139.226 72 134.608L99 119.019C107 114.4 117 120.174 117 129.412L117 160.588C117 169.826 107 175.6 99 170.981L72 155.392Z"
            fill="#8E7455" />
        <path
            d="M348 155.392C356 150.774 356 139.226 348 134.608L321 119.019C313 114.4 303 120.174 303 129.412L303 160.588C303 169.826 313 175.6 321 170.981L348 155.392Z"
            fill="#8E7455" />
        <path
            d="M300.232 40.0708C309.155 37.6799 317.32 45.8449 314.929 54.7677L306.86 84.8823C304.469 93.8052 293.316 96.7937 286.784 90.2618L264.738 68.2164C258.206 61.6844 261.195 50.5308 270.118 48.14L300.232 40.0708Z"
            fill="#8E7455" />
        <path
            d="M105.071 235.232C102.68 244.155 110.845 252.32 119.768 249.929L149.883 241.86C158.805 239.469 161.794 228.316 155.262 221.784L133.217 199.738C126.685 193.206 115.531 196.195 113.14 205.118L105.071 235.232Z"
            fill="#8E7455" />
        <path
            d="M105.071 54.7678C102.68 45.8449 110.845 37.6799 119.768 40.0708L149.883 48.14C158.805 50.5309 161.794 61.6844 155.262 68.2164L133.217 90.2618C126.685 96.7938 115.531 93.8052 113.14 84.8823L105.071 54.7678Z"
            fill="#8E7455" />
        <path
            d="M300.232 249.929C309.155 252.32 317.32 244.155 314.929 235.232L306.86 205.118C304.469 196.195 293.316 193.206 286.784 199.738L264.738 221.784C258.206 228.316 261.195 239.469 270.118 241.86L300.232 249.929Z"
            fill="#8E7455" />
        <circle cx="210.001" cy="145" r="105.962" fill="#B8A788" />
        <path
            d="M205.669 12.5C207.594 9.16666 212.405 9.16667 214.33 12.5L239.478 56.0577C241.402 59.391 238.996 63.5577 235.147 63.5577H184.851C181.002 63.5577 178.597 59.391 180.521 56.0577L205.669 12.5Z"
            fill="#B8A788" />
        <path
            d="M205.669 277.5C207.594 280.833 212.405 280.833 214.33 277.5L239.478 233.942C241.402 230.609 238.996 226.442 235.147 226.442H184.851C181.002 226.442 178.597 230.609 180.521 233.942L205.669 277.5Z"
            fill="#B8A788" />
        <path
            d="M77.5 149.33C74.1667 147.406 74.1667 142.594 77.5 140.67L121.058 115.522C124.391 113.597 128.558 116.003 128.558 119.852L128.558 170.148C128.558 173.997 124.391 176.403 121.058 174.478L77.5 149.33Z"
            fill="#B8A788" />
        <path
            d="M342.5 149.33C345.833 147.406 345.833 142.594 342.5 140.67L298.942 115.522C295.609 113.597 291.442 116.003 291.442 119.852L291.442 170.148C291.442 173.997 295.609 176.403 298.942 174.478L342.5 149.33Z"
            fill="#B8A788" />
        <path
            d="M300.63 48.2461C304.348 47.2499 307.75 50.6519 306.754 54.3698L293.736 102.952C292.74 106.67 288.092 107.915 285.371 105.194L249.806 69.6288C247.084 66.9072 248.33 62.2599 252.048 61.2637L300.63 48.2461Z"
            fill="#B8A788" />
        <path
            d="M113.246 235.629C112.25 239.347 115.652 242.749 119.37 241.753L167.952 228.736C171.67 227.739 172.915 223.092 170.194 220.37L134.629 184.806C131.907 182.084 127.26 183.329 126.264 187.047L113.246 235.629Z"
            fill="#B8A788" />
        <path
            d="M113.246 54.3702C112.25 50.6524 115.652 47.2503 119.37 48.2465L167.952 61.2641C171.67 62.2603 172.915 66.9076 170.194 69.6292L134.629 105.194C131.907 107.916 127.26 106.67 126.264 102.953L113.246 54.3702Z"
            fill="#B8A788" />
        <path
            d="M300.63 241.754C304.348 242.75 307.75 239.348 306.754 235.63L293.736 187.047C292.74 183.33 288.092 182.084 285.371 184.806L249.806 220.371C247.084 223.092 248.33 227.74 252.048 228.736L300.63 241.754Z"
            fill="#B8A788" />
        <rect x="103" y="145" width="151.674" height="151.674" rx="8"
            transform="rotate(-45 103 145)" fill="#DF852D" />
        <rect x="140" y="75" width="140" height="140" rx="8" fill="#DF852D" />
        <rect x="111" y="145" width="140.714" height="140.714" rx="5"
            transform="rotate(-45 111 145)" fill="#F39724" />
        <rect x="145" y="80" width="130" height="130" rx="6" fill="#F39724" />
        <g filter="url(#filter1_f_235_251)">
            <path
                d="M24.5 145.5C24.5 145.5 137.595 140.9 166.524 102.334C188.472 73.0729 202.431 35.6421 207.889 19.2831C208.622 17.0848 212.106 17.1659 212.754 19.3907C217.538 35.8059 230.251 73.1372 253.855 102.334C285.034 140.9 396.001 145.439 396.001 145.439C396.001 145.439 284.028 151.269 253.855 189.665C230.848 218.942 217.721 256.667 212.782 272.936C212.115 275.134 208.71 275.186 207.985 273.006C202.597 256.803 188.603 219.101 166.524 189.665C137.595 151.099 24.5 145.5 24.5 145.5Z"
                fill="#FEF095" />
        </g>
        <g filter="url(#filter2_f_235_251)">
            <path
                d="M129.329 68.8778C128.313 66.5099 131.513 63.3078 133.882 64.3226C146.709 69.8189 173.034 78.6038 210.257 78.6038C247.317 78.6038 273.801 69.8958 286.834 64.3952C289.225 63.3862 292.467 66.6938 291.419 69.0674C285.771 81.8532 276.91 107.869 276.91 145.257C276.91 182.479 285.692 208.654 291.343 221.643C292.385 224.039 289.035 227.391 286.639 226.35C273.635 220.699 247.432 211.91 210.257 211.91C172.915 211.91 146.87 220.778 134.07 226.426C131.696 227.473 128.391 224.229 129.401 221.839C134.902 208.823 143.604 182.367 143.604 145.257C143.604 107.985 134.825 81.6898 129.329 68.8778Z"
                fill="#FEF095" />
        </g>
        <g filter="url(#filter3_f_235_251)">
            <path
                d="M41 145C41 145 144.891 138.271 170.968 103.506C190.387 77.6176 202.806 45.8177 207.882 31.2659C208.638 29.0981 212.092 29.1748 212.763 31.3704C217.227 45.9694 228.592 77.6794 249.471 103.506C277.577 138.271 380 145 380 145C380 145 276.67 151.882 249.471 186.495C229.115 212.398 217.4 244.443 212.794 258.93C212.105 261.097 208.721 261.148 207.974 258.999C202.958 244.572 190.506 212.542 170.968 186.495C144.891 151.73 41 145 41 145Z"
                fill="#FFFFDF" />
        </g>
        <g filter="url(#filter4_f_235_251)">
            <path
                d="M132.95 73.2584C131.635 70.7686 135.768 66.6349 138.258 67.9502C153.086 75.7842 179.07 86.5882 209.598 86.5882C239.314 86.5882 264.894 76.3508 280.029 68.5809C282.568 67.277 287.041 71.8583 285.693 74.3746C277.823 89.0615 267.608 114.015 267.608 144.599C267.608 175.194 277.831 200.321 285.702 215.133C287.043 217.656 282.535 222.22 280.002 220.898C264.864 213.002 239.297 202.608 209.598 202.608C179.095 202.608 153.128 213.573 138.294 221.534C135.81 222.867 131.64 218.746 132.948 216.249C140.782 201.292 151.588 175.128 151.588 144.599C151.588 114.071 140.784 88.0869 132.95 73.2584Z"
                fill="#FFFFDF" />
        </g>
        <g opacity="0.8" filter="url(#filter5_f_235_251)">
            <circle cx="210.5" cy="145.5" r="58.5" fill="#FF8700" />
        </g>
        <g filter="url(#filter6_f_235_251)">
            <circle cx="210.5" cy="145.5" r="35.5" fill="#FFFFDF" />
        </g>
    </g>
    <defs>
        <filter id="filter1_f_235_251" x="7.67708" y="0.854544" width="405.147" height="290.581"
            filterUnits="userSpaceOnUse" color-interpolation-filters="sRGB">
            <feFlood flood-opacity="0" result="BackgroundImageFix" />
            <feBlend mode="normal" in="SourceGraphic" in2="BackgroundImageFix" result="shape" />
            <feGaussianBlur stdDeviation="8.41146" result="effect1_foregroundBlur_235_251" />
        </filter>
        <filter id="filter2_f_235_251" x="110.563" y="45.5565" width="199.632" height="199.645"
            filterUnits="userSpaceOnUse" color-interpolation-filters="sRGB">
            <feFlood flood-opacity="0" result="BackgroundImageFix" />
            <feBlend mode="normal" in="SourceGraphic" in2="BackgroundImageFix" result="shape" />
            <feGaussianBlur stdDeviation="9.28654" result="effect1_foregroundBlur_235_251" />
        </filter>
        <filter id="filter3_f_235_251" x="35.3924" y="24.0735" width="350.215" height="242.117"
            filterUnits="userSpaceOnUse" color-interpolation-filters="sRGB">
            <feFlood flood-opacity="0" result="BackgroundImageFix" />
            <feBlend mode="normal" in="SourceGraphic" in2="BackgroundImageFix" result="shape" />
            <feGaussianBlur stdDeviation="2.80382" result="effect1_foregroundBlur_235_251" />
        </filter>
        <filter id="filter4_f_235_251" x="126.506" y="61.5069" width="165.63" height="166.477"
            filterUnits="userSpaceOnUse" color-interpolation-filters="sRGB">
            <feFlood flood-opacity="0" result="BackgroundImageFix" />
            <feBlend mode="normal" in="SourceGraphic" in2="BackgroundImageFix" result="shape" />
            <feGaussianBlur stdDeviation="3.09551" result="effect1_foregroundBlur_235_251" />
        </filter>
        <filter id="filter5_f_235_251" x="146.091" y="81.0909" width="128.818" height="128.818"
            filterUnits="userSpaceOnUse" color-interpolation-filters="sRGB">
            <feFlood flood-opacity="0" result="BackgroundImageFix" />
            <feBlend mode="normal" in="SourceGraphic" in2="BackgroundImageFix" result="shape" />
            <feGaussianBlur stdDeviation="2.95455" result="effect1_foregroundBlur_235_251" />
        </filter>
        <filter id="filter6_f_235_251" x="171.099" y="106.099" width="78.8022" height="78.8022"
            filterUnits="userSpaceOnUse" color-interpolation-filters="sRGB">
            <feFlood flood-opacity="0" result="BackgroundImageFix" />
            <feBlend mode="normal" in="SourceGraphic" in2="BackgroundImageFix" result="shape" />
            <feGaussianBlur stdDeviation="1.95055" result="effect1_foregroundBlur_235_251" />
        </filter>
    </defs>
</svg>