<svg viewBox="0 0 420 290" fill="none" xmlns="http://www.w3.org/2000/svg">
    <g>
        <circle cx="210" cy="145" r="114" fill="#8E7455" />
        <path
            d="M199.608 7.00001C204.226 -0.99999 215.774 -1 220.392 7L235.981 34C240.6 42 234.826 52 225.588 52H194.412C185.174 52 179.4 42 184.019 34L199.608 7.00001Z"
            fill="#8E7455" />
        <path
            d="M199.608 283C204.226 291 215.774 291 220.392 283L235.981 256C240.6 248 234.826 238 225.588 238H194.412C185.174 238 179.4 248 184.019 256L199.608 283Z"
            fill="#8E7455" />
        <path
            d="M72 155.392C64 150.774 64 139.226 72 134.608L99 119.019C107 114.4 117 120.174 117 129.412L117 160.588C117 169.826 107 175.6 99 170.981L72 155.392Z"
            fill="#8E7455" />
        <path
            d="M348 155.392C356 150.774 356 139.226 348 134.608L321 119.019C313 114.4 303 120.174 303 129.412L303 160.588C303 169.826 313 175.6 321 170.981L348 155.392Z"
            fill="#8E7455" />
        <circle cx="210.001" cy="145" r="105.962" fill="#B8A788" />
        <path
            d="M205.669 12.5C207.594 9.16666 212.405 9.16667 214.33 12.5L239.478 56.0577C241.402 59.391 238.996 63.5577 235.147 63.5577H184.851C181.002 63.5577 178.597 59.391 180.521 56.0577L205.669 12.5Z"
            fill="#B8A788" />
        <path
            d="M205.669 277.5C207.594 280.833 212.405 280.833 214.33 277.5L239.478 233.942C241.402 230.609 238.996 226.442 235.147 226.442H184.851C181.002 226.442 178.597 230.609 180.521 233.942L205.669 277.5Z"
            fill="#B8A788" />
        <path
            d="M77.5 149.33C74.1667 147.406 74.1667 142.594 77.5 140.67L121.058 115.522C124.391 113.597 128.558 116.003 128.558 119.852L128.558 170.148C128.558 173.997 124.391 176.403 121.058 174.478L77.5 149.33Z"
            fill="#B8A788" />
        <path
            d="M342.5 149.33C345.833 147.406 345.833 142.594 342.5 140.67L298.942 115.522C295.609 113.597 291.442 116.003 291.442 119.852L291.442 170.148C291.442 173.997 295.609 176.403 298.942 174.478L342.5 149.33Z"
            fill="#B8A788" />
        <path
            d="M107.791 151.261C103.806 148.031 103.781 141.941 107.745 138.684C120.305 128.363 145.109 107.641 159 93.75C172.891 79.8588 193.613 55.055 203.934 42.4946C207.191 38.5315 213.281 38.5555 216.511 42.5409C226.701 55.1159 247.126 79.8759 261 93.75C274.876 107.626 299.902 128.316 312.62 138.65C316.632 141.909 316.608 148.063 312.574 151.295C299.841 161.496 274.859 181.891 261 195.75C247.141 209.609 226.746 234.591 216.545 247.324C213.313 251.358 207.159 251.383 203.9 247.37C193.566 234.652 172.876 209.626 159 195.75C145.126 181.876 120.366 161.451 107.791 151.261Z"
            fill="#DF852D" />
        <path
            d="M110.141 146.599C109.067 145.793 109.067 144.207 110.141 143.401C118.445 137.171 148.81 114.118 164.027 98.9019C179.243 83.6853 202.296 53.3199 208.526 45.0162C209.332 43.9418 210.918 43.9418 211.724 45.0162C217.954 53.3199 241.007 83.6853 256.223 98.9019C271.44 114.118 301.805 137.171 310.109 143.401C311.183 144.207 311.183 145.793 310.109 146.599C301.805 152.829 271.44 175.882 256.223 191.098C241.007 206.315 217.954 236.68 211.724 244.984C210.918 246.058 209.332 246.058 208.526 244.984C202.296 236.68 179.243 206.315 164.027 191.098C148.81 175.882 118.445 152.829 110.141 146.599Z"
            fill="#F39724" />
        <g opacity="0.7" filter="url(#filter1_f_219_2)">
            <path
                d="M169.789 184.934C163.753 176.888 163.753 113.113 169.789 105.066V105.066C177.402 94.9161 184.025 83.7506 189.578 73.0534C196.532 59.6564 222.355 60.0728 229.316 73.4664C234.81 84.0376 241.556 95.0466 249.657 105.066V105.066C256.156 113.106 256.044 176.805 249.656 184.934V184.934C241.405 195.434 234.485 207.059 228.856 218.13C222.076 231.465 197.162 231.749 190.344 218.434C184.638 207.289 177.756 195.556 169.789 184.934V184.934Z"
                fill="#F39724" />
        </g>
        <g filter="url(#filter2_f_219_2)">
            <path
                d="M66 145C66 145 144.995 140.453 170.789 106.066C190.359 79.9755 202.805 46.6006 207.671 32.0143C208.325 30.0542 211.431 30.1265 212.01 32.1103C216.275 46.7466 227.61 80.0327 248.657 106.066C276.457 140.453 354 144.5 354 144.5C354 144.5 275.56 149.698 248.657 183.934C228.143 210.038 216.438 243.675 212.035 258.182C211.44 260.141 208.404 260.188 207.757 258.244C202.953 243.797 190.476 210.18 170.789 183.934C144.995 149.547 66 145 66 145Z"
                fill="#FEF095" />
        </g>
        <g filter="url(#filter3_f_219_2)">
            <path
                d="M66 145C66 145 152.5 142 175.752 111.002C192.699 88.409 203.136 59.1725 207.55 44.9789C208.182 42.9439 211.537 43.0186 212.096 45.0752C215.958 59.3045 225.524 88.46 243.748 111.002C268.809 142 354 145 354 145C354 145 268 148.136 243.748 178.998C225.952 201.644 216.102 231.17 212.118 245.286C211.544 247.319 208.275 247.366 207.651 245.349C203.297 231.281 192.83 201.767 175.752 178.999C152.5 148 66 145 66 145Z"
                fill="#FFFFDF" />
        </g>
    </g>
    <defs>
        <filter id="filter1_f_219_2" x="145.262" y="43.211" width="129.228" height="205.066"
            filterUnits="userSpaceOnUse" color-interpolation-filters="sRGB">
            <feFlood flood-opacity="0" result="BackgroundImageFix" />
            <feBlend mode="normal" in="SourceGraphic" in2="BackgroundImageFix" result="shape" />
            <feGaussianBlur stdDeviation="10" result="effect1_foregroundBlur_219_2" />
        </filter>
        <filter id="filter2_f_219_2" x="51" y="15.5826" width="318" height="259.094"
            filterUnits="userSpaceOnUse" color-interpolation-filters="sRGB">
            <feFlood flood-opacity="0" result="BackgroundImageFix" />
            <feBlend mode="normal" in="SourceGraphic" in2="BackgroundImageFix" result="shape" />
            <feGaussianBlur stdDeviation="7.5" result="effect1_foregroundBlur_219_2" />
        </filter>
        <filter id="filter3_f_219_2" x="61" y="38.492" width="298" height="213.344"
            filterUnits="userSpaceOnUse" color-interpolation-filters="sRGB">
            <feFlood flood-opacity="0" result="BackgroundImageFix" />
            <feBlend mode="normal" in="SourceGraphic" in2="BackgroundImageFix" result="shape" />
            <feGaussianBlur stdDeviation="2.5" result="effect1_foregroundBlur_219_2" />
        </filter>
    </defs>
</svg>