<svg viewBox="0 0 420 290" fill="none" xmlns="http://www.w3.org/2000/svg">
<g filter="url(#filter0_ddd_228_60)">
<circle cx="210" cy="145" r="114" fill="#8E7455"/>
<path d="M199.608 7.00001C204.226 -0.99999 215.774 -1 220.392 7L235.981 34C240.6 42 234.826 52 225.588 52H194.412C185.174 52 179.4 42 184.019 34L199.608 7.00001Z" fill="#8E7455"/>
<path d="M199.608 283C204.226 291 215.774 291 220.392 283L235.981 256C240.6 248 234.826 238 225.588 238H194.412C185.174 238 179.4 248 184.019 256L199.608 283Z" fill="#8E7455"/>
<path d="M72 155.392C64 150.774 64 139.226 72 134.608L99 119.019C107 114.4 117 120.174 117 129.412L117 160.588C117 169.826 107 175.6 99 170.981L72 155.392Z" fill="#8E7455"/>
<path d="M348 155.392C356 150.774 356 139.226 348 134.608L321 119.019C313 114.4 303 120.174 303 129.412L303 160.588C303 169.826 313 175.6 321 170.981L348 155.392Z" fill="#8E7455"/>
<circle cx="210.001" cy="145" r="105.962" fill="#B8A788"/>
<path d="M205.669 12.5C207.594 9.16666 212.405 9.16667 214.33 12.5L239.478 56.0577C241.402 59.391 238.996 63.5577 235.147 63.5577H184.851C181.002 63.5577 178.597 59.391 180.521 56.0577L205.669 12.5Z" fill="#B8A788"/>
<path d="M205.669 277.5C207.594 280.833 212.405 280.833 214.33 277.5L239.478 233.942C241.402 230.609 238.996 226.442 235.147 226.442H184.851C181.002 226.442 178.597 230.609 180.521 233.942L205.669 277.5Z" fill="#B8A788"/>
<path d="M77.5 149.33C74.1667 147.406 74.1667 142.594 77.5 140.67L121.058 115.522C124.391 113.597 128.558 116.003 128.558 119.852L128.558 170.148C128.558 173.997 124.391 176.403 121.058 174.478L77.5 149.33Z" fill="#B8A788"/>
<path d="M342.5 149.33C345.833 147.406 345.833 142.594 342.5 140.67L298.942 115.522C295.609 113.597 291.442 116.003 291.442 119.852L291.442 170.148C291.442 173.997 295.609 176.403 298.942 174.478L342.5 149.33Z" fill="#B8A788"/>
<path d="M107.791 151.261C103.806 148.031 103.781 141.941 107.745 138.684C120.305 128.363 145.109 107.641 159 93.75C172.891 79.8588 193.613 55.055 203.934 42.4946C207.191 38.5315 213.281 38.5555 216.511 42.5409C226.701 55.1159 247.126 79.8759 261 93.75C274.876 107.626 299.902 128.316 312.62 138.65C316.632 141.909 316.608 148.063 312.574 151.295C299.841 161.496 274.859 181.891 261 195.75C247.141 209.609 226.746 234.591 216.545 247.324C213.313 251.358 207.159 251.383 203.9 247.37C193.566 234.652 172.876 209.626 159 195.75C145.126 181.876 120.366 161.451 107.791 151.261Z" fill="#DF852D"/>
<path d="M133.373 76.9777C132.838 71.876 137.128 67.5524 142.233 68.052C158.413 69.6352 190.604 72.5216 210.25 72.5216C229.895 72.5216 262.086 69.6352 278.266 68.052C283.371 67.5524 287.661 71.876 287.126 76.9776C285.439 93.0746 282.374 125.025 282.374 144.646C282.374 164.269 285.44 196.597 287.127 212.896C287.659 218.038 283.29 222.372 278.152 221.805C261.936 220.015 229.849 216.771 210.25 216.771C190.65 216.771 158.564 220.015 142.347 221.805C137.209 222.372 132.84 218.038 133.372 212.896C135.059 196.597 138.125 164.269 138.125 144.646C138.125 125.025 135.06 93.0746 133.373 76.9777Z" fill="#DF852D"/>
<path d="M110.141 146.599C109.067 145.793 109.067 144.207 110.141 143.401C118.445 137.171 148.81 114.118 164.027 98.9019C179.243 83.6853 202.296 53.3199 208.526 45.0162C209.332 43.9418 210.918 43.9418 211.724 45.0162C217.954 53.3199 241.007 83.6853 256.223 98.9019C271.44 114.118 301.805 137.171 310.109 143.401C311.183 144.207 311.183 145.793 310.109 146.599C301.805 152.829 271.44 175.882 256.223 191.098C241.007 206.315 217.954 236.68 211.724 244.984C210.918 246.058 209.332 246.058 208.526 244.984C202.296 236.68 179.243 206.315 164.027 191.098C148.81 175.882 118.445 152.829 110.141 146.599Z" fill="#F39724"/>
<path d="M138.295 75.4316C138.106 74.1018 139.227 72.9803 140.557 73.17C150.834 74.6362 188.606 79.8074 210.125 79.8074C231.645 79.8074 269.417 74.6362 279.694 73.17C281.024 72.9803 282.145 74.1018 281.955 75.4316C280.489 85.7085 275.318 123.481 275.318 145C275.318 166.519 280.489 204.291 281.955 214.568C282.145 215.898 281.024 217.02 279.694 216.83C269.417 215.364 231.645 210.193 210.125 210.193C188.606 210.193 150.834 215.364 140.557 216.83C139.227 217.02 138.106 215.898 138.295 214.568C139.762 204.291 144.933 166.519 144.933 145C144.933 123.481 139.762 85.7085 138.295 75.4316Z" fill="#F39724"/>
<g opacity="0.7" filter="url(#filter1_f_228_60)">
<path d="M169.789 184.934C163.753 176.888 163.753 113.112 169.789 105.066V105.066C177.402 94.9157 184.025 83.7502 189.578 73.053C196.532 59.656 222.355 60.0724 229.316 73.466C234.81 84.0373 241.557 95.0463 249.657 105.066V105.066C256.157 113.106 256.045 176.805 249.657 184.934V184.934C241.406 195.434 234.485 207.059 228.856 218.131C222.076 231.465 197.163 231.75 190.345 218.435C184.638 207.289 177.756 195.556 169.789 184.934V184.934Z" fill="#F39724"/>
</g>
<g filter="url(#filter2_f_228_60)">
<path d="M69.6105 147.818C67.1854 147.36 67.1854 142.64 69.6105 142.182C96.0433 137.194 144.913 124.836 164.043 99.332C185.487 70.7449 202.025 29.0906 207.789 13.5549C208.495 11.6524 211.337 11.7077 211.976 13.6338C217.15 29.2312 232.308 70.7933 255.38 99.332C276.026 124.869 324.655 137.227 350.745 142.202C353.163 142.663 353.158 147.336 350.74 147.795C324.471 152.788 275.399 165.192 255.38 190.668C232.961 219.197 217.323 261.058 212.002 276.541C211.347 278.445 208.544 278.482 207.844 276.593C202.131 261.176 185.555 219.347 164.043 190.669C144.913 165.165 96.0433 152.806 69.6105 147.818Z" fill="#FEF095"/>
</g>
<g filter="url(#filter3_f_228_60)">
<path d="M112.445 245.54C110.406 246.931 107.069 243.594 108.46 241.555C123.624 219.337 149.441 176.042 144.934 144.481C139.883 109.104 122.124 67.9557 115.214 52.8946C114.368 51.0502 116.417 49.0796 118.23 49.9898C132.918 57.3604 173.025 76.0309 209.519 79.8965C242.175 83.3555 285.3 57.7074 307.266 42.7772C309.302 41.3932 312.603 44.7004 311.217 46.7358C296.172 68.8409 270.245 112.311 274.103 144.481C278.424 180.507 296.966 221.164 304.152 235.875C305.035 237.685 303.079 239.693 301.249 238.852C286.307 231.99 245.009 214.133 209.519 209.066C177.958 204.559 134.663 230.376 112.445 245.54Z" fill="#FEF095"/>
</g>
<g filter="url(#filter4_f_228_60)">
<path d="M78.3452 147.821C75.906 147.377 75.906 142.623 78.3453 142.179C104.4 137.44 150.846 126.089 167.847 103.423C187.009 77.8774 202.084 42.8542 207.508 29.438C208.247 27.6112 210.969 27.6691 211.641 29.5214C216.531 42.9989 230.392 77.9302 251.002 103.423C269.351 126.121 315.621 137.472 341.371 142.199C343.804 142.646 343.803 147.354 341.37 147.799C315.455 152.542 268.794 163.935 251.001 186.577C230.969 212.069 216.684 247.261 211.661 260.64C210.974 262.47 208.294 262.508 207.562 260.696C202.184 247.379 187.073 212.208 167.847 186.577C150.846 163.912 104.4 152.561 78.3452 147.821Z" fill="#FFFFDF"/>
</g>
<g filter="url(#filter5_f_228_60)">
<path d="M118.967 240.023C116.928 241.434 113.566 238.072 114.977 236.033C130.049 214.259 154.865 173.39 150.86 145.341C146.346 113.728 132.241 78.3034 126.589 64.9812C125.82 63.1672 127.786 61.2835 129.571 62.118C142.559 68.1901 177.06 83.0892 209.659 86.5422C238.684 89.6166 279.428 64.9255 300.979 50.0601C303.015 48.6553 306.344 51.9849 304.938 54.0207C289.967 75.6992 265.029 116.749 268.458 145.341C272.318 177.532 287.102 212.517 293.011 225.529C293.819 227.309 291.95 229.231 290.151 228.467C276.933 222.854 241.378 208.669 209.659 204.14C181.61 200.135 140.741 224.951 118.967 240.023Z" fill="#FFFFDF"/>
</g>
<g opacity="0.8" filter="url(#filter6_f_228_60)">
<circle cx="210" cy="145" r="53" fill="#FF8700"/>
</g>
<g filter="url(#filter7_f_228_60)">
<circle cx="210" cy="145" r="35" fill="#FFFFDF"/>
</g>
</g>
<defs>
<filter id="filter0_ddd_228_60" x="-10.9062" y="-6.81638" width="441.812" height="311.812" filterUnits="userSpaceOnUse" color-interpolation-filters="sRGB">
<feFlood flood-opacity="0" result="BackgroundImageFix"/>
<feColorMatrix in="SourceAlpha" type="matrix" values="0 0 0 0 0 0 0 0 0 0 0 0 0 0 0 0 0 0 127 0" result="hardAlpha"/>
<feOffset/>
<feGaussianBlur stdDeviation="0.340819"/>
<feColorMatrix type="matrix" values="0 0 0 0 0 0 0 0 0 0 0 0 0 0 0 0 0 0 0.18 0"/>
<feBlend mode="normal" in2="BackgroundImageFix" result="effect1_dropShadow_228_60"/>
<feColorMatrix in="SourceAlpha" type="matrix" values="0 0 0 0 0 0 0 0 0 0 0 0 0 0 0 0 0 0 127 0" result="hardAlpha"/>
<feOffset dy="4.08983"/>
<feGaussianBlur stdDeviation="5.4531"/>
<feColorMatrix type="matrix" values="0 0 0 0 0 0 0 0 0 0 0 0 0 0 0 0 0 0 0.1 0"/>
<feBlend mode="normal" in2="effect1_dropShadow_228_60" result="effect2_dropShadow_228_60"/>
<feColorMatrix in="SourceAlpha" type="matrix" values="0 0 0 0 0 0 0 0 0 0 0 0 0 0 0 0 0 0 127 0" result="hardAlpha"/>
<feOffset dx="1.36328" dy="4.08983"/>
<feGaussianBlur stdDeviation="2.04491"/>
<feColorMatrix type="matrix" values="0 0 0 0 0 0 0 0 0 0 0 0 0 0 0 0 0 0 0.1 0"/>
<feBlend mode="normal" in2="effect2_dropShadow_228_60" result="effect3_dropShadow_228_60"/>
<feBlend mode="normal" in="SourceGraphic" in2="effect3_dropShadow_228_60" result="shape"/>
</filter>
<filter id="filter1_f_228_60" x="135.262" y="33.2106" width="149.229" height="225.067" filterUnits="userSpaceOnUse" color-interpolation-filters="sRGB">
<feFlood flood-opacity="0" result="BackgroundImageFix"/>
<feBlend mode="normal" in="SourceGraphic" in2="BackgroundImageFix" result="shape"/>
<feGaussianBlur stdDeviation="15" result="effect1_foregroundBlur_228_60"/>
</filter>
<filter id="filter2_f_228_60" x="52.1999" y="-3.43393" width="315.949" height="297.016" filterUnits="userSpaceOnUse" color-interpolation-filters="sRGB">
<feFlood flood-opacity="0" result="BackgroundImageFix"/>
<feBlend mode="normal" in="SourceGraphic" in2="BackgroundImageFix" result="shape"/>
<feGaussianBlur stdDeviation="7.79605" result="effect1_foregroundBlur_228_60"/>
</filter>
<filter id="filter3_f_228_60" x="92.5388" y="26.8564" width="234.6" height="234.605" filterUnits="userSpaceOnUse" color-interpolation-filters="sRGB">
<feFlood flood-opacity="0" result="BackgroundImageFix"/>
<feBlend mode="normal" in="SourceGraphic" in2="BackgroundImageFix" result="shape"/>
<feGaussianBlur stdDeviation="7.79605" result="effect1_foregroundBlur_228_60"/>
</filter>
<filter id="filter4_f_228_60" x="71.3183" y="22.9022" width="277.074" height="244.329" filterUnits="userSpaceOnUse" color-interpolation-filters="sRGB">
<feFlood flood-opacity="0" result="BackgroundImageFix"/>
<feBlend mode="normal" in="SourceGraphic" in2="BackgroundImageFix" result="shape"/>
<feGaussianBlur stdDeviation="2.59868" result="effect1_foregroundBlur_228_60"/>
</filter>
<filter id="filter5_f_228_60" x="109.444" y="44.527" width="201.028" height="201.029" filterUnits="userSpaceOnUse" color-interpolation-filters="sRGB">
<feFlood flood-opacity="0" result="BackgroundImageFix"/>
<feBlend mode="normal" in="SourceGraphic" in2="BackgroundImageFix" result="shape"/>
<feGaussianBlur stdDeviation="2.59868" result="effect1_foregroundBlur_228_60"/>
</filter>
<filter id="filter6_f_228_60" x="151.646" y="86.6465" width="116.707" height="116.707" filterUnits="userSpaceOnUse" color-interpolation-filters="sRGB">
<feFlood flood-opacity="0" result="BackgroundImageFix"/>
<feBlend mode="normal" in="SourceGraphic" in2="BackgroundImageFix" result="shape"/>
<feGaussianBlur stdDeviation="2.67677" result="effect1_foregroundBlur_228_60"/>
</filter>
<filter id="filter7_f_228_60" x="171.154" y="106.154" width="77.6923" height="77.6923" filterUnits="userSpaceOnUse" color-interpolation-filters="sRGB">
<feFlood flood-opacity="0" result="BackgroundImageFix"/>
<feBlend mode="normal" in="SourceGraphic" in2="BackgroundImageFix" result="shape"/>
<feGaussianBlur stdDeviation="1.92308" result="effect1_foregroundBlur_228_60"/>
</filter>
</defs>
</svg>