<svg viewBox="0 0 64 64" fill="none" xmlns="http://www.w3.org/2000/svg">
    <g opacity="0.8">
        <path
            d="M20 18V9C20 5.68629 22.6863 3 26 3L55 3.00002C58.3137 3.00002 61 5.68632 61 9.00004L60.9998 55C60.9998 58.3137 58.3135 61 54.9998 61H26C22.6863 61 20 58.3137 20 55V46"
            stroke="white" stroke-width="6" />
        <path
            d="M3 35C1.34315 35 -3.82372e-07 33.6569 -3.09948e-07 32C-2.37525e-07 30.3431 1.34315 29 3 29C4.65685 29 6 30.3431 6 32C6 33.6569 4.65685 35 3 35Z"
            fill="white" />
        <path
            d="M20 49C18.3431 49 17 47.6569 17 46C17 44.3431 18.3431 43 20 43C21.6569 43 23 44.3431 23 46C23 47.6569 21.6569 49 20 49Z"
            fill="white" />
        <path
            d="M20 21C18.3431 21 17 19.6569 17 18C17 16.3431 18.3431 15 20 15C21.6569 15 23 16.3431 23 18C23 19.6569 21.6569 21 20 21Z"
            fill="white" />
        <path
            d="M31.5 15.5C32.6716 14.3284 34.5706 14.3284 35.7422 15.5L50.1211 29.8789C51.2927 31.0505 51.2927 32.9495 50.1211 34.1211L35.7422 48.5C34.5706 49.6715 32.6716 49.6715 31.5 48.5C30.3284 47.3284 30.3284 45.4293 31.5 44.2578L40.7578 35L3 35L3 29L40.7578 29L31.5 19.7422C30.3284 18.5706 30.3284 16.6716 31.5 15.5Z"
            fill="white" />
    </g>
</svg>