<svg viewBox="0 0 64 64" fill="none" xmlns="http://www.w3.org/2000/svg">
    <g opacity="0.7">
        <path
            d="M9.9 47.3516C18.3836 59.6149 35.2022 62.6789 47.4655 54.1953C59.7287 45.7117 62.7927 28.8931 54.3091 16.6298C45.8255 4.3666 29.0069 1.30258 16.7437 9.78617"
            stroke="black" stroke-width="6" />
        <path
            d="M7.32649 24.0471C7.32649 24.0471 10.4373 19.4691 13.5774 16.4194C16.7175 13.3697 19.2836 11.656 19.2836 11.656L16.9416 2.39506C16.9416 2.39506 12.4218 4.59084 8.98649 11.1826C5.55116 17.7743 7.32649 24.0471 7.32649 24.0471Z"
            fill="black" />
        <path
            d="M37 32C37 34.7614 34.7614 37 32 37C29.2386 37 27 34.7614 27 32C27 29.2386 29.2386 27 32 27C34.7614 27 37 29.2386 37 32Z"
            fill="black" />
        <path
            d="M6 43C4.34315 43 3 41.6569 3 40C3 38.3431 4.34315 37 6 37C7.65685 37 9 38.3431 9 40C9 41.6569 7.65685 43 6 43Z"
            fill="black" />
        <path
            d="M40.0264 40.0982C38.5916 39.2698 38.0999 37.435 38.9284 36.0001C39.7568 34.5652 41.5916 34.0736 43.0264 34.902C44.4613 35.7305 44.9529 37.5652 44.1245 39.0001C43.2961 40.435 41.4613 40.9266 40.0264 40.0982Z"
            fill="black" />
        <path
            d="M32 18C30.3431 18 29 16.6569 29 15C29 13.3431 30.3431 12 32 12C33.6569 12 35 13.3431 35 15C35 16.6569 33.6569 18 32 18Z"
            fill="black" />
        <path
            d="M11.5416 49.753C10.179 50.6956 8.31025 50.3551 7.36763 48.9926C6.42501 47.63 6.76546 45.7612 8.12804 44.8186C9.49062 43.876 11.3594 44.2164 12.302 45.579C13.2446 46.9416 12.9042 48.8103 11.5416 49.753Z"
            fill="black" />
        <path d="M32 15L32 32" stroke="black" stroke-width="6" />
        <path d="M41.7979 37.6569L31.9999 32" stroke="black" stroke-width="6" />
    </g>
</svg>