<svg viewBox="0 0 64 64" fill="none" xmlns="http://www.w3.org/2000/svg">
    <g filter="url(#filter0_ddd_173_2)">
        <rect x="10.4142" y="32.1562" width="30.7479" height="30.7479" rx="3" transform="rotate(-45 10.4142 32.1562)" fill="#917C5A" stroke="#675C50" stroke-width="2"/>
        <path d="M12.5 4H51.5C53.433 4 55 5.567 55 7.5C55 9.433 53.433 11 51.5 11C50.1193 11 49 12.1193 49 13.5V18.3428C49 19.1384 48.6837 19.9022 48.1211 20.4648L40.1211 28.4648C38.1689 30.4174 38.1689 33.5826 40.1211 35.5352L48.1211 43.5352C48.6837 44.0978 49 44.8616 49 45.6572V50.5C49 51.8807 50.1193 53 51.5 53C53.433 53 55 54.567 55 56.5C55 58.433 53.433 60 51.5 60H12.5C10.567 60 9 58.433 9 56.5C9 54.567 10.567 53 12.5 53C13.8807 53 15 51.8807 15 50.5V45.6572C15 44.8616 15.3163 44.0978 15.8789 43.5352L23.8789 35.5352C25.8311 33.5826 25.8311 30.4174 23.8789 28.4648L15.8789 20.4648C15.3163 19.9022 15 19.1384 15 18.3428V13.5C15 12.1193 13.8807 11 12.5 11C10.567 11 9 9.433 9 7.5C9 5.567 10.567 4 12.5 4Z" fill="url(#paint0_linear_173_2)" stroke="#675C50" stroke-width="2"/>
    </g>
    <defs>
        <filter id="filter0_ddd_173_2" x="-1.1229" y="-0.701815" width="66.2458" height="66.2458" filterUnits="userSpaceOnUse" color-interpolation-filters="sRGB">
            <feFlood flood-opacity="0" result="BackgroundImageFix"/>
            <feColorMatrix in="SourceAlpha" type="matrix" values="0 0 0 0 0 0 0 0 0 0 0 0 0 0 0 0 0 0 127 0" result="hardAlpha"/>
            <feOffset/>
            <feGaussianBlur stdDeviation="0.0350908"/>
            <feColorMatrix type="matrix" values="0 0 0 0 0 0 0 0 0 0 0 0 0 0 0 0 0 0 0.18 0"/>
            <feBlend mode="normal" in2="BackgroundImageFix" result="effect1_dropShadow_173_2"/>
            <feColorMatrix in="SourceAlpha" type="matrix" values="0 0 0 0 0 0 0 0 0 0 0 0 0 0 0 0 0 0 127 0" result="hardAlpha"/>
            <feOffset dy="0.421089"/>
            <feGaussianBlur stdDeviation="0.561452"/>
            <feColorMatrix type="matrix" values="0 0 0 0 0 0 0 0 0 0 0 0 0 0 0 0 0 0 0.1 0"/>
            <feBlend mode="normal" in2="effect1_dropShadow_173_2" result="effect2_dropShadow_173_2"/>
            <feColorMatrix in="SourceAlpha" type="matrix" values="0 0 0 0 0 0 0 0 0 0 0 0 0 0 0 0 0 0 127 0" result="hardAlpha"/>
            <feOffset dx="0.140363" dy="0.421089"/>
            <feGaussianBlur stdDeviation="0.210545"/>
            <feColorMatrix type="matrix" values="0 0 0 0 0 0 0 0 0 0 0 0 0 0 0 0 0 0 0.1 0"/>
            <feBlend mode="normal" in2="effect2_dropShadow_173_2" result="effect3_dropShadow_173_2"/>
            <feBlend mode="normal" in="SourceGraphic" in2="effect3_dropShadow_173_2" result="shape"/>
        </filter>
        <linearGradient id="paint0_linear_173_2" x1="32" y1="20" x2="32" y2="43.5" gradientUnits="userSpaceOnUse">
            <stop stop-color="#8B7251"/>
            <stop offset="1" stop-color="#B4A080"/>
        </linearGradient>
    </defs>
</svg>