<svg viewBox="0 0 64 64" fill="none" xmlns="http://www.w3.org/2000/svg">
    <g opacity="0.7">
        <mask id="mask0_302_2" style="mask-type:alpha" maskUnits="userSpaceOnUse" x="0" y="0"
            width="56" height="56">
            <path d="M7.07132e-09 0H56V28H28V56H0L7.07132e-09 0Z" fill="black" />
        </mask>
        <g mask="url(#mask0_302_2)">
            <path
                d="M14 3H42C48.0751 3 53 7.92487 53 14V42C53 48.0751 48.0751 53 42 53H14C7.92492 52.9999 3 48.0751 3 42V14C3 7.92491 7.92492 3.00006 14 3Z"
                stroke="black" stroke-width="6" />
        </g>
        <path
            d="M31.0001 43C31.0001 36.3726 36.3726 31 43.0001 31H52C58.6274 31 64 36.3726 64 43V52C64 58.6274 58.6274 64 52 64H43.0001C36.3727 64 31.0001 58.6274 31.0001 52V43Z"
            fill="black" />
        <path
            d="M28 31C29.6569 31 31 29.6569 31 28L31 13C31 11.343146 29.6569 10 28 10C26.3431 10 25 11.343146 25 13L25 25L13 25C11.343146 25 10 26.3431 10 28C10 29.6569 11.343146 31 13 31L28 31ZM12 12L9.87868 14.1213L25.8787 30.1213L28 28L30.1213 25.8787L14.1213 9.87868L12 12Z"
            fill="black" />
    </g>
</svg>