<svg viewBox="0 0 128 128" fill="none" xmlns="http://www.w3.org/2000/svg">
  <g>
    <circle cx="64" cy="80.9589" r="44" fill="#5A7F35" />
    <path
      d="M59.8242 4.41096C61.6801 1.19635 66.32 1.19635 68.176 4.41096C86.6196 36.3561 108 46.3014 108 80.9589H20C20 46.9041 41.0959 36.8493 59.8242 4.41096Z"
      fill="#5A7F35" />
    <circle cx="63.9999" cy="80.4995" r="39.1781" fill="#99E379" />
    <path
      d="M60.2817 12.3404C64.131 5.67309 63.9999 5.90003 67.7182 12.3404C84.1406 40.7847 103.178 49.6401 103.178 80.4995H24.8218C24.8218 50.1767 43.6058 41.2239 60.2817 12.3404Z"
      fill="#99E379" />
    <circle cx="64.3256" cy="80.1116" r="34.0793" fill="#5F923C" />
    <path
      d="M61.8902 21.2877C63.8041 17.9726 64.4968 17.9726 66.4107 21.2877C72.3266 31.5342 98.4049 49.9991 98.4049 80.1116H30.2463C30.2463 51.2046 55.8003 31.8356 61.8902 21.2877Z"
      fill="#5F923C" />
    <circle cx="64.1304" cy="79.6231" r="29.0618" fill="#9CE87B" />
    <path
      d="M62.7946 27.9178C63.9849 25.8083 64.0001 25.7812 65.2056 27.9178C70.2505 36.8595 93.1922 53.3454 93.1922 79.6232H35.0686C35.0686 54.3974 57.6014 37.1225 62.7946 27.9178Z"
      fill="#9CE87B" />
    <path
      d="M62.7951 27.9178C64.4709 25.5 63.5737 25.5 65.206 27.9178C71.3375 37 76.5 40 84 51.5H44.5C52 40 56.5 37 62.7951 27.9178Z"
      fill="#80C556" />
    <rect x="79" y="69.2024" width="9.59508" height="30" rx="2.05665"
      transform="rotate(90 79 69.2024)" fill="#5C9B2C" />
    <rect width="9.59508" height="30" rx="2.05665"
      transform="matrix(-1 -8.74228e-08 -8.74228e-08 1 68.7976 59)" fill="#5C9B2C" />
    <path
      d="M100 18.5C100.75 12.5 110.5 12.5 111 22C113 22 114 16.0833 119 16.5C126 17.0833 124 34 120.5 37C124.5 36.5 123.5 44.25 117.5 48C113.5 50.5 106.5 53.5 96.9999 53C91 55.5 87.4995 53.5 84.4999 49.5C81.9564 46.1081 81.0002 42 82.5 38C83.9998 34 88.9997 31.9998 94 28C96.8152 25.748 99.5 22.5 100 18.5Z"
      fill="url(#paint0_linear_126_149)" />
    <path
      d="M107 19.5C108 21.5 108 23.224 107.5 27C113 25 114.894 23.2698 116 21.5C118.5 17.5 120.5 19.5 120.5 26.5C120.5 33.5 117 39 107.5 40.5C112.5 41 113.899 40.7642 116 40C122 37.8182 118.5 48.5 100.5 50C97.5001 50.25 101.6 47.5 100.5 42C99.6001 37.5 94.1668 38 92.5001 40C90.8334 42 92.0002 43.8749 93.5001 42C94.7001 40.5 98.8738 40.0155 98.5001 44.5C98.3751 46 97.5001 51.5 92.0002 51C87.5002 50.5 83.5 43 85.5002 39C87.8573 34.286 100.881 30 102.5 21.5C103.128 18.2051 105.5 16.5 107 19.5Z"
      fill="#99E479" />
    <path
      d="M28.6897 18.1372C27.9397 12.1372 18.1897 12.1372 17.6897 21.6372C15.6897 21.6372 14.6897 15.7206 9.6897 16.1372C2.6897 16.7206 4.6897 33.6372 8.18974 36.6372C4.18974 36.1372 5.1897 43.8872 11.1897 47.6372C15.1897 50.1372 22.1897 53.1372 31.6898 52.6372C37.6897 55.1372 41.1902 53.1372 44.1898 49.1372C46.7333 45.7453 47.6895 41.6372 46.1897 37.6372C44.6899 33.6372 39.69 31.6371 34.6897 27.6372C31.8745 25.3852 29.1897 22.1372 28.6897 18.1372Z"
      fill="url(#paint1_linear_126_149)" />
    <path
      d="M21.6896 19.1373C20.6896 21.1372 20.6895 22.8612 21.1895 26.6372C15.6896 24.6372 13.7957 22.907 12.6895 21.1372C10.1895 17.1372 8.18957 19.1373 8.18957 26.1372C8.18957 33.1372 11.6896 38.6372 21.1895 40.1373C16.1896 40.6372 14.791 40.4014 12.6895 39.6373C6.68959 37.4554 10.1895 48.1373 28.1895 49.6373C31.1896 49.8873 27.0895 47.1372 28.1895 41.6372C29.0896 37.1372 34.5229 37.6372 36.1896 39.6373C37.8563 41.6373 36.6895 43.5122 35.1896 41.6372C33.9896 40.1373 29.8159 39.6528 30.1896 44.1372C30.3146 45.6372 31.1896 51.1372 36.6895 50.6372C41.1895 50.1372 45.1897 42.6372 43.1895 38.6372C40.8324 33.9233 27.8086 29.6373 26.1896 21.1372C25.562 17.8424 23.1896 16.1373 21.6896 19.1373Z"
      fill="#99E479" />
  </g>
  <defs>
    <linearGradient id="paint0_linear_126_149" x1="90.016" y1="43.9358" x2="89.9442" y2="43.9861"
      gradientUnits="userSpaceOnUse">
      <stop stop-color="#5A7F35" />
      <stop offset="1" stop-color="#5F923C" />
    </linearGradient>
    <linearGradient id="paint1_linear_126_149" x1="38.498" y1="43.5" x2="38.569" y2="43.5503"
      gradientUnits="userSpaceOnUse">
      <stop stop-color="#5A7F35" />
      <stop offset="1" stop-color="#5F923C" />
    </linearGradient>
  </defs>
</svg>