<svg
  viewBox="0 0 512 512"
  fill="none"
  xmlns="http://www.w3.org/2000/svg"
  xmlns:xlink="http://www.w3.org/1999/xlink"
>
  <g>
    <path opacity="0.6"
      d="M255.5 46.8906C370.712 46.8906 464.109 140.288 464.109 255.5C464.109 370.712 370.712 464.109 255.5 464.109C140.288 464.109 46.8906 370.712 46.8906 255.5C46.8906 140.288 140.288 46.8906 255.5 46.8906Z"
      fill="#D2882B" fill-opacity="0.3" stroke="#ECB664" stroke-width="11.7803" />
    <circle cx="256" cy="256" r="171" fill="url(#paint0_radial_100_2)" />
    <circle cx="255.5" cy="255.5" r="148.5" stroke="#F5C972" stroke-width="12" />
    <path d="M166.935 166.935L123.363 179.702L179.702 123.363L166.935 166.935Z" fill="#F5C972" />
    <path d="M344.388 344.388L387.96 331.622L331.621 387.96L344.388 344.388Z" fill="#F5C972" />
    <path d="M166.935 345.065L179.702 388.636L123.363 332.298L166.935 345.065Z" fill="#F5C972" />
    <path d="M344.388 167.612L331.621 124.04L387.96 180.378L344.388 167.612Z" fill="#F5C972" />
    <g filter="url(#filter1_ddd_29_401)">
      <path
        d="M226 282.5C229.721 286.553 221.927 286.199 226 282.5L326 191.5C329.889 187.967 345.707 185.865 349.5 189.5L359 197.5C362.949 201.284 361.004 205.214 357.275 209.214L234.383 341.044C230.226 345.503 223.081 345.237 219.267 340.482L153.63 258.642C150.224 254.396 154.825 243.492 159 240L164 236.5C168.099 233.072 177.844 231.097 181.458 235.033L226 282.5Z"
        fill="#F0C97E"
      />
    </g>
  </g>
  <defs>
    <filter id="filter1_ddd_29_401" x="96.4443" y="149.603" width="320.73" height="268.622"
      filterUnits="userSpaceOnUse" color-interpolation-filters="sRGB"
    >
      <feFlood flood-opacity="0" result="BackgroundImageFix" />
      <feColorMatrix in="SourceAlpha" type="matrix"
        values="0 0 0 0 0 0 0 0 0 0 0 0 0 0 0 0 0 0 127 0" result="hardAlpha" />
      <feOffset dy="0" />
      <feGaussianBlur stdDeviation="28" />
      <feColorMatrix type="matrix" values="0 0 0 0 0 0 0 0 0 0 0 0 0 0 0 0 0 0 0.24 0" />
      <feBlend mode="normal" in2="BackgroundImageFix" result="effect1_dropShadow_29_401" />
      <feColorMatrix in="SourceAlpha" type="matrix"
        values="0 0 0 0 0 0 0 0 0 0 0 0 0 0 0 0 0 0 127 0" result="hardAlpha" />
      <feOffset dy="0" />
      <feGaussianBlur stdDeviation="9" />
      <feColorMatrix type="matrix" values="0 0 0 0 0 0 0 0 0 0 0 0 0 0 0 0 0 0 0.12 0" />
      <feBlend mode="normal" in2="effect1_dropShadow_29_401" result="effect2_dropShadow_29_401" />
      <feColorMatrix in="SourceAlpha" type="matrix"
        values="0 0 0 0 0 0 0 0 0 0 0 0 0 0 0 0 0 0 127 0" result="hardAlpha" />
      <feOffset dy="0" />
      <feGaussianBlur stdDeviation="3" />
      <feColorMatrix type="matrix" values="0 0 0 0 0 0 0 0 0 0 0 0 0 0 0 0 0 0 0.096 0" />
      <feBlend mode="normal" in2="effect2_dropShadow_29_401" result="effect3_dropShadow_29_401" />
      <feBlend mode="normal" in="SourceGraphic" in2="effect3_dropShadow_29_401" result="shape" />
    </filter>
    <radialGradient id="paint0_radial_100_2" cx="50%" cy="50%" r="50%" fx="50%" fy="50%">
      <stop offset="0%" stop-color="#DFB14B" />
      <stop offset="70%" stop-color="#F1B24F99"/>
    </radialGradient>
  </defs>
</svg>