<svg viewBox="0 0 64 64" fill="none" xmlns="http://www.w3.org/2000/svg">
    <g opacity="0.7" >
        <path
            d="M32 15C41.3888 15 49 22.6112 49 32C49 41.3888 41.3888 49 32 49C22.6112 49 15 41.3888 15 32C15 22.6112 22.6112 15 32 15Z"
            stroke="black" stroke-width="12" />
        <path
            d="M24.6262 45.1414C24.7795 45.1253 24.9256 45.2097 24.9883 45.3505L29.0294 54.4268C29.092 54.5676 29.0569 54.7327 28.9424 54.8358L21.5591 61.4838C21.4446 61.5869 21.2767 61.6045 21.1433 61.5275L12.5391 56.5598C12.4056 56.4828 12.337 56.3286 12.369 56.1779L14.4347 46.4597C14.4667 46.309 14.5921 46.1961 14.7454 46.18L24.6262 45.1414Z"
            fill="black" />
        <path
            d="M39.6942 19.043C39.7568 19.1838 39.903 19.2682 40.0562 19.2521L49.9371 18.2135C50.0903 18.1974 50.2158 18.0845 50.2478 17.9338L52.3135 8.2156C52.3455 8.0649 52.2768 7.9107 52.1434 7.83367L43.5392 2.86602C43.4058 2.78898 43.2379 2.80663 43.1234 2.90972L35.74 9.55773C35.6255 9.66082 35.5904 9.82592 35.6531 9.96667L39.6942 19.043Z"
            fill="black" />
        <path
            d="M16.9321 32.1844C17.0226 32.3091 17.0226 32.4779 16.9321 32.6025L11.0923 40.6403C11.0017 40.765 10.8412 40.8171 10.6946 40.7695L1.24562 37.6994C1.09909 37.6518 0.999878 37.5152 0.999878 37.3611L0.999878 27.4258C0.999878 27.2718 1.09909 27.1352 1.24562 27.0876L10.6946 24.0174C10.8412 23.9698 11.0017 24.022 11.0923 24.1466L16.9321 32.1844Z"
            fill="black" />
        <path
            d="M47.0679 32.1844C46.9774 32.3091 46.9774 32.4779 47.0679 32.6025L52.9077 40.6403C52.9983 40.765 53.1588 40.8171 53.3054 40.7695L62.7544 37.6994C62.9009 37.6518 63.0001 37.5152 63.0001 37.3611L63.0001 27.4258C63.0001 27.2718 62.9009 27.1352 62.7544 27.0876L53.3054 24.0174C53.1588 23.9698 52.9983 24.022 52.9077 24.1466L47.0679 32.1844Z"
            fill="black" />
        <path
            d="M24.3058 19.043C24.2432 19.1838 24.097 19.2682 23.9438 19.2521L14.0629 18.2135C13.9097 18.1974 13.7842 18.0845 13.7522 17.9338L11.6865 8.2156C11.6545 8.0649 11.7232 7.9107 11.8566 7.83367L20.4608 2.86602C20.5942 2.78898 20.7621 2.80663 20.8766 2.90972L28.26 9.55773C28.3745 9.66082 28.4096 9.82592 28.3469 9.96667L24.3058 19.043Z"
            fill="black" />
        <path
            d="M39.3738 45.1414C39.2205 45.1253 39.0744 45.2097 39.0117 45.3505L34.9706 54.4268C34.908 54.5676 34.9431 54.7327 35.0576 54.8358L42.4409 61.4838C42.5554 61.5869 42.7233 61.6045 42.8567 61.5275L51.4609 56.5598C51.5944 56.4828 51.663 56.3286 51.631 56.1779L49.5653 46.4597C49.5333 46.309 49.4079 46.1961 49.2546 46.18L39.3738 45.1414Z"
            fill="black" />
    </g>
</svg>