<svg
  xmlns="http://www.w3.org/2000/svg"
  viewBox="0 0 15 15"
>
  <path
    d="M7.5 2.143c-.222 0-.623.548-1.02 1.188a4.301 4.301 0 00-3.15 3.152c-.64.396-1.187.797-1.187 1.017 0 .22.547.62 1.186 1.017a4.301 4.301 0 003.152 3.152c.396.64.797 1.188 1.019 1.188.222 0 .623-.548 1.02-1.188a4.301 4.301 0 003.149-3.15c.64-.396 1.188-.797 1.188-1.019 0-.22-.542-.619-1.178-1.013a4.301 4.301 0 00-3.166-3.166C8.119 2.685 7.72 2.143 7.5 2.143z"
    fill="#c6a370"
    fill-rule="evenodd"
    stroke="#997650"
    stroke-width=".40500054"
    stroke-linejoin="round"
    stroke-opacity=".988"
    paint-order="markers stroke fill"
  />
  <path
    d="M7.5 3.214C6.429 5.357 5.357 6.43 3.214 7.5 5.357 8.571 6.43 9.643 7.5 11.786 8.571 9.643 9.643 8.57 11.786 7.5 9.643 6.429 8.57 5.357 7.5 3.214z"
    fill="#ec9f38"
    stroke="#d78535"
    stroke-width=".202"
  />
  <path
    d="M7.5 1.071C6.964 6.43 6.429 6.964 1.071 7.5c5.358.536 5.893 1.071 6.429 6.429.536-5.358 1.071-5.893 6.429-6.429C8.57 6.964 8.036 6.429 7.5 1.071z"
    fill="#ffffdf"
  />
</svg>