<svg viewBox="0 112 420 495" fill="none" xmlns="http://www.w3.org/2000/svg">
    <g>
        <rect y="112" width="420" height="495" rx="28" fill="#BDAA8A" />
        <path
            d="M361.565 145C362.556 160.804 375.196 173.444 391 174.435V548.066C375.16 549.09 362.09 562.16 361.066 578H58.4346C57.4443 562.196 44.8037 549.555 29 548.564V174.435C44.8036 173.444 57.4443 160.804 58.4346 145H361.565Z"
            stroke="#B09C7C" stroke-width="4" />
        <path
            d="M26.659 142.206C26.4527 141.851 26.851 141.453 27.2059 141.659L37.8737 147.861C37.9909 147.929 38.1347 147.934 38.2557 147.872L46.8164 143.53C47.1521 143.36 47.5157 143.705 47.3628 144.049L43.3762 153.019C43.3247 153.135 43.3312 153.268 43.3936 153.379L49.2294 163.684C49.4293 164.037 49.0373 164.429 48.6842 164.229L38.3785 158.394C38.2682 158.331 38.1348 158.325 38.019 158.376L29.049 162.363C28.705 162.516 28.3595 162.152 28.5298 161.816L32.8722 153.256C32.9335 153.135 32.9294 152.991 32.8612 152.874L26.659 142.206Z"
            fill="#9E8660" />
        <path
            d="M32.0809 151.531C30.4016 148.643 33.6431 145.402 36.5314 147.081V147.081C37.4857 147.636 38.6563 147.669 39.6407 147.17V147.17C42.3765 145.782 45.3417 148.596 44.0958 151.4L43.9651 151.694C43.5432 152.643 43.5963 153.736 44.1082 154.64V154.64C45.7465 157.534 42.5337 160.747 39.6404 159.108V159.108C38.7364 158.596 37.6432 158.543 36.6938 158.965L36.3997 159.096C33.5965 160.342 30.7819 157.376 32.1696 154.641V154.641C32.669 153.656 32.6356 152.486 32.0809 151.531V151.531Z"
            fill="#9E8660" />
        <path
            d="M393.182 142.206C393.388 141.851 392.99 141.453 392.635 141.659L381.967 147.861C381.85 147.929 381.706 147.934 381.585 147.872L373.024 143.53C372.689 143.36 372.325 143.705 372.478 144.049L376.465 153.019C376.516 153.135 376.51 153.268 376.447 153.379L370.611 163.684C370.412 164.037 370.804 164.429 371.157 164.229L381.462 158.394C381.573 158.331 381.706 158.325 381.822 158.376L390.792 162.363C391.136 162.516 391.481 162.152 391.311 161.816L386.969 153.256C386.907 153.135 386.911 152.991 386.98 152.874L393.182 142.206Z"
            fill="#9E8660" />
        <path
            d="M387.76 151.531C389.439 148.643 386.198 145.402 383.309 147.081V147.081C382.355 147.636 381.184 147.669 380.2 147.17V147.17C377.464 145.782 374.499 148.596 375.745 151.4L375.876 151.694C376.298 152.643 376.245 153.736 375.733 154.64V154.64C374.094 157.534 377.307 160.747 380.2 159.108V159.108C381.104 158.596 382.198 158.543 383.147 158.965L383.441 159.096C386.244 160.342 389.059 157.376 387.671 154.641V154.641C387.172 153.656 387.205 152.486 387.76 151.531V151.531Z"
            fill="#9E8660" />
        <path
            d="M26.659 579.635C26.4527 579.99 26.851 580.388 27.2059 580.182L37.8737 573.979C37.9909 573.911 38.1347 573.907 38.2557 573.968L46.8164 578.311C47.1521 578.481 47.5157 578.136 47.3628 577.792L43.3762 568.822C43.3247 568.706 43.3312 568.572 43.3936 568.462L49.2294 558.156C49.4293 557.803 49.0373 557.411 48.6842 557.611L38.3785 563.447C38.2682 563.509 38.1348 563.516 38.019 563.464L29.049 559.478C28.705 559.325 28.3595 559.689 28.5298 560.024L32.8722 568.585C32.9335 568.706 32.9294 568.85 32.8612 568.967L26.659 579.635Z"
            fill="#9E8660" />
        <path
            d="M32.0809 570.309C30.4016 573.198 33.6431 576.439 36.5314 574.76V574.76C37.4857 574.205 38.6563 574.172 39.6407 574.671V574.671C42.3765 576.059 45.3417 573.244 44.0958 570.441L43.9651 570.147C43.5432 569.197 43.5963 568.104 44.1082 567.2V567.2C45.7465 564.307 42.5337 561.094 39.6404 562.732V562.732C38.7364 563.244 37.6432 563.297 36.6938 562.875L36.3997 562.745C33.5965 561.499 30.7819 564.464 32.1696 567.2V567.2C32.669 568.184 32.6356 569.355 32.0809 570.309V570.309Z"
            fill="#9E8660" />
        <path
            d="M393.182 579.635C393.388 579.99 392.99 580.388 392.635 580.182L381.967 573.979C381.85 573.911 381.706 573.907 381.585 573.968L373.024 578.311C372.689 578.481 372.325 578.136 372.478 577.792L376.465 568.822C376.516 568.706 376.51 568.572 376.447 568.462L370.611 558.156C370.412 557.803 370.804 557.411 371.157 557.611L381.462 563.447C381.573 563.509 381.706 563.516 381.822 563.464L390.792 559.478C391.136 559.325 391.481 559.689 391.311 560.024L386.969 568.585C386.907 568.706 386.911 568.85 386.98 568.967L393.182 579.635Z"
            fill="#9E8660" />
        <path
            d="M387.76 570.309C389.439 573.198 386.198 576.439 383.309 574.76V574.76C382.355 574.205 381.184 574.172 380.2 574.671V574.671C377.464 576.059 374.499 573.244 375.745 570.441L375.876 570.147C376.298 569.197 376.245 568.104 375.733 567.2V567.2C374.094 564.307 377.307 561.094 380.2 562.732V562.732C381.104 563.244 382.198 563.297 383.147 562.875L383.441 562.745C386.244 561.499 389.059 564.464 387.671 567.2V567.2C387.172 568.184 387.205 569.355 387.76 570.309V570.309Z"
            fill="#9E8660" />
        <circle cx="210" cy="305" r="147" stroke="#B5A181" stroke-width="2" />
        <circle cx="210" cy="325" r="166" stroke="#B5A181" stroke-width="4" />
        <path d="M201 490L210 476.875L219 490L210 503.125L201 490Z" fill="#B5A181" />
        <path d="M107.59 455.708L122.523 450.205L122.275 466.117L107.342 471.62L107.59 455.708Z"
            fill="#B5A181" />
        <path d="M312.275 455.708L297.343 450.205L297.59 466.117L312.523 471.62L312.275 455.708Z"
            fill="#B5A181" />
        <circle cx="210" cy="295" r="14" fill="#B5A181" />
        <path
            d="M179.562 252.282C186.062 252.782 200.562 256.282 208.562 263.282C190.562 273.282 177.562 299.282 177.562 323.782C177.562 349.282 196.062 367.782 210.562 381.282C216.562 376.282 234.062 357.782 237.563 345.782C244.063 344.782 258.062 341.282 270.063 332.282C264.563 367.282 234.562 400.782 210.562 413.282C180.062 396.282 149.562 358.282 149.562 323.782C149.563 286.782 162.563 269.282 179.562 252.282Z"
            fill="#B5A181" />
        <path
            d="M267.563 293.782C263.562 299.282 253.062 307.782 242.562 311.282C241.062 282.282 212.669 261.572 200.562 255.782C177.562 244.782 137.563 250.282 131.063 252.782C130.062 260.282 142.563 283.282 151.562 294.282C149.563 300.282 147.062 314.282 148.063 327.282C120.062 307.782 101.062 263.782 101.562 236.782C131.535 218.868 181.062 217.782 214.322 232.032C238.171 242.25 261.34 270.56 267.563 293.782Z"
            fill="#B5A181" />
        <path
            d="M183.537 342.718C179.563 333.782 179.063 323.782 180.562 313.282C198.082 324.101 239.931 320.087 259.062 304.782C279.062 288.782 287.062 269.282 290.562 253.782C277.062 248.782 255.562 247.782 243.562 250.282C238.062 244.282 227.562 235.782 214.562 230.282C246.562 217.782 297.062 222.782 320.062 236.782C318.562 271.282 302.062 305.282 274.063 327.282C244.062 350.854 203.562 347.782 183.537 342.718Z"
            fill="#B5A181" />
        <path id="path_1" d="M211 397C211 397 135.5 349.5 175.5 279.5C215.5 209.5 306 244 306 244" />
        <path id="path_2" d="M306 244C306 244 299.5 333 213.5 333C127.5 333 116 244 116 244" />
        <path id="path_3" d="M116 244 C116 244 211.728 212 247 280.5 C282.272 349 211 397 211 397" />
        <circle r="14" fill="#B29D7B">
            <animateMotion dur="3.6s" repeatCount="indefinite"
                keyTimes="0;0.513;0.647;1" keyPoints="0;0;1;1" calcMode="linear">
                <mpath href="#path_1" />
            </animateMotion>
            <animate attributeName="opacity" values="0;0;1;1;0;0"
                keyTimes="0;0.333;0.333;0.667;0.667;1"
                dur="3.6s"
                repeatCount="indefinite" />
        </circle>
        <circle r="14" fill="#AE9974">
            <animateMotion dur="3.6s" repeatCount="indefinite"
                keyTimes="0;0.493;0.627;1" keyPoints="0;0;1;1" calcMode="linear">
                <mpath href="#path_1" />
            </animateMotion>
            <animate attributeName="opacity" values="0;0;1;1;0;0"
                keyTimes="0;0.333;0.333;0.667;0.667;1"
                dur="3.6s"
                repeatCount="indefinite" />
        </circle>
        <circle r="14" fill="#AB956E">
            <animateMotion dur="3.6s" repeatCount="indefinite"
                keyTimes="0;0.473;0.607;1" keyPoints="0;0;1;1" calcMode="linear">
                <mpath href="#path_1" />
            </animateMotion>
            <animate attributeName="opacity" values="0;0;1;1;0;0"
                keyTimes="0;0.333;0.333;0.667;0.667;1"
                dur="3.6s"
                repeatCount="indefinite" />
        </circle>
        <circle r="14" fill="#A79268">
            <animateMotion dur="3.6s" repeatCount="indefinite"
                keyTimes="0;0.453;0.587;1" keyPoints="0;0;1;1" calcMode="linear">
                <mpath href="#path_1" />
            </animateMotion>
            <animate attributeName="opacity" values="0;0;1;1;0;0"
                keyTimes="0;0.333;0.333;0.667;0.667;1"
                dur="3.6s"
                repeatCount="indefinite" />
        </circle>
        <circle r="14" fill="#A68E66">
            <animateMotion dur="3.6s" repeatCount="indefinite"
                keyTimes="0;0.433;0.567;1" keyPoints="0;0;1;1" calcMode="linear">
                <mpath href="#path_1" />
            </animateMotion>
            <animate attributeName="opacity" values="0;0;1;1;0;0"
                keyTimes="0;0.333;0.333;0.667;0.667;1"
                dur="3.6s"
                repeatCount="indefinite" />
        </circle>
        <circle r="14" fill="#B29D7B">
            <animateMotion dur="3.6s" repeatCount="indefinite"
                keyTimes="0;0.847;0.98;1" keyPoints="0;0;1;1" calcMode="linear">
                <mpath href="#path_2" />
            </animateMotion>
            <animate attributeName="opacity" values="0;0;1;1"
                keyTimes="0;0.667;0.667;1"
                dur="3.6s"
                repeatCount="indefinite" />
        </circle>
        <circle r="14" fill="#AE9974">
            <animateMotion dur="3.6s" repeatCount="indefinite"
                keyTimes="0;0.827;0.96;1" keyPoints="0;0;1;1" calcMode="linear">
                <mpath href="#path_2" />
            </animateMotion>
            <animate attributeName="opacity" values="0;0;1;1"
                keyTimes="0;0.667;0.667;1"
                dur="3.6s"
                repeatCount="indefinite" />
        </circle>
        <circle r="14" fill="#AB956E">
            <animateMotion dur="3.6s" repeatCount="indefinite"
                keyTimes="0;0.807;0.94;1" keyPoints="0;0;1;1" calcMode="linear">
                <mpath href="#path_2" />
            </animateMotion>
            <animate attributeName="opacity" values="0;0;1;1"
                keyTimes="0;0.667;0.667;1"
                dur="3.6s"
                repeatCount="indefinite" />
        </circle>
        <circle r="14" fill="#A79268">
            <animateMotion dur="3.6s" repeatCount="indefinite"
                keyTimes="0;0.787;0.92;1" keyPoints="0;0;1;1" calcMode="linear">
                <mpath href="#path_2" />
            </animateMotion>
            <animate attributeName="opacity" values="0;0;1;1"
                keyTimes="0;0.667;0.667;1"
                dur="3.6s"
                repeatCount="indefinite" />
        </circle>
        <circle r="14" fill="#A68E66">
            <animateMotion dur="3.6s" repeatCount="indefinite"
                keyTimes="0;0.767;0.9;1" keyPoints="0;0;1;1" calcMode="linear">
                <mpath href="#path_2" />
            </animateMotion>
            <animate attributeName="opacity" values="0;0;1;1"
                keyTimes="0;0.667;0.667;1"
                dur="3.6s"
                repeatCount="indefinite" />
        </circle>
        <circle r="14" fill="#B29D7B">
            <animateMotion dur="3.6s" repeatCount="indefinite"
                keyTimes="0;0.18;0.313;1" keyPoints="0;0;1;1" calcMode="linear">
                <mpath href="#path_3" />
            </animateMotion>
            <animate attributeName="opacity" values="1;1;0;0"
                keyTimes="0;0.333;0.333;1"
                dur="3.6s"
                repeatCount="indefinite" />
        </circle>
        <circle r="14" fill="#AE9974">
            <animateMotion dur="3.6s" repeatCount="indefinite"
                keyTimes="0;0.16;0.293;1" keyPoints="0;0;1;1" calcMode="linear">
                <mpath href="#path_3" />
            </animateMotion>
            <animate attributeName="opacity" values="1;1;0;0"
                keyTimes="0;0.333;0.333;1"
                dur="3.6s"
                repeatCount="indefinite" />
        </circle>
        <circle r="14" fill="#AB956E">
            <animateMotion dur="3.6s" repeatCount="indefinite"
                keyTimes="0;0.14;0.273;1" keyPoints="0;0;1;1" calcMode="linear">
                <mpath href="#path_3" />
            </animateMotion>
            <animate attributeName="opacity" values="1;1;0;0"
                keyTimes="0;0.333;0.333;1"
                dur="3.6s"
                repeatCount="indefinite" />
        </circle>
        <circle r="14" fill="#A79268">
            <animateMotion dur="3.6s" repeatCount="indefinite"
                keyTimes="0;0.12;0.253;1" keyPoints="0;0;1;1" calcMode="linear">
                <mpath href="#path_3" />
            </animateMotion>
            <animate attributeName="opacity" values="1;1;0;0"
                keyTimes="0;0.333;0.333;1"
                dur="3.6s"
                repeatCount="indefinite" />
        </circle>
        <circle r="14" fill="#A68E66">
            <animateMotion dur="3.6s" repeatCount="indefinite"
                keyTimes="0;0.1;0.233;1" keyPoints="0;0;1;1" calcMode="linear">
                <mpath href="#path_3" />
            </animateMotion>
            <animate attributeName="opacity" values="1;1;0;0"
                keyTimes="0;0.333;0.333;1"
                dur="3.6s"
                repeatCount="indefinite" />
        </circle>
        <path
            d="M179.562 252.282C186.062 252.782 200.562 256.282 208.562 263.282C190.562 273.282 177.562 299.282 177.562 323.782C177.562 349.282 196.062 367.782 210.562 381.282C216.562 376.282 234.062 357.782 237.563 345.782C244.063 344.782 258.062 341.282 270.063 332.282C264.563 367.282 234.562 400.782 210.562 413.282C180.062 396.282 149.562 358.282 149.562 323.782C149.563 286.782 162.563 269.282 179.562 252.282Z"
            fill="#B5A181">
            <animate attributeName="opacity" values="0;0;1;1"
                keyTimes="0;0.667;0.667;1"
                dur="3.6s"
                repeatCount="indefinite" />
        </path>
        <path
            d="M267.563 293.782C263.562 299.282 253.062 307.782 242.562 311.282C241.062 282.282 212.669 261.572 200.562 255.782C177.562 244.782 137.563 250.282 131.063 252.782C130.062 260.282 142.563 283.282 151.562 294.282C149.563 300.282 147.062 314.282 148.063 327.282C120.062 307.782 101.062 263.782 101.562 236.782C131.535 218.868 181.062 217.782 214.322 232.032C238.171 242.25 261.34 270.56 267.563 293.782Z"
            fill="#B5A181">
            <animate attributeName="opacity" values="0;0;1;1;0;0"
                keyTimes="0;0.333;0.333;0.667;0.667;1"
                dur="3.6s"
                repeatCount="indefinite" />
        </path>
        <path
            d="M183.537 342.718C179.563 333.782 179.063 323.782 180.562 313.282C198.082 324.101 239.931 320.087 259.062 304.782C279.062 288.782 287.062 269.282 290.562 253.782C277.062 248.782 255.562 247.782 243.562 250.282C238.062 244.282 227.562 235.782 214.562 230.282C246.562 217.782 297.062 222.782 320.062 236.782C318.562 271.282 302.062 305.282 274.063 327.282C244.062 350.854 203.562 347.782 183.537 342.718Z"
            fill="#B5A181">
            <animate attributeName="opacity" values="1;1;0;0"
                keyTimes="0;0.333;0.333;1"
                dur="3.6s"
                repeatCount="indefinite" />
        </path>
    </g>
</svg>