<svg viewBox="0 0 128 128" fill="none" xmlns="http://www.w3.org/2000/svg">
    <g filter="url(#filter0_ddd_291_22)">
        <path
            d="M64 15.75C90.6477 15.75 112.25 37.3523 112.25 64C112.25 90.6477 90.6477 112.25 64 112.25C37.3523 112.25 15.75 90.6477 15.75 64C15.75 37.3523 37.3523 15.75 64 15.75Z"
            fill="#CAB48E" stroke="#8D7559" stroke-width="3.5" />
        <path
            d="M104 64C104 86.0914 86.0914 104 64 104C41.9086 104 24 86.0914 24 64C24 41.9086 41.9086 24 64 24C86.0914 24 104 41.9086 104 64Z"
            fill="#978059" />
        <path d="M44 29C40 32 39 36 40 40C36 39 32 40 29 44L34.5 34.5L44 29Z" fill="#CAB48E" />
        <path d="M84 99C88 96 89 92 88 88C92 89 96 88 99 84L93.5 93.5L84 99Z" fill="#CAB48E" />
        <path d="M44 99C40 96 39 92 40 88C36 89 32 88 29 84L34.5 93.5L44 99Z" fill="#CAB48E" />
        <path d="M84 29C88 32 89 36 88 40C92 39 96 40 99 44L93.5 34.5L84 29Z" fill="#CAB48E" />
        <path opacity="0.85"
            d="M64.1018 31.0441C78.329 30.3974 89 36.8644 89 50.4452C89 57.5589 85.4431 64.6726 75.4191 67.2594C68.8367 68.9581 66.9238 70.8163 66.3653 76.96C65.7186 84.0737 61.5148 83.75 58.9282 78.9001C58.2383 77.6067 56.6649 75.0198 56.6649 69.8462C56.6649 64.6726 58.2816 61.3717 62.4851 60.1457C70.2456 57.8822 75.0959 55.2954 75.0959 49.1518C75.0959 43.0081 70.8921 38.4812 64.1018 38.4812C55.3715 38.4812 49.8744 45.5949 48.2575 47.2116C45.6505 49.8184 43.6408 48.5789 44.0541 45.2715C44.6602 40.4213 51.8271 31.602 64.1018 31.0441Z"
            fill="white" />
        <path opacity="0.85"
            d="M71.1613 94.7001C71.1613 98.8075 67.8316 102.137 63.7242 102.137C59.6168 102.137 56.2871 98.8075 56.2871 94.7001C56.2871 90.5928 59.6168 87.2631 63.7242 87.2631C67.8316 87.2631 71.1613 90.5928 71.1613 94.7001Z"
            fill="white" />
    </g>
    <defs>
        <filter id="filter0_ddd_291_22" x="-8" y="-5" width="144" height="144"
            filterUnits="userSpaceOnUse" color-interpolation-filters="sRGB">
            <feFlood flood-opacity="0" result="BackgroundImageFix" />
            <feColorMatrix in="SourceAlpha" type="matrix"
                values="0 0 0 0 0 0 0 0 0 0 0 0 0 0 0 0 0 0 127 0" result="hardAlpha" />
            <feOffset />
            <feGaussianBlur stdDeviation="0.25" />
            <feColorMatrix type="matrix" values="0 0 0 0 0 0 0 0 0 0 0 0 0 0 0 0 0 0 0.18 0" />
            <feBlend mode="normal" in2="BackgroundImageFix" result="effect1_dropShadow_291_22" />
            <feColorMatrix in="SourceAlpha" type="matrix"
                values="0 0 0 0 0 0 0 0 0 0 0 0 0 0 0 0 0 0 127 0" result="hardAlpha" />
            <feOffset dy="3" />
            <feGaussianBlur stdDeviation="4" />
            <feColorMatrix type="matrix" values="0 0 0 0 0 0 0 0 0 0 0 0 0 0 0 0 0 0 0.1 0" />
            <feBlend mode="normal" in2="effect1_dropShadow_291_22"
                result="effect2_dropShadow_291_22" />
            <feColorMatrix in="SourceAlpha" type="matrix"
                values="0 0 0 0 0 0 0 0 0 0 0 0 0 0 0 0 0 0 127 0" result="hardAlpha" />
            <feOffset dx="1" dy="3" />
            <feGaussianBlur stdDeviation="1.5" />
            <feColorMatrix type="matrix" values="0 0 0 0 0 0 0 0 0 0 0 0 0 0 0 0 0 0 0.1 0" />
            <feBlend mode="normal" in2="effect2_dropShadow_291_22"
                result="effect3_dropShadow_291_22" />
            <feBlend mode="normal" in="SourceGraphic" in2="effect3_dropShadow_291_22" result="shape" />
        </filter>
    </defs>
</svg>