<svg viewBox="0 0 512 512" fill="none" xmlns="http://www.w3.org/2000/svg">
    <g>
        <g opacity="0.4">
            <circle cx="255.5" cy="255.5" r="223.5" fill="#D0814E"/>
        </g>
        <circle cx="256" cy="256" r="172" fill="#8C573C"/>
        <path d="M98.4864 106.622C91.8006 92.981 106.106 78.5743 119.794 85.1639L163.498 106.204C172.889 110.725 175.519 122.874 168.84 130.875L147.8 156.076C140.374 164.97 126.25 163.268 121.15 152.863L98.4864 106.622Z" fill="#8C573C"/>
        <path d="M416.33 395.378C423.016 409.019 408.71 423.426 395.023 416.836L351.319 395.796C341.928 391.275 339.297 379.126 345.977 371.125L367.017 345.924C374.443 337.03 388.567 338.732 393.666 349.137L416.33 395.378Z" fill="#8C573C"/>
        <path d="M445.57 45.4076C460.163 36.6157 476.56 53.6878 467.188 67.9148L390.676 184.054C385.31 192.199 373.968 193.689 366.68 187.206L319.737 145.444C311.679 138.276 312.876 125.351 322.114 119.785L445.57 45.4076Z" fill="#8C573C"/>
        <path d="M67.694 467.653C53.3706 477.368 35.9667 460.586 45.1531 445.919L117.161 330.944C122.334 322.685 133.627 320.929 141.063 327.229L184.421 363.959C192.499 370.803 191.822 383.466 183.059 389.409L67.694 467.653Z" fill="#8C573C"/>
        <circle cx="256" cy="256" r="154" fill="#A16642"/>
        <circle cx="256" cy="256" r="118" fill="#8C522F"/>
        <path d="M452 61L327 249.052L403 402L252 323.5L61.5 451L188 249.052L114.5 102L262.5 175L452 61Z" fill="#D0865C"/>
        <path d="M248.282 152.682C250.363 147.987 256.995 147.904 259.191 152.546L288.819 215.179C290.08 217.844 292.28 219.953 294.996 221.101L357.131 247.36C361.925 249.386 362.043 256.137 357.322 258.329L294.711 287.398C292.15 288.588 290.089 290.642 288.894 293.2L259.203 356.715C257.018 361.39 250.341 361.307 248.271 356.58L220.667 293.538C219.451 290.761 217.228 288.546 214.446 287.341L147.651 258.396C142.745 256.27 142.861 249.272 147.836 247.31L214.169 221.145C217.101 219.988 219.46 217.724 220.737 214.843L248.282 152.682Z" fill="#FDDC99" stroke="#8C522F" stroke-width="6"/>
    </g>
</svg>