<svg viewBox="0 0 256 256" fill="none" xmlns="http://www.w3.org/2000/svg">
  <g>
    <path d="M167.346 108.88L178.372 105.243L159.05 204.421L147.99 209.861L167.346 108.88Z"
      fill="#999999" />
    <path d="M173.578 109.852L179.052 108.567L159.47 207.986L154.222 210.833L173.578 109.852Z"
      fill="#3A2A1F" />
    <path
      d="M170.034 113.3C197.688 121.589 216.059 151.82 211.067 180.824C206.074 209.827 179.609 226.62 151.955 218.331C124.301 210.042 105.93 179.81 110.922 150.807C115.915 121.803 142.38 105.011 170.034 113.3Z"
      fill="#90A7CC" />
    <mask id="mask0_205_2" style="mask-type:alpha" maskUnits="userSpaceOnUse" x="172" y="121"
      width="63" height="64">
      <rect x="172.373" y="134.595" width="51.1647" height="51.1647"
        transform="rotate(-14.4392 172.373 134.595)" fill="#7E92B3" />
    </mask>
    <g mask="url(#mask0_205_2)">
      <path
        d="M170.034 113.3C197.688 121.589 216.059 151.82 211.067 180.824C206.074 209.827 179.609 226.62 151.955 218.331C124.301 210.042 105.93 179.81 110.922 150.807C115.915 121.803 142.38 105.011 170.034 113.3Z"
        fill="#7E92B3" />
    </g>
    <path
      d="M199.936 177.49L206.676 191.181L221.401 191.137L223.762 177.418L210.497 168.983L199.936 177.49Z"
      fill="#7E92B3" />
    <path
      d="M122.046 154.143L111.485 162.65L98.2193 154.215L100.581 140.496L115.306 140.452L122.046 154.143Z"
      fill="#EEEEEE" />
    <path
      d="M174.377 207.026L167.23 218.981L175.905 232.72L188.414 229.256L187.47 213.376L174.377 207.026Z"
      fill="#AAAAAA" />
    <path
      d="M147.606 124.606L134.513 118.256L133.569 102.376L146.078 98.9117L154.753 112.651L147.606 124.606Z"
      fill="#EEEEEE" />
    <path
      d="M135.43 195.353L121.543 193.616L115.493 207.4L125.64 217.655L137.962 210.21L135.43 195.353Z"
      fill="#EEEEEE" />
    <path
      d="M186.553 136.279L184.02 121.422L196.342 113.977L206.49 124.232L200.44 138.015L186.553 136.279Z"
      fill="#7E92B3" />
    <mask id="mask1_205_2" style="mask-type:alpha" maskUnits="userSpaceOnUse" x="163" y="172"
      width="63" height="64">
      <rect x="163.601" y="185.7" width="51.1647" height="51.1647"
        transform="rotate(-14.4392 163.601 185.7)" fill="#6C7D99" />
    </mask>
    <g mask="url(#mask1_205_2)">
      <path
        d="M170.033 113.3C197.687 121.589 216.059 151.82 211.066 180.824C206.074 209.827 179.609 226.62 151.955 218.331C124.3 210.042 105.929 179.81 110.922 150.807C115.914 121.803 142.379 105.011 170.033 113.3Z"
        fill="#6C7D99" />
    </g>
    <g filter="url(#filter1_ddd_205_2)">
      <path
        d="M157.427 118.539C185.082 126.828 203.453 157.06 198.46 186.063C193.468 215.067 167.003 231.859 139.349 223.57C111.694 215.281 93.3234 185.05 98.3158 156.046C103.308 127.043 129.773 110.251 157.427 118.539Z"
        fill="#A2BCE6" />
      <path
        d="M187.33 182.729L194.069 196.421L208.795 196.377L211.156 182.657L197.89 174.223L187.33 182.729Z"
        fill="#A2BCE6" />
      <path
        d="M109.439 159.383L98.8783 167.89L85.6123 159.455L87.9738 145.736L102.699 145.691L109.439 159.383Z"
        fill="#A2BCE6" />
      <path
        d="M161.771 212.265L154.623 224.221L163.298 237.96L175.808 234.496L174.863 218.616L161.771 212.265Z"
        fill="#A2BCE6" />
      <path
        d="M135 129.846L121.907 123.496L120.963 107.615L133.472 104.151L142.147 117.891L135 129.846Z"
        fill="#A2BCE6" />
      <path
        d="M122.824 200.592L108.937 198.856L102.887 212.64L113.034 222.895L125.356 215.449L122.824 200.592Z"
        fill="#A2BCE6" />
      <path
        d="M173.946 141.519L171.414 126.662L183.736 119.216L193.883 129.471L187.833 143.255L173.946 141.519Z"
        fill="#A2BCE6" />
    </g>
    <path
      d="M131.131 165.486C132.833 155.598 141.809 150.011 151.038 152.777C160.266 155.543 166.534 165.699 164.832 175.588C163.13 185.476 154.153 191.061 144.924 188.295C135.696 185.529 129.429 175.374 131.131 165.486Z"
      fill="#597DB3" stroke="#B3D2FF" stroke-width="9" />
    <path d="M211.229 182.906L223.716 177.199L221.356 191.264L208.749 196.504L211.229 182.906Z"
      fill="#7E92B3" />
    <path d="M199.232 175.03L211.839 169.79L223.716 177.199L211.229 182.906L199.232 175.03Z"
      fill="#B4D1FF" />
    <path d="M188.229 141.976L201.304 136.616L206.602 124.286L193.979 129.461L188.229 141.976Z"
      fill="#6C7D99" />
    <path d="M193.995 129.526L206.602 124.286L196.461 113.938L183.387 119.298L193.995 129.526Z"
      fill="#B4D1FF" />
    <path d="M174.965 220.156L187.572 214.916L188.378 229.661L175.651 234.434L174.965 220.156Z"
      fill="#7E92B3" />
    <path d="M123.421 215.484L126.48 217.687L112.938 223.168L123.421 215.484Z" fill="#6C7D99" />
    <path d="M124.683 204.714L48.8365 181.823L64.9782 96.8123L141.234 119.6L124.683 204.714Z"
      fill="#7E6240" stroke="#A68049" stroke-width="12" />
    <path d="M148.65 111.495L159.676 107.859L140.354 207.037L129.294 212.477L148.65 111.495Z"
      fill="#543D2D" />
    <path d="M176.903 105.669L156.075 113.181L164.443 63.7669L185.745 56.4261L176.903 105.669Z"
      fill="#3A2A1F" stroke="#806238" stroke-width="12" />
    <path d="M159.044 55.0505L79.6347 30.972L100.627 23.7132L180.423 47.6831L159.044 55.0505Z"
      fill="#9A7B4D" stroke="#C49757" stroke-width="8" />
    <path d="M107 129.5L111 128L124 114.5L122 114L107 129.5Z" fill="#806238" />
    <path d="M152.326 63.4624L143.665 114.606L62.5447 90.1601L71.4262 38.932L152.326 63.4624Z"
      fill="#7E6240" stroke="#B78D51" stroke-width="12" />
    <path
      d="M111.31 94.6035L117.901 113.273L106.068 125.532L87.8107 120.118L81.7831 101.895L93.1028 89.2057L111.31 94.6035Z"
      fill="#7347B3" stroke="#B78D51" stroke-width="7" />
  </g>
  <defs>
    <filter id="filter0_ddd_205_2" x="-3.72425" y="-2.32766" width="263.449" height="263.449"
      filterUnits="userSpaceOnUse" color-interpolation-filters="sRGB">
      <feFlood flood-opacity="0" result="BackgroundImageFix" />
      <feColorMatrix in="SourceAlpha" type="matrix"
        values="0 0 0 0 0 0 0 0 0 0 0 0 0 0 0 0 0 0 127 0" result="hardAlpha" />
      <feOffset />
      <feGaussianBlur stdDeviation="0.116383" />
      <feColorMatrix type="matrix" values="0 0 0 0 0 0 0 0 0 0 0 0 0 0 0 0 0 0 0.18 0" />
      <feBlend mode="normal" in2="BackgroundImageFix" result="effect1_dropShadow_205_2" />
      <feColorMatrix in="SourceAlpha" type="matrix"
        values="0 0 0 0 0 0 0 0 0 0 0 0 0 0 0 0 0 0 127 0" result="hardAlpha" />
      <feOffset dy="1.39659" />
      <feGaussianBlur stdDeviation="1.86213" />
      <feColorMatrix type="matrix" values="0 0 0 0 0 0 0 0 0 0 0 0 0 0 0 0 0 0 0.1 0" />
      <feBlend mode="normal" in2="effect1_dropShadow_205_2" result="effect2_dropShadow_205_2" />
      <feColorMatrix in="SourceAlpha" type="matrix"
        values="0 0 0 0 0 0 0 0 0 0 0 0 0 0 0 0 0 0 127 0" result="hardAlpha" />
      <feOffset dx="0.465531" dy="1.39659" />
      <feGaussianBlur stdDeviation="0.698297" />
      <feColorMatrix type="matrix" values="0 0 0 0 0 0 0 0 0 0 0 0 0 0 0 0 0 0 0.1 0" />
      <feBlend mode="normal" in2="effect2_dropShadow_205_2" result="effect3_dropShadow_205_2" />
      <feBlend mode="normal" in="SourceGraphic" in2="effect3_dropShadow_205_2" result="shape" />
    </filter>
    <filter id="filter1_ddd_205_2" x="31.5515" y="67.4673" width="233.666" height="241.93"
      filterUnits="userSpaceOnUse" color-interpolation-filters="sRGB">
      <feFlood flood-opacity="0" result="BackgroundImageFix" />
      <feColorMatrix in="SourceAlpha" type="matrix"
        values="0 0 0 0 0 0 0 0 0 0 0 0 0 0 0 0 0 0 127 0" result="hardAlpha" />
      <feOffset dy="17.3767" />
      <feGaussianBlur stdDeviation="27.0304" />
      <feColorMatrix type="matrix" values="0 0 0 0 0 0 0 0 0 0 0 0 0 0 0 0 0 0 0.01 0" />
      <feBlend mode="normal" in2="BackgroundImageFix" result="effect1_dropShadow_205_2" />
      <feColorMatrix in="SourceAlpha" type="matrix"
        values="0 0 0 0 0 0 0 0 0 0 0 0 0 0 0 0 0 0 127 0" result="hardAlpha" />
      <feOffset dy="9.65372" />
      <feGaussianBlur stdDeviation="8.68835" />
      <feColorMatrix type="matrix" values="0 0 0 0 0 0 0 0 0 0 0 0 0 0 0 0 0 0 0.01 0" />
      <feBlend mode="normal" in2="effect1_dropShadow_205_2" result="effect2_dropShadow_205_2" />
      <feColorMatrix in="SourceAlpha" type="matrix"
        values="0 0 0 0 0 0 0 0 0 0 0 0 0 0 0 0 0 0 127 0" result="hardAlpha" />
      <feOffset dy="3.86149" />
      <feGaussianBlur stdDeviation="2.89611" />
      <feColorMatrix type="matrix" values="0 0 0 0 0 0 0 0 0 0 0 0 0 0 0 0 0 0 0.01 0" />
      <feBlend mode="normal" in2="effect2_dropShadow_205_2" result="effect3_dropShadow_205_2" />
      <feBlend mode="normal" in="SourceGraphic" in2="effect3_dropShadow_205_2" result="shape" />
    </filter>
  </defs>
</svg>