<svg xmlns="http://www.w3.org/2000/svg" viewBox="0 0 580 200">
  <svg x="0" y="0" width="200" height="200" viewBox="0 0 256 256" fill="none" xmlns="http://www.w3.org/2000/svg">
    <g>
      <path d="M167.346 108.88L178.372 105.243L159.05 204.421L147.99 209.861L167.346 108.88Z"
        fill="#999999" />
      <path d="M173.578 109.852L179.052 108.567L159.47 207.986L154.222 210.833L173.578 109.852Z"
        fill="#3A2A1F" />
      <path
        d="M170.034 113.3C197.688 121.589 216.059 151.82 211.067 180.824C206.074 209.827 179.609 226.62 151.955 218.331C124.301 210.042 105.93 179.81 110.922 150.807C115.915 121.803 142.38 105.011 170.034 113.3Z"
        fill="#90A7CC" />
      <mask id="mask0_205_2" style="mask-type:alpha" maskUnits="userSpaceOnUse" x="172" y="121"
        width="63" height="64">
        <rect x="172.373" y="134.595" width="51.1647" height="51.1647"
          transform="rotate(-14.4392 172.373 134.595)" fill="#7E92B3" />
      </mask>
      <g mask="url(#mask0_205_2)">
        <path
          d="M170.034 113.3C197.688 121.589 216.059 151.82 211.067 180.824C206.074 209.827 179.609 226.62 151.955 218.331C124.301 210.042 105.93 179.81 110.922 150.807C115.915 121.803 142.38 105.011 170.034 113.3Z"
          fill="#7E92B3" />
      </g>
      <path
        d="M199.936 177.49L206.676 191.181L221.401 191.137L223.762 177.418L210.497 168.983L199.936 177.49Z"
        fill="#7E92B3" />
      <path
        d="M122.046 154.143L111.485 162.65L98.2193 154.215L100.581 140.496L115.306 140.452L122.046 154.143Z"
        fill="#EEEEEE" />
      <path
        d="M174.377 207.026L167.23 218.981L175.905 232.72L188.414 229.256L187.47 213.376L174.377 207.026Z"
        fill="#AAAAAA" />
      <path
        d="M147.606 124.606L134.513 118.256L133.569 102.376L146.078 98.9117L154.753 112.651L147.606 124.606Z"
        fill="#EEEEEE" />
      <path
        d="M135.43 195.353L121.543 193.616L115.493 207.4L125.64 217.655L137.962 210.21L135.43 195.353Z"
        fill="#EEEEEE" />
      <path
        d="M186.553 136.279L184.02 121.422L196.342 113.977L206.49 124.232L200.44 138.015L186.553 136.279Z"
        fill="#7E92B3" />
      <mask id="mask1_205_2" style="mask-type:alpha" maskUnits="userSpaceOnUse" x="163" y="172"
        width="63" height="64">
        <rect x="163.601" y="185.7" width="51.1647" height="51.1647"
          transform="rotate(-14.4392 163.601 185.7)" fill="#6C7D99" />
      </mask>
      <g mask="url(#mask1_205_2)">
        <path
          d="M170.033 113.3C197.687 121.589 216.059 151.82 211.066 180.824C206.074 209.827 179.609 226.62 151.955 218.331C124.3 210.042 105.929 179.81 110.922 150.807C115.914 121.803 142.379 105.011 170.033 113.3Z"
          fill="#6C7D99" />
      </g>
      <g filter="url(#filter1_ddd_205_2)">
        <path
          d="M157.427 118.539C185.082 126.828 203.453 157.06 198.46 186.063C193.468 215.067 167.003 231.859 139.349 223.57C111.694 215.281 93.3234 185.05 98.3158 156.046C103.308 127.043 129.773 110.251 157.427 118.539Z"
          fill="#A2BCE6" />
        <path
          d="M187.33 182.729L194.069 196.421L208.795 196.377L211.156 182.657L197.89 174.223L187.33 182.729Z"
          fill="#A2BCE6" />
        <path
          d="M109.439 159.383L98.8783 167.89L85.6123 159.455L87.9738 145.736L102.699 145.691L109.439 159.383Z"
          fill="#A2BCE6" />
        <path
          d="M161.771 212.265L154.623 224.221L163.298 237.96L175.808 234.496L174.863 218.616L161.771 212.265Z"
          fill="#A2BCE6" />
        <path
          d="M135 129.846L121.907 123.496L120.963 107.615L133.472 104.151L142.147 117.891L135 129.846Z"
          fill="#A2BCE6" />
        <path
          d="M122.824 200.592L108.937 198.856L102.887 212.64L113.034 222.895L125.356 215.449L122.824 200.592Z"
          fill="#A2BCE6" />
        <path
          d="M173.946 141.519L171.414 126.662L183.736 119.216L193.883 129.471L187.833 143.255L173.946 141.519Z"
          fill="#A2BCE6" />
      </g>
      <path
        d="M131.131 165.486C132.833 155.598 141.809 150.011 151.038 152.777C160.266 155.543 166.534 165.699 164.832 175.588C163.13 185.476 154.153 191.061 144.924 188.295C135.696 185.529 129.429 175.374 131.131 165.486Z"
        fill="#597DB3" stroke="#B3D2FF" stroke-width="9" />
      <path d="M211.229 182.906L223.716 177.199L221.356 191.264L208.749 196.504L211.229 182.906Z"
        fill="#7E92B3" />
      <path d="M199.232 175.03L211.839 169.79L223.716 177.199L211.229 182.906L199.232 175.03Z"
        fill="#B4D1FF" />
      <path d="M188.229 141.976L201.304 136.616L206.602 124.286L193.979 129.461L188.229 141.976Z"
        fill="#6C7D99" />
      <path d="M193.995 129.526L206.602 124.286L196.461 113.938L183.387 119.298L193.995 129.526Z"
        fill="#B4D1FF" />
      <path d="M174.965 220.156L187.572 214.916L188.378 229.661L175.651 234.434L174.965 220.156Z"
        fill="#7E92B3" />
      <path d="M123.421 215.484L126.48 217.687L112.938 223.168L123.421 215.484Z" fill="#6C7D99" />
      <path d="M124.683 204.714L48.8365 181.823L64.9782 96.8123L141.234 119.6L124.683 204.714Z"
        fill="#7E6240" stroke="#A68049" stroke-width="12" />
      <path d="M148.65 111.495L159.676 107.859L140.354 207.037L129.294 212.477L148.65 111.495Z"
        fill="#543D2D" />
      <path d="M176.903 105.669L156.075 113.181L164.443 63.7669L185.745 56.4261L176.903 105.669Z"
        fill="#3A2A1F" stroke="#806238" stroke-width="12" />
      <path d="M159.044 55.0505L79.6347 30.972L100.627 23.7132L180.423 47.6831L159.044 55.0505Z"
        fill="#9A7B4D" stroke="#C49757" stroke-width="8" />
      <path d="M107 129.5L111 128L124 114.5L122 114L107 129.5Z" fill="#806238" />
      <path d="M152.326 63.4624L143.665 114.606L62.5447 90.1601L71.4262 38.932L152.326 63.4624Z"
        fill="#7E6240" stroke="#B78D51" stroke-width="12" />
      <path
        d="M111.31 94.6035L117.901 113.273L106.068 125.532L87.8107 120.118L81.7831 101.895L93.1028 89.2057L111.31 94.6035Z"
        fill="#7347B3" stroke="#B78D51" stroke-width="7" />
    </g>
    <defs>
      <filter id="filter0_ddd_205_2" x="-3.72425" y="-2.32766" width="263.449" height="263.449"
        filterUnits="userSpaceOnUse" color-interpolation-filters="sRGB">
        <feFlood flood-opacity="0" result="BackgroundImageFix" />
        <feColorMatrix in="SourceAlpha" type="matrix"
          values="0 0 0 0 0 0 0 0 0 0 0 0 0 0 0 0 0 0 127 0" result="hardAlpha" />
        <feOffset />
        <feGaussianBlur stdDeviation="0.116383" />
        <feColorMatrix type="matrix" values="0 0 0 0 0 0 0 0 0 0 0 0 0 0 0 0 0 0 0.18 0" />
        <feBlend mode="normal" in2="BackgroundImageFix" result="effect1_dropShadow_205_2" />
        <feColorMatrix in="SourceAlpha" type="matrix"
          values="0 0 0 0 0 0 0 0 0 0 0 0 0 0 0 0 0 0 127 0" result="hardAlpha" />
        <feOffset dy="1.39659" />
        <feGaussianBlur stdDeviation="1.86213" />
        <feColorMatrix type="matrix" values="0 0 0 0 0 0 0 0 0 0 0 0 0 0 0 0 0 0 0.1 0" />
        <feBlend mode="normal" in2="effect1_dropShadow_205_2" result="effect2_dropShadow_205_2" />
        <feColorMatrix in="SourceAlpha" type="matrix"
          values="0 0 0 0 0 0 0 0 0 0 0 0 0 0 0 0 0 0 127 0" result="hardAlpha" />
        <feOffset dx="0.465531" dy="1.39659" />
        <feGaussianBlur stdDeviation="0.698297" />
        <feColorMatrix type="matrix" values="0 0 0 0 0 0 0 0 0 0 0 0 0 0 0 0 0 0 0.1 0" />
        <feBlend mode="normal" in2="effect2_dropShadow_205_2" result="effect3_dropShadow_205_2" />
        <feBlend mode="normal" in="SourceGraphic" in2="effect3_dropShadow_205_2" result="shape" />
      </filter>
      <filter id="filter1_ddd_205_2" x="31.5515" y="67.4673" width="233.666" height="241.93"
        filterUnits="userSpaceOnUse" color-interpolation-filters="sRGB">
        <feFlood flood-opacity="0" result="BackgroundImageFix" />
        <feColorMatrix in="SourceAlpha" type="matrix"
          values="0 0 0 0 0 0 0 0 0 0 0 0 0 0 0 0 0 0 127 0" result="hardAlpha" />
        <feOffset dy="17.3767" />
        <feGaussianBlur stdDeviation="27.0304" />
        <feColorMatrix type="matrix" values="0 0 0 0 0 0 0 0 0 0 0 0 0 0 0 0 0 0 0.01 0" />
        <feBlend mode="normal" in2="BackgroundImageFix" result="effect1_dropShadow_205_2" />
        <feColorMatrix in="SourceAlpha" type="matrix"
          values="0 0 0 0 0 0 0 0 0 0 0 0 0 0 0 0 0 0 127 0" result="hardAlpha" />
        <feOffset dy="9.65372" />
        <feGaussianBlur stdDeviation="8.68835" />
        <feColorMatrix type="matrix" values="0 0 0 0 0 0 0 0 0 0 0 0 0 0 0 0 0 0 0.01 0" />
        <feBlend mode="normal" in2="effect1_dropShadow_205_2" result="effect2_dropShadow_205_2" />
        <feColorMatrix in="SourceAlpha" type="matrix"
          values="0 0 0 0 0 0 0 0 0 0 0 0 0 0 0 0 0 0 127 0" result="hardAlpha" />
        <feOffset dy="3.86149" />
        <feGaussianBlur stdDeviation="2.89611" />
        <feColorMatrix type="matrix" values="0 0 0 0 0 0 0 0 0 0 0 0 0 0 0 0 0 0 0.01 0" />
        <feBlend mode="normal" in2="effect2_dropShadow_205_2" result="effect3_dropShadow_205_2" />
        <feBlend mode="normal" in="SourceGraphic" in2="effect3_dropShadow_205_2" result="shape" />
      </filter>
    </defs>
  </svg>
  <svg x="210" y="58" width="88" height="84.1" viewBox="0 0 88 84.1"
    xmlns="http://www.w3.org/2000/svg">
    <g id="svgGroup" stroke-linecap="round" fill-rule="evenodd" font-size="9pt" stroke="#000"
      stroke-width="0" fill="#3b332d" style="stroke:#000;stroke-width:0;fill:#3b332d">
      <path
        d="M 2.4 19.1 L 2.4 83.2 L 9 83.2 Q 11.9 83.2 14 81.1 Q 15.6 79.1 15.6 76.6 L 15.6 59.2 Q 16.7 60.1 17.9 61 Q 21.8 64.1 26.2 66.4 Q 30.5 68.6 35.4 69.2 L 37.6 64.7 L 37.6 81.8 L 44 81.8 Q 46.8 81.8 48.8 79.8 Q 50.4 77.9 50.4 75.4 L 50.4 58.8 Q 50.9 59.3 51.5 59.7 Q 55.8 63.2 60.7 66 Q 65 68.1 69.8 68.7 L 72.3 63.8 Q 67.4 60.6 62.8 56.8 Q 59.4 54 55.8 51.3 L 50.4 57.1 L 50.4 39.3 L 56.2 32.3 Q 58.8 34.3 61.4 36.5 Q 66.6 40.7 72.4 44.3 L 72.4 28.5 L 50.4 28.5 L 50.4 39.3 L 52.8 41.1 Q 57.5 44.7 62.8 47.4 Q 66.6 49.1 70.7 49.6 L 72.4 45.9 L 72.4 69.1 Q 72.4 70.7 72.1 72.2 Q 71.9 73.3 71.2 74.1 Q 70.7 74.7 70 74.9 Q 68.6 75.2 67.2 75.2 L 58.9 74.7 L 58.9 79.4 Q 61.7 81.6 65 83.1 Q 67.6 84.1 70.4 84.1 Q 74.2 84.1 78 83.3 Q 80 82.8 81.8 81.7 Q 83.8 80.1 84.7 77.7 Q 85.6 74.8 85.6 71.5 L 85.6 19.1 L 50.4 19.1 L 50.4 9.4 L 88 9.4 L 88 0 L 0 0 L 0 9.4 L 37.6 9.4 L 37.6 19.1 L 2.4 19.1 Z M 36.2 49.9 L 37.6 46.8 L 37.6 63.9 Q 31.2 59.9 25.5 55 Q 23.4 53.2 21.3 51.5 L 15.6 57.6 L 15.6 28.5 L 37.6 28.5 L 37.6 44.3 Q 32 40.8 27 36.5 Q 24.5 34.4 22 32.4 L 15.8 39.4 Q 17 40.3 18.3 41.2 Q 23 44.9 28.3 47.6 Q 32.1 49.4 36.2 49.9 Z" />
    </g>
  </svg>
  <svg x="312" y="52" width="89.5" height="89.3" viewBox="0 0 89.5 89.3"
    xmlns="http://www.w3.org/2000/svg">
    <g id="svgGroup" stroke-linecap="round" fill-rule="evenodd" font-size="9pt" stroke="#000"
      stroke-width="0" fill="#ad8053" style="stroke:#000;stroke-width:0;fill:#ad8053">
      <path
        d="M 88.7 36.6 L 0.2 36.6 L 0.2 44.2 L 26.9 44.2 L 26.9 49.2 L 4.8 49.2 L 4.8 89.3 L 71.2 89.3 Q 73.4 89.3 75.7 88.9 Q 78.1 88.6 80.2 87.6 Q 83.8 85.7 83.9 81.7 L 83.9 49.2 L 59.7 49.2 L 59.7 44.2 L 88.7 44.2 L 88.7 36.6 Z M 0 25.9 L 3.2 34.5 Q 13.1 31.6 22.8 27.6 L 22.8 34.7 L 29 34.7 Q 31.4 34.8 33.3 33.3 Q 35.2 31.3 35.2 28.5 L 35.2 17.9 L 36.8 21.9 Q 40.3 21 43.8 19.5 Q 49.6 23.1 56.4 23.9 Q 46.4 28.1 36 30.5 L 38.3 35.7 Q 46 34.7 53.7 32.9 Q 61.7 31 69.4 27.9 Q 80.6 23.2 89.5 14.8 L 89.5 6.5 L 61.1 6.5 L 63.3 4 L 53.3 0 Q 45.7 10.1 35.2 16.7 L 35.2 1 L 22.8 1 L 22.8 19.7 Q 14.9 22 7.1 24.2 Q 3.5 25.2 0 25.9 Z M 17.5 70 L 17.5 56.6 L 26.5 56.6 Q 25.7 59.6 23.4 61.5 Q 20.9 63.3 17.9 64 L 20.2 69.1 Q 23.7 68.8 27.2 67.9 Q 30.7 66.9 33.7 65.1 Q 38.3 62.1 39.3 56.6 L 47.5 56.6 L 47.5 58.9 Q 47.4 61.1 47.9 63.1 Q 48.4 64.8 49.6 66 Q 51.1 67.1 52.9 67.5 Q 54.8 67.9 56.7 67.8 L 71.2 67.8 L 71.2 70 L 17.5 70 Z M 71.2 81.7 L 17.5 81.7 L 17.5 77.2 L 71.2 77.2 L 71.2 81.7 Z M 8.7 1.2 L 1.7 8.2 Q 4 10.4 6.6 12.3 Q 8.6 13.8 10.9 14.9 Q 15.2 16.9 20 17.5 L 22.6 12.3 Q 19.8 10.6 17.2 8.5 Q 13.8 5.7 10.5 2.8 L 8.7 1.2 Z M 58.5 23 L 60 19.7 Q 55.7 17.8 51.8 15.2 L 53.8 13.7 L 73.7 13.7 Q 70.5 16.6 66.8 18.7 Q 62.8 21.1 58.5 23 Z M 59.7 56.6 L 71.2 56.6 L 71.2 60.6 L 62.7 60.6 Q 61.2 60.8 60.2 59.9 Q 59.5 58.7 59.7 57.2 L 59.7 56.6 Z M 39.5 49.2 L 39.5 44.2 L 47.5 44.2 L 47.5 49.2 L 39.5 49.2 Z" />
    </g>
  </svg>
  <svg x="410" y="52" width="95.2" height="92.2" viewBox="0 0 95.2 92.2"
    xmlns="http://www.w3.org/2000/svg">
    <g id="svgGroup" stroke-linecap="round" fill-rule="evenodd" font-size="9pt" stroke="#000"
      stroke-width="0" fill="#735746" style="stroke:#000;stroke-width:0;fill:#735746">
      <path
        d="M 0 89.4 L 4.2 92.2 Q 7.2 89.5 10 86.5 Q 13.1 82.9 15.2 78.8 Q 17.2 74.5 18.2 69.8 Q 19.2 64.5 19.6 59 L 25.2 59 L 25.2 91.2 L 30.9 91.2 Q 33.1 91.2 34.8 89.8 Q 36.6 88 36.6 85.5 L 36.6 49.5 L 19.9 49.5 L 19.9 47 L 19.9 39.7 L 39.1 39.7 L 39.1 30.1 L 35.9 30.1 L 35.9 3.6 L 24.5 3.6 L 24.5 30.1 L 19.9 30.1 L 19.9 5.5 L 7.9 5.5 L 7.9 43.8 Q 7.9 52 7.5 60.2 Q 7.2 64.7 6.6 69.3 Q 5.7 74.4 4.1 79.3 Q 2.3 84.4 0 89.4 Z M 43.3 64.6 L 44.2 66.6 L 39.1 66.6 L 39.1 75.4 L 63.1 75.4 L 63.1 91.6 L 69.6 91.6 Q 72.5 91.6 74.5 89.5 Q 76.1 87.5 76.1 85 L 76.1 75.4 L 95.2 75.4 L 95.2 66.6 L 76.1 66.6 L 76.1 57.4 L 64.8 57.4 Q 65.8 56.2 66.7 54.8 L 79.9 54.8 Q 82 54.8 84.1 54.5 Q 86.3 54.1 88.3 53 Q 91.8 50.5 91.7 46.1 L 91.7 10.2 L 68.7 10.2 Q 72.4 6.3 73.5 0.9 L 60.4 0 Q 58.7 5.2 56.7 10.2 L 41.5 10.2 L 41.5 54.8 L 55.3 54.8 Q 53.2 57.5 50.6 59.7 Q 47.1 62.4 43.3 64.6 Z M 79.9 46.1 L 70.5 46.1 Q 71.7 41.6 72 36.8 L 79.9 36.8 L 79.9 46.1 Z M 53.5 28.2 L 53.5 19 L 61.1 19 L 61.1 28.2 L 53.5 28.2 Z M 72.3 19 L 79.9 19 L 79.9 28.2 L 72.3 28.2 L 72.3 19 Z M 59.4 46.1 L 53.5 46.1 L 53.5 36.8 L 60.9 36.8 Q 60.6 41.6 59.4 46.1 Z M 63.1 59.4 L 63.1 66.6 L 52.8 66.6 Q 58.6 64 63.1 59.4 Z" />
    </g>
  </svg>
  <svg x="520" y="57" width="20.001" height="87.501" viewBox="0 0 20.001 87.501"
    xmlns="http://www.w3.org/2000/svg">
    <g id="svgGroup" stroke-linecap="round" fill-rule="evenodd" font-size="9pt" stroke="#000"
      stroke-width="0" fill="#cdaf8f" style="stroke:#000;stroke-width:0;fill:#cdaf8f">
      <path
        d="M 3.7 0.201 L 15.3 0.001 Q 17.7 0.001 17.9 2.801 L 17.9 6.651 L 17.9 15.401 L 17.9 53.701 Q 18.2 57.601 14.4 58.301 Q 3.8 58.401 6.4 58.401 Q 1.4 58.201 1.6 53.701 L 1.6 3.201 Q 1.3 0.801 3.7 0.201 Z M 0 77.801 Q 0 73.501 2.7 70.801 Q 5.4 68.101 10 68.101 Q 14.6 68.101 17.3 70.801 Q 20 73.501 20 77.801 Q 20 82.101 17.3 84.801 Q 14.6 87.501 10 87.501 Q 5.4 87.501 2.7 84.801 Q 0 82.101 0 77.801 Z" />
    </g>
  </svg>
</svg>
