<svg xmlns="http://www.w3.org/2000/svg" viewBox="0 0 350 100">
  <svg x="10" y="8" width="88" height="84.1" viewBox="0 0 88 84.1"
    xmlns="http://www.w3.org/2000/svg">
    <g id="svgGroup" stroke-linecap="round" fill-rule="evenodd" font-size="9pt" stroke="#000"
      stroke-width="0" fill="#3b332d" style="stroke:#000;stroke-width:0;fill:#3b332d">
      <path
        d="M 2.4 19.1 L 2.4 83.2 L 9 83.2 Q 11.9 83.2 14 81.1 Q 15.6 79.1 15.6 76.6 L 15.6 59.2 Q 16.7 60.1 17.9 61 Q 21.8 64.1 26.2 66.4 Q 30.5 68.6 35.4 69.2 L 37.6 64.7 L 37.6 81.8 L 44 81.8 Q 46.8 81.8 48.8 79.8 Q 50.4 77.9 50.4 75.4 L 50.4 58.8 Q 50.9 59.3 51.5 59.7 Q 55.8 63.2 60.7 66 Q 65 68.1 69.8 68.7 L 72.3 63.8 Q 67.4 60.6 62.8 56.8 Q 59.4 54 55.8 51.3 L 50.4 57.1 L 50.4 39.3 L 56.2 32.3 Q 58.8 34.3 61.4 36.5 Q 66.6 40.7 72.4 44.3 L 72.4 28.5 L 50.4 28.5 L 50.4 39.3 L 52.8 41.1 Q 57.5 44.7 62.8 47.4 Q 66.6 49.1 70.7 49.6 L 72.4 45.9 L 72.4 69.1 Q 72.4 70.7 72.1 72.2 Q 71.9 73.3 71.2 74.1 Q 70.7 74.7 70 74.9 Q 68.6 75.2 67.2 75.2 L 58.9 74.7 L 58.9 79.4 Q 61.7 81.6 65 83.1 Q 67.6 84.1 70.4 84.1 Q 74.2 84.1 78 83.3 Q 80 82.8 81.8 81.7 Q 83.8 80.1 84.7 77.7 Q 85.6 74.8 85.6 71.5 L 85.6 19.1 L 50.4 19.1 L 50.4 9.4 L 88 9.4 L 88 0 L 0 0 L 0 9.4 L 37.6 9.4 L 37.6 19.1 L 2.4 19.1 Z M 36.2 49.9 L 37.6 46.8 L 37.6 63.9 Q 31.2 59.9 25.5 55 Q 23.4 53.2 21.3 51.5 L 15.6 57.6 L 15.6 28.5 L 37.6 28.5 L 37.6 44.3 Q 32 40.8 27 36.5 Q 24.5 34.4 22 32.4 L 15.8 39.4 Q 17 40.3 18.3 41.2 Q 23 44.9 28.3 47.6 Q 32.1 49.4 36.2 49.9 Z" />
    </g>
  </svg>
  <svg x="112" y="2" width="89.5" height="89.3" viewBox="0 0 89.5 89.3"
    xmlns="http://www.w3.org/2000/svg">
    <g id="svgGroup" stroke-linecap="round" fill-rule="evenodd" font-size="9pt" stroke="#000"
      stroke-width="0" fill="#ad8053" style="stroke:#000;stroke-width:0;fill:#ad8053">
      <path
        d="M 88.7 36.6 L 0.2 36.6 L 0.2 44.2 L 26.9 44.2 L 26.9 49.2 L 4.8 49.2 L 4.8 89.3 L 71.2 89.3 Q 73.4 89.3 75.7 88.9 Q 78.1 88.6 80.2 87.6 Q 83.8 85.7 83.9 81.7 L 83.9 49.2 L 59.7 49.2 L 59.7 44.2 L 88.7 44.2 L 88.7 36.6 Z M 0 25.9 L 3.2 34.5 Q 13.1 31.6 22.8 27.6 L 22.8 34.7 L 29 34.7 Q 31.4 34.8 33.3 33.3 Q 35.2 31.3 35.2 28.5 L 35.2 17.9 L 36.8 21.9 Q 40.3 21 43.8 19.5 Q 49.6 23.1 56.4 23.9 Q 46.4 28.1 36 30.5 L 38.3 35.7 Q 46 34.7 53.7 32.9 Q 61.7 31 69.4 27.9 Q 80.6 23.2 89.5 14.8 L 89.5 6.5 L 61.1 6.5 L 63.3 4 L 53.3 0 Q 45.7 10.1 35.2 16.7 L 35.2 1 L 22.8 1 L 22.8 19.7 Q 14.9 22 7.1 24.2 Q 3.5 25.2 0 25.9 Z M 17.5 70 L 17.5 56.6 L 26.5 56.6 Q 25.7 59.6 23.4 61.5 Q 20.9 63.3 17.9 64 L 20.2 69.1 Q 23.7 68.8 27.2 67.9 Q 30.7 66.9 33.7 65.1 Q 38.3 62.1 39.3 56.6 L 47.5 56.6 L 47.5 58.9 Q 47.4 61.1 47.9 63.1 Q 48.4 64.8 49.6 66 Q 51.1 67.1 52.9 67.5 Q 54.8 67.9 56.7 67.8 L 71.2 67.8 L 71.2 70 L 17.5 70 Z M 71.2 81.7 L 17.5 81.7 L 17.5 77.2 L 71.2 77.2 L 71.2 81.7 Z M 8.7 1.2 L 1.7 8.2 Q 4 10.4 6.6 12.3 Q 8.6 13.8 10.9 14.9 Q 15.2 16.9 20 17.5 L 22.6 12.3 Q 19.8 10.6 17.2 8.5 Q 13.8 5.7 10.5 2.8 L 8.7 1.2 Z M 58.5 23 L 60 19.7 Q 55.7 17.8 51.8 15.2 L 53.8 13.7 L 73.7 13.7 Q 70.5 16.6 66.8 18.7 Q 62.8 21.1 58.5 23 Z M 59.7 56.6 L 71.2 56.6 L 71.2 60.6 L 62.7 60.6 Q 61.2 60.8 60.2 59.9 Q 59.5 58.7 59.7 57.2 L 59.7 56.6 Z M 39.5 49.2 L 39.5 44.2 L 47.5 44.2 L 47.5 49.2 L 39.5 49.2 Z" />
    </g>
  </svg>
  <svg x="210" y="2" width="95.2" height="92.2" viewBox="0 0 95.2 92.2"
    xmlns="http://www.w3.org/2000/svg">
    <g id="svgGroup" stroke-linecap="round" fill-rule="evenodd" font-size="9pt" stroke="#000"
      stroke-width="0" fill="#735746" style="stroke:#000;stroke-width:0;fill:#735746">
      <path
        d="M 0 89.4 L 4.2 92.2 Q 7.2 89.5 10 86.5 Q 13.1 82.9 15.2 78.8 Q 17.2 74.5 18.2 69.8 Q 19.2 64.5 19.6 59 L 25.2 59 L 25.2 91.2 L 30.9 91.2 Q 33.1 91.2 34.8 89.8 Q 36.6 88 36.6 85.5 L 36.6 49.5 L 19.9 49.5 L 19.9 47 L 19.9 39.7 L 39.1 39.7 L 39.1 30.1 L 35.9 30.1 L 35.9 3.6 L 24.5 3.6 L 24.5 30.1 L 19.9 30.1 L 19.9 5.5 L 7.9 5.5 L 7.9 43.8 Q 7.9 52 7.5 60.2 Q 7.2 64.7 6.6 69.3 Q 5.7 74.4 4.1 79.3 Q 2.3 84.4 0 89.4 Z M 43.3 64.6 L 44.2 66.6 L 39.1 66.6 L 39.1 75.4 L 63.1 75.4 L 63.1 91.6 L 69.6 91.6 Q 72.5 91.6 74.5 89.5 Q 76.1 87.5 76.1 85 L 76.1 75.4 L 95.2 75.4 L 95.2 66.6 L 76.1 66.6 L 76.1 57.4 L 64.8 57.4 Q 65.8 56.2 66.7 54.8 L 79.9 54.8 Q 82 54.8 84.1 54.5 Q 86.3 54.1 88.3 53 Q 91.8 50.5 91.7 46.1 L 91.7 10.2 L 68.7 10.2 Q 72.4 6.3 73.5 0.9 L 60.4 0 Q 58.7 5.2 56.7 10.2 L 41.5 10.2 L 41.5 54.8 L 55.3 54.8 Q 53.2 57.5 50.6 59.7 Q 47.1 62.4 43.3 64.6 Z M 79.9 46.1 L 70.5 46.1 Q 71.7 41.6 72 36.8 L 79.9 36.8 L 79.9 46.1 Z M 53.5 28.2 L 53.5 19 L 61.1 19 L 61.1 28.2 L 53.5 28.2 Z M 72.3 19 L 79.9 19 L 79.9 28.2 L 72.3 28.2 L 72.3 19 Z M 59.4 46.1 L 53.5 46.1 L 53.5 36.8 L 60.9 36.8 Q 60.6 41.6 59.4 46.1 Z M 63.1 59.4 L 63.1 66.6 L 52.8 66.6 Q 58.6 64 63.1 59.4 Z" />
    </g>
  </svg>
  <svg x="320" y="7" width="20.001" height="87.501" viewBox="0 0 20.001 87.501"
    xmlns="http://www.w3.org/2000/svg">
    <g id="svgGroup" stroke-linecap="round" fill-rule="evenodd" font-size="9pt" stroke="#000"
      stroke-width="0" fill="#cdaf8f" style="stroke:#000;stroke-width:0;fill:#cdaf8f">
      <path
        d="M 3.7 0.201 L 15.3 0.001 Q 17.7 0.001 17.9 2.801 L 17.9 6.651 L 17.9 15.401 L 17.9 53.701 Q 18.2 57.601 14.4 58.301 Q 3.8 58.401 6.4 58.401 Q 1.4 58.201 1.6 53.701 L 1.6 3.201 Q 1.3 0.801 3.7 0.201 Z M 0 77.801 Q 0 73.501 2.7 70.801 Q 5.4 68.101 10 68.101 Q 14.6 68.101 17.3 70.801 Q 20 73.501 20 77.801 Q 20 82.101 17.3 84.801 Q 14.6 87.501 10 87.501 Q 5.4 87.501 2.7 84.801 Q 0 82.101 0 77.801 Z" />
    </g>
  </svg>
</svg>
